SplineFontDB: 3.2
FontName: Cooper-Italic
FullName: Cooper* Italic
FamilyName: Cooper*
Weight: Regular
Copyright: 
Version: 0.1
ItalicAngle: -7
UnderlinePosition: -200
UnderlineWidth: 100
Ascent: 1600
Descent: 400
InvalidEm: 0
LayerCount: 2
Layer: 0 0 "Back" 1
Layer: 1 0 "Fore" 0
XUID: [1021 31 -699969567 16487490]
FSType: 0
OS2Version: 0
OS2_WeightWidthSlopeOnly: 0
OS2_UseTypoMetrics: 1
CreationTime: 1460762150
ModificationTime: 1700926980
PfmFamily: 17
TTFWeight: 400
TTFWidth: 5
LineGap: 0
VLineGap: 0
OS2TypoAscent: 2500
OS2TypoAOffset: 0
OS2TypoDescent: -850
OS2TypoDOffset: 0
OS2TypoLinegap: 0
OS2WinAscent: 2500
OS2WinAOffset: 0
OS2WinDescent: 850
OS2WinDOffset: 0
HheadAscent: 2500
HheadAOffset: 0
HheadDescent: -850
HheadDOffset: 0
OS2CapHeight: 1500
OS2XHeight: 1040
OS2FamilyClass: 256
OS2Vendor: 'it* '
OS2UnicodeRanges: 00000001.00000000.00000000.00000000
Lookup: 3 0 0 "'swsh' Swash in Latin lookup 1" { "'swsh' Swash in Latin lookup 1-1"  } ['swsh' ('DFLT' <'dflt' > 'latn' <'dflt' > ) ]
Lookup: 4 0 1 "'liga' Standard Ligatures lookup" { "'liga' Standard Ligatures lookup"  } ['liga' ('DFLT' <'dflt' > 'grek' <'dflt' > 'latn' <'dflt' > ) ]
Lookup: 258 0 0 "'kern' Horizontal Kerning lookup 0" { "'kern' Horizontal Kerning lookup 0-1" [300,0,4] } ['kern' ('DFLT' <'dflt' > 'grek' <'dflt' > 'latn' <'dflt' > ) ]
MarkAttachClasses: 1
DEI: 91125
KernClass2: 12 13 "'kern' Horizontal Kerning lookup 0-1"
 113 A L Agrave Aacute Acircumflex Atilde Adieresis Aring Amacron Abreve Aogonek Lacute uni013B Lslash uni01CD uni0394
 73 D O Q Eth Ograve Oacute Ocircumflex Otilde Odieresis Oslash Dcaron Dcroat
 17 F P F.swsh P.swsh
 11 K X uni0136
 107 V W Y Yacute Wcircumflex Ycircumflex Ydieresis Wgrave Wacute Wdieresis uni1E86 uni1E88 Ygrave T.swsh Y.swsh
 88 b o ograve oacute ocircumflex otilde odieresis oslash thorn omacron obreve ohungarumlaut
 48 h m n hbar nacute uni0146 ncaron napostrophe eng

StartChar: zero
Encoding: 48 48 0
Width: 1157
VWidth: 1920
Flags: HMW
LayerCount: 2
Fore
SplineSet
65 496 m 260
 65 755.23046875 147.53515625 939.201171875 269.45703125 1058 c 4
 389.770507812 1175.23144531 548.438476562 1229 704 1229 c 260
 916 1229 1157 1104 1157 767 c 260
 1157 490.33984375 1071.51953125 274.251953125 927.392578125 140 c 4
 819.638671875 39.62890625 679.102539062 -15 517 -15 c 260
 273 -15 65 142 65 496 c 260
555 209 m 260
 578.282226562 209 608.020507812 218.610351562 629.11328125 258 c 4
 695.115234375 381.254882812 731 712.8046875 731 946 c 260
 731 991 712 1019 654 1019 c 260
 616.8671875 1019 593.197265625 1003.04882812 579.88671875 977 c 4
 513.563476562 847.209960938 479 499.241210938 479 290 c 260
 479 227 507 209 555 209 c 260
EndSplineSet
EndChar

StartChar: A
Encoding: 65 65 1
Width: 1622
VWidth: 1920
Flags: HMW
AnchorPoint: "ogonek" 1329 0 basechar 0
AnchorPoint: "bottom" 713 0 basechar 0
AnchorPoint: "top" 883 1400 basechar 0
LayerCount: 2
Fore
SplineSet
482 273 m 2
 480 269 l 2
 476.533203125 262.067382812 475 256 475 245 c 0
 475 219.283203125 483.043945312 210.52734375 495 203.380859375 c 0
 512.583007812 192.872070312 536.629882812 189.493164062 558 179.860351562 c 0
 578.69140625 170.533203125 597 151.655273438 597 100 c 0
 597 -24 436 -29 263 -29 c 0
 72 -29 -26 -3 -26 105 c 0
 -26 139.8828125 -7.6826171875 167.69140625 20 186.149414062 c 0
 56.5078125 210.4921875 104 220 156.854492188 265 c 0
 210.470703125 310.6484375 266.098632812 406.33984375 345 555 c 2
 578 994 l 2
 641.350585938 1113.36035156 665 1183 665 1281 c 0
 665 1412 772 1466 877 1466 c 0
 1036 1466 1133.60546875 1362.60449219 1206 1158 c 0
 1319.18847656 838.102539062 1369.86914062 632.411132812 1445 312 c 0
 1455.24121094 268.326171875 1469.01171875 239.384765625 1488.84765625 223 c 0
 1509.37207031 206.044921875 1534.10839844 206.250976562 1557 193.33984375 c 0
 1580.08105469 180.322265625 1596 161.453125 1596 121 c 0
 1596 44 1553 16 1507 1 c 0
 1453 -17 1272 -23 1179 -23 c 0
 1122.06835938 -23 1041.35253906 -22.5927734375 974 -11.45703125 c 0
 904.356445312 0.0576171875 849 26.3876953125 849 94 c 0
 849 131.560546875 866.606445312 158.801757812 890.532226562 174 c 0
 909.893554688 186.298828125 934.083007812 188.641601562 951 198.471679688 c 0
 966.799804688 207.65234375 977 224.259765625 977 246 c 0
 977 251 976.805664062 255.973632812 975 265 c 2
 974 270 l 2
 969.72265625 291.387695312 952.443359375 307.47265625 911 311 c 0
 864 315 806 316 727 316 c 0
 658 316 601 316 553 308 c 0
 517.149414062 302.024414062 489.200195312 287.400390625 482 273 c 2
805 571 m 0
 828 571 847 570 855 570 c 0
 883 570 900 590 900 618 c 0
 900 632 894.481445312 663.583984375 889 689 c 2
 878 740 l 2
 866.112304688 795.114257812 828 877 802 877 c 0
 778 877 754.095703125 850.657226562 722 792 c 2
 664 686 l 2
 641.435546875 644.76171875 636 618 636 600 c 0
 636 578 658 568 674 568 c 0
 689 568 763 571 805 571 c 0
EndSplineSet
AlternateSubs2: "'swsh' Swash in Latin lookup 1-1" A.swsh
EndChar

StartChar: B
Encoding: 66 66 2
Width: 1433
VWidth: 1920
Flags: HMW
AnchorPoint: "top" 937 1400 basechar 0
AnchorPoint: "bottom" 878 0 basechar 0
LayerCount: 2
Fore
SplineSet
730 198 m 0
 816 198 894 252 894 462 c 0
 894 582 856 626 787 628 c 0
 778.00390625 628.260742188 765 629 753 629 c 0
 706 629 685.369140625 625.944335938 679 585 c 0
 672 540 662.673828125 473.026367188 659 426 c 0
 654 362 650 309 650 269 c 0
 650 228 652 198 730 198 c 0
753 836 m 0
 879 836 913 955 913 1095 c 0
 913 1185 860 1227 798 1227 c 0
 733 1227 726.591796875 1191.20117188 719 1133 c 0
 713 1087 706 1043 701 974 c 0
 697.862304688 930.696289062 697 911.083007812 697 887 c 0
 697 837 739 836 753 836 c 0
558 -18 m 0
 472 -18 271 -25 176 -25 c 0
 63 -25 23 28 23 86 c 0
 23 133.37109375 45.6630859375 157.118164062 76.5908203125 174 c 0
 105.354492188 189.701171875 139.401367188 186.655273438 167.537109375 224 c 0
 210.688476562 281.274414062 222.656874979 415.818207073 242 567 c 2
 280 864 l 2
 290.801491715 948.422185246 294 1016 294 1086 c 0
 294 1161.76367188 291.052734375 1190.06445312 262.772460938 1212 c 0
 238.998046875 1230.44042969 216 1220 187.907226562 1238 c 0
 164.342773438 1253.09863281 151 1276.84863281 151 1309 c 0
 151 1383 200 1430 307 1430 c 0
 375 1430 516 1430 618 1430 c 0
 740 1430 847 1448 966 1448 c 0
 1223 1448 1386 1298 1386 1118 c 0
 1386 992 1317 894 1249 836 c 0
 1215 807 1180 789 1180 770 c 0
 1180 757 1225.09375 740.725585938 1264 716 c 0
 1371 648 1417 577 1417 438 c 0
 1417 199 1244 -30 923 -30 c 0
 804 -30 672 -18 558 -18 c 0
EndSplineSet
AlternateSubs2: "'swsh' Swash in Latin lookup 1-1" B.swsh
EndChar

StartChar: C
Encoding: 67 67 3
Width: 1467
VWidth: 1920
Flags: HMW
AnchorPoint: "top" 925 1400 basechar 0
AnchorPoint: "bottom" 677 0 basechar 0
LayerCount: 2
Fore
SplineSet
688 -29 m 0
 341 -29 82 198 82 528 c 0
 82 1075 512 1429 947 1429 c 0
 1127 1429 1157 1380 1187 1380 c 0
 1213 1380 1235 1415 1273 1415 c 0
 1364 1415 1503 1251 1503 1085 c 0
 1503 923 1386 873 1311 873 c 0
 1268.13476562 873 1236.9453125 883.28125 1213 899.852539062 c 0
 1186.43457031 918.237304688 1168.78515625 944.364257812 1154 972.786132812 c 0
 1113.43652344 1050.75976562 1094.42675781 1146 972 1146 c 0
 757 1146 661 836 661 648 c 0
 661 438 750 312 887 312 c 0
 1022 312 1122.29101562 419.756835938 1179 488 c 0
 1238 559 1280 587 1343 587 c 0
 1408 587 1452 528 1452 446 c 0
 1452 330 1398.76074219 225.19140625 1318 150 c 0
 1289 123 1270 113 1244 113 c 0
 1226 113 1218.93847656 111.8125 1189 110 c 0
 1144.95996094 107.333007812 982 -29 688 -29 c 0
EndSplineSet
EndChar

StartChar: D
Encoding: 68 68 4
Width: 1594
VWidth: 1920
Flags: HMW
AnchorPoint: "top" 844 1400 basechar 0
AnchorPoint: "bottom" 695 0 basechar 0
LayerCount: 2
Fore
SplineSet
817 244 m 0
 864 244 912.837890625 263.823242188 947 309 c 0
 1026.97851562 414.765625 1069 647 1069 877 c 0
 1069 1107 1021 1214 861 1214 c 0
 837 1214 819 1204 808 1196 c 0
 790.189453125 1183.046875 783.625 1170.0390625 780 1133 c 0
 773.171875 1063.22363281 768.517578125 1036.10644531 758.155273438 883 c 0
 751.569335938 785.677734375 739.868164062 597.44921875 726 355 c 0
 724.443359375 327.79296875 720.65625 285.368164062 738.819335938 266 c 0
 756.864257812 246.7578125 785.103515625 244 817 244 c 0
817 -33 m 0
 669 -33 434 -24 333 -24 c 0
 247 -24 247 -30 152 -30 c 0
 79 -30 17 6 17 83 c 0
 17 126.00390625 28.1103515625 150.856445312 44.767578125 167 c 0
 65.2412109375 186.841796875 93.0322265625 196.586914062 121 204.581054688 c 0
 144.98828125 211.4375 167.428710938 227.76953125 181 257 c 0
 207 313 224.624561186 440.359866729 240 560 c 2
 274 849 l 2
 285.765625 940.553710938 317.286132812 1183.12402344 254 1215.59570312 c 0
 233.231445312 1226.25195312 200.56640625 1224.49316406 177.828125 1242 c 0
 154.983398438 1259.58886719 147 1288.53320312 147 1316 c 0
 147 1380 205 1437 262 1437 c 0
 330 1437 390 1429 492 1429 c 0
 649 1429 799 1446 1002 1446 c 0
 1389 1446 1595 1207 1595 797 c 0
 1595 427 1371 49 1026 -15 c 0
 948 -29 897 -33 817 -33 c 0
EndSplineSet
AlternateSubs2: "'swsh' Swash in Latin lookup 1-1" D.swsh
EndChar

StartChar: E
Encoding: 69 69 5
Width: 1385
VWidth: 1920
Flags: HMW
AnchorPoint: "ogonek" 1094 0 basechar 0
AnchorPoint: "top" 748 1400 basechar 0
AnchorPoint: "bottom" 859 0 basechar 0
LayerCount: 2
Fore
SplineSet
499 -21 m 0
 413 -21 211 -27 126 -27 c 0
 65 -27 0 10 0 74 c 0
 0 121.971679688 9.826171875 149.6640625 25.03125 168 c 0
 45.9482421875 193.225585938 77.04296875 200.745117188 106.734375 219 c 0
 123.670898438 229.413085938 140.150390625 243.3203125 154.022460938 266 c 0
 168.133789062 289.0703125 179.546875 321.217773438 186 368 c 0
 208.376953125 530.232421875 225 637 248 835 c 0
 267 996 276 1057 276 1131 c 0
 276 1164 261 1184 240 1199 c 0
 222 1212 199 1222 182 1241 c 0
 167 1258 157 1282 157 1318 c 0
 157 1392 239 1432 346 1432 c 0
 414 1432 634 1426 736 1426 c 0
 858 1426 892 1421 971 1421 c 0
 1094 1421 1163 1441 1210 1441 c 0
 1300 1441 1389 1284 1389 1154 c 0
 1389 1019 1291 983 1245 983 c 0
 1217.77050781 983 1197.03125 989.393554688 1180 1003.38964844 c 0
 1163.79980469 1016.70214844 1150.95410156 1036.89257812 1139.06640625 1065 c 0
 1107.91308594 1138.66503906 1070.76269531 1171.23535156 1018 1178 c 0
 956 1186 922 1179 860 1179 c 0
 785 1179 779 1130 768 1074 c 0
 756 1011 754 979 747 906 c 0
 744 878 748 860 756 848 c 0
 765 835 779 830 792 830 c 0
 823 830 861 833 873 905 c 0
 881 952 887 1014 975 1014 c 0
 1070 1014 1099 907 1099 797 c 0
 1099 739 1092 680 1081 636 c 0
 1041 471 1010 393 916 393 c 0
 873.930664062 393 835.217773438 425.262695312 831.370117188 464 c 0
 828.967773438 488.18359375 837.060546875 516.008789062 835.603515625 538 c 0
 833.461914062 570.323242188 819.043945312 595 771 595 c 0
 726 595 708.352539062 585.958984375 703 541 c 0
 698 499 698.595703125 486.388671875 698 469 c 0
 696.62890625 428.9609375 698 328 698 278 c 0
 698 236 719.508789062 212.088867188 744 211 c 0
 789 209 809 206 865 206 c 0
 920 206 961.231445312 211.477539062 1000 228 c 0
 1045.38574219 247.342773438 1083 302 1109 356 c 0
 1141 422 1186 475 1246 475 c 0
 1317 475 1366 409 1366 311 c 0
 1366 148 1252 -30 1143 -30 c 0
 1107 -30 1047 -23 989 -23 c 0
 872 -23 831 -22 746 -22 c 0
 659 -22 583 -21 499 -21 c 0
EndSplineSet
AlternateSubs2: "'swsh' Swash in Latin lookup 1-1" E.swsh
EndChar

StartChar: F
Encoding: 70 70 6
Width: 1272
VWidth: 1920
Flags: HMW
AnchorPoint: "top" 841 1400 basechar 0
AnchorPoint: "bottom" 931 0 basechar 0
LayerCount: 2
Fore
SplineSet
388 -38 m 0
 220 -38 120 -24 66 10 c 0
 27 34 11 52 11 100 c 0
 11 144 37 177 61 189 c 0
 82 200 111 199 132 211 c 0
 154 223 160 244 171 281 c 0
 190 347 211 426 235 606 c 2
 267 848 l 2
 288 1008 292 1141 263 1171 c 0
 241 1193 207 1189 181 1208 c 0
 158 1225 145 1239 145 1277 c 0
 145 1371 222 1417 319 1417 c 0
 387 1417 571 1409 673 1409 c 0
 795 1409 878 1417 997 1417 c 0
 1070 1417 1164 1428 1211 1428 c 0
 1262 1428 1379 1345 1379 1135 c 0
 1379 1021 1310 978 1243 978 c 0
 1191 978 1165 1000 1146 1028 c 0
 1126 1058 1114 1096 1089 1124 c 0
 1071 1144 1044.89257812 1157.38867188 1003 1161 c 0
 945 1166 917 1165 875 1164 c 0
 774 1162 762 1133 753 1074 c 0
 748 1041 742 988 739 947 c 0
 737 917 735 908 735 878 c 0
 735 863 739 853 744 847 c 0
 752 838 764 836 777 836 c 0
 815 836 847 841 864 905 c 0
 881 967 907 1012 977 1012 c 0
 1023 1012 1093 996 1094 784 c 0
 1094 742 1091 693 1084 634 c 0
 1062 451 988 396 924 396 c 0
 880 396 855 413 841 435 c 0
 824 461 821 495 819 525 c 0
 816 559 814 574 799 583 c 0
 791 588 779 591 759 591 c 0
 741 591 728 588 719 581 c 0
 711 575 707 566 705 552 c 0
 699 502 695 481 691 436 c 2
 682 342 l 2
 677 276 685 239 704 220 c 0
 728 196 767 193 793 179 c 0
 814 168 830 153 830 118 c 0
 830 54 799 15 715 -12 c 0
 647 -34 546 -38 388 -38 c 0
EndSplineSet
AlternateSubs2: "'swsh' Swash in Latin lookup 1-1" F.swsh
EndChar

StartChar: G
Encoding: 71 71 7
Width: 1602
VWidth: 1920
Flags: HMW
AnchorPoint: "top" 948 1400 basechar 0
AnchorPoint: "bottom" 780 0 basechar 0
LayerCount: 2
Fore
SplineSet
713 -39 m 0
 376 -39 84 124 84 554 c 0
 84 961 387 1440 922 1440 c 0
 1102 1440 1111 1395 1151 1395 c 0
 1177 1395 1207 1421 1253 1421 c 0
 1361 1421 1474 1266 1474 1100 c 0
 1474 1033.93359375 1446.68359375 984.131835938 1408.99609375 951 c 0
 1371.98339844 918.4609375 1324.96679688 902 1284 902 c 0
 1222.99902344 902 1188.02050781 924.208984375 1163 955.466796875 c 0
 1124.31835938 1003.79101562 1109.43945312 1073.74316406 1059 1116.69433594 c 0
 1031.94824219 1139.73046875 994.666992188 1155 938 1155 c 0
 793 1155 650 936 650 608 c 0
 650 358 738 277 865 277 c 0
 914.803710938 277 946.84375 293.1484375 966.147460938 320 c 0
 984.052734375 344.90625 991 379.021484375 991 418 c 0
 991 450.762695312 974.680664062 465.724609375 954 475.451171875 c 0
 930.724609375 486.399414062 909 478 879 497.96484375 c 0
 862.022460938 509.263671875 844 524.495117188 844 565 c 0
 844 607.1875 857.068359375 653.428710938 928 688.01953125 c 0
 987.983398438 717.271484375 1090.46777344 735 1262 735 c 0
 1400.43847656 735 1487.8125 719.927734375 1541 695.706054688 c 0
 1596.84472656 670.2734375 1615 634.75390625 1615 596 c 0
 1615 534.845703125 1592.65917969 515.833984375 1564 504.767578125 c 0
 1538.90039062 495.075195312 1508.95410156 491.477539062 1484.92382812 471 c 0
 1468.94433594 457.3828125 1455.58105469 436.30078125 1448 401 c 0
 1428.72753906 311.263671875 1372 223 1272 139 c 0
 1154.92480469 40.6572265625 970 -39 713 -39 c 0
EndSplineSet
AlternateSubs2: "'swsh' Swash in Latin lookup 1-1" G.swsh
EndChar

StartChar: H
Encoding: 72 72 8
Width: 1617
VWidth: 1920
Flags: HMW
AnchorPoint: "top" 923 1400 basechar 0
AnchorPoint: "bottom" 963 0 basechar 0
LayerCount: 2
Fore
SplineSet
197 591 m 2
 235 884 l 2
 267.737304688 1136.42285156 253 1170 227 1188 c 0
 214.157226562 1196.89160156 181.887695312 1203.75 163.391601562 1226 c 0
 153.552734375 1237.8359375 147 1251.22070312 147 1282 c 0
 147 1356 213.950195312 1397.23144531 251 1407 c 0
 312.254882812 1423.15039062 386 1435 517 1435 c 0
 653 1435 736 1431 802 1414 c 0
 853.90625 1400.62988281 882 1348 882 1313 c 0
 882 1276.8515625 869.680664062 1258.54882812 853.693359375 1245 c 0
 839.084960938 1232.62011719 819.915039062 1225.71777344 801 1212.30761719 c 0
 768.134765625 1189.00683594 731.461914062 1150.60742188 719 936 c 0
 716.446289062 892.028320312 720.854492188 877.444335938 739 873 c 0
 769.46875 865.536132812 790 864 842 864 c 0
 910 864 934.791015625 865.354492188 978 868 c 0
 1027 871 1041.10839844 891.900390625 1046 952 c 0
 1053 1038 1053 1078 1053 1144 c 0
 1053 1163.21289062 1044.66503906 1174.04003906 1035.39453125 1183 c 0
 1020.97753906 1196.93457031 1001.4609375 1204.93457031 985.629882812 1222 c 0
 973.700195312 1234.86035156 965 1253.43554688 965 1285 c 0
 965 1328.45214844 993.931640625 1364.84863281 1043 1388.97851562 c 0
 1110.87402344 1422.35546875 1219.10546875 1435 1359 1435 c 0
 1464.40234375 1435 1553.04980469 1432.63964844 1611 1411.75683594 c 0
 1657.296875 1395.07324219 1685 1367.56835938 1685 1319 c 0
 1685 1270.03027344 1670.06152344 1247.01953125 1650.59960938 1233 c 0
 1627 1216 1597.66210938 1210.97363281 1581 1198.49804688 c 0
 1549.47558594 1174.89550781 1543.53125 1129.55175781 1507 827 c 2
 1468 504 l 2
 1450.79882812 361.537109375 1445.52148438 265.18359375 1464.57714844 238 c 0
 1480 216 1521.81054688 210.078125 1545.11621094 188 c 0
 1558.95898438 174.88671875 1565 158.365234375 1565 128 c 0
 1565 54 1490.64746094 16.814453125 1454 6 c 0
 1393 -12 1286 -17 1195 -17 c 0
 1109 -17 947 -17 888 6 c 0
 836.25 26.173828125 814 64 814 109 c 0
 814 151.15234375 827.977539062 172.594726562 846.264648438 188 c 0
 866.255859375 204.840820312 891.327148438 208.555664062 912.9140625 226 c 0
 933.540039062 242.66796875 950.389648438 266.905273438 961 312 c 0
 969 346 972 372 976 404 c 0
 981.109375 444.876953125 986 469 989 517 c 0
 992 560 983.11328125 580.366210938 961 587 c 0
 931 596 915 596 847 596 c 0
 787 596 763.03125 595.75390625 725 591 c 0
 685 586 671 565 665 530 c 0
 655 471 653.670898438 450.038085938 649 408 c 0
 642 345 642.609375 308.97265625 641 280 c 0
 639.524414062 253.436523438 647.525390625 236.436523438 658.533203125 223 c 0
 671.78125 206.828125 692.192382812 199.396484375 707.629882812 187 c 0
 723.48046875 174.271484375 735 160.647460938 735 135 c 0
 735 72.8369140625 702.064453125 26.0869140625 622 3.23828125 c 0
 560.061523438 -14.4384765625 469.918945312 -15 345 -15 c 0
 235.603515625 -15 144.065429688 -14.9150390625 88 8.892578125 c 0
 22.7470703125 36.6015625 2 60.4169921875 2 120 c 0
 2 148 15.1396484375 174.831054688 38 191 c 0
 79 220 115 212 133 260 c 0
 153.749023438 315.331054688 171.051757812 390.921875 197 591 c 2
EndSplineSet
EndChar

StartChar: I
Encoding: 73 73 9
Width: 913
VWidth: 1920
Flags: HMW
AnchorPoint: "ogonek" 586 0 basechar 0
AnchorPoint: "top" 555 1400 basechar 0
AnchorPoint: "bottom" 436 0 basechar 0
LayerCount: 2
Fore
SplineSet
254 646 m 6
 279 872 l 6
 303.918945312 1095.18847656 303.94140625 1173.62402344 268.155273438 1206 c 4
 244.767578125 1227.15917969 198.381835938 1222.66210938 174.493164062 1236 c 4
 153 1248 146 1269.50585938 146 1299 c 4
 146 1332.8828125 168.986328125 1363.58984375 209 1389.63867188 c 4
 268.806640625 1428.57324219 378.405273438 1448 558 1448 c 4
 657.8125 1448 834.331054688 1443 923 1404.55957031 c 4
 956.424804688 1390.06933594 979 1358.33105469 979 1326 c 4
 979 1280.76074219 968.084960938 1257.43066406 939.497070312 1236 c 4
 905.82421875 1210.75683594 860.860351562 1229.15820312 831.112304688 1188 c 4
 797.969726562 1142.14648438 786.874023438 1039.77734375 770 911 c 6
 730 601 l 6
 717.481445312 505.4609375 712 362.396484375 712 313 c 4
 712 286.666015625 713.194335938 255.849609375 728.213867188 238 c 4
 751.114257812 210.784179688 792.231445312 209.465820312 816.53515625 192 c 4
 839.98046875 175.151367188 859 158.001953125 859 113 c 4
 859 61.7841796875 810.73828125 17.1455078125 742 -2.455078125 c 4
 652.900390625 -27.861328125 529.395507812 -28 432 -28 c 4
 245.249023438 -28 142.206054688 -18.955078125 84 4.34765625 c 4
 27.197265625 27.0888671875 13 63.5498046875 13 107 c 4
 13 140.528320312 30.455078125 171.750976562 57.775390625 191 c 4
 89 213 123 207 147 227.43359375 c 4
 169.380859375 246.48828125 185.927734375 300.532226562 198 340 c 4
 219.97265625 411.833007812 237.822265625 501.103515625 254 646 c 6
EndSplineSet
EndChar

StartChar: J
Encoding: 74 74 10
Width: 923
VWidth: 1920
Flags: HMW
AnchorPoint: "top" 524 1400 basechar 0
LayerCount: 2
Fore
SplineSet
254 101 m 2
 355 921 l 2
 376 1091 365 1162 334 1193 c 0
 315 1212 280 1218 262 1233 c 0
 246 1247 239 1258 239 1288 c 0
 239 1337.234375 269 1373 316 1395 c 0
 379 1425 484 1445 637 1445 c 0
 761 1445 877 1433 945 1402 c 0
 1000 1377 1016 1349.38183594 1016 1312 c 0
 1016 1270 998 1248 977 1235 c 0
 948 1216 907 1207 879 1169 c 0
 847 1125 833 1025 811 844 c 2
 735 224 l 2
 674 -269 450 -459 113 -459 c 0
 -201 -459 -303 -353 -303 -209 c 0
 -303 -91.1650390625 -219 17 -71 17 c 0
 212 17 98 -232 165 -232 c 0
 177 -232 196 -221 206 -193 c 0
 222 -150 236 -46 254 101 c 2
EndSplineSet
EndChar

StartChar: K
Encoding: 75 75 11
Width: 1585
VWidth: 1920
Flags: HMW
AnchorPoint: "top" 982 1400 basechar 0
AnchorPoint: "bottom" 942 0 basechar 0
LayerCount: 2
Fore
SplineSet
225 591 m 2
 257 906 l 2
 272.259765625 1053.82910156 281 1136 253.142578125 1171 c 0
 227.483398438 1203.23828125 185 1207 165.047851562 1223 c 0
 151.696289062 1233.70703125 144 1248.79199219 144 1274 c 0
 144 1338 183 1373 238 1395 c 0
 299.483398438 1419.59277344 367 1440 538 1440 c 0
 628.611328125 1440 713.453125 1438.96582031 774 1419.65625 c 0
 830.68359375 1401.57910156 865 1355.9296875 865 1316 c 0
 865 1273.54589844 849.509765625 1257.91601562 824.546875 1239 c 0
 801.55859375 1221.58007812 776.345703125 1210.71679688 757.416015625 1193 c 0
 737.430664062 1174.29589844 725.564453125 1151.16992188 717.721679688 1103 c 0
 713.940429688 1079.77832031 710.864257812 1052.50585938 708 1021 c 0
 699 922 700 887 719 887 c 0
 737 887 760.377929688 901.612304688 790 930 c 2
 934 1068 l 2
 965.015625 1099.87695312 1027 1187 1027 1204 c 0
 1027 1212.05859375 1021.1484375 1218.140625 1013.53125 1226 c 0
 1006.08105469 1233.68652344 996.942382812 1244.20410156 989.938476562 1254 c 0
 983.59375 1262.87402344 979 1280.43847656 979 1298 c 0
 979 1410 1138 1439 1318 1439 c 0
 1525 1439 1590 1401 1590 1299 c 0
 1590 1255.32128906 1568.22363281 1226.25097656 1538 1210.93554688 c 0
 1506.1796875 1194.81152344 1471.99511719 1196.50097656 1437 1191.67285156 c 0
 1414.79101562 1188.60839844 1389.22363281 1168.28710938 1376 1157 c 2
 1096 913 l 2
 1088.18847656 906.33203125 1079 896 1079 879 c 0
 1079 866 1092.23339844 845.681640625 1104 824 c 2
 1374 322 l 2
 1388.33398438 295.586914062 1403.00488281 274.225585938 1417.34472656 257 c 0
 1429.74511719 242.104492188 1441.8984375 230.301757812 1453.37207031 221 c 0
 1479.79296875 199.580078125 1503.56152344 189.51953125 1522 178.39453125 c 0
 1546.02539062 163.8984375 1561 147.595703125 1561 102 c 0
 1561 7 1475 -25 1341 -25 c 2
 1127 -25 l 2
 1094 -25 1058.71679688 -17.3271484375 1032 0 c 0
 995.141601562 23.904296875 977.893554688 53.1083984375 944 122 c 2
 757 506 l 2
 737.350585938 545.940429688 700.21875 570.704101562 680 556 c 0
 669 548 661.271484375 508.326171875 660 474 c 2
 657 390 l 2
 654.038085938 310.021484375 650.9609375 252.1015625 666.333007812 231 c 0
 679.963867188 212.2890625 708.54296875 205.0078125 728 192.73046875 c 0
 747.724609375 180.284179688 762 163.116210938 762 133 c 0
 762 10 559 -28 334 -28 c 0
 248 -28 171 -23 114 -4 c 0
 63.3720703125 12.8759765625 35 53 35 96 c 0
 35 129.551757812 41.7626953125 147.081054688 54.595703125 163 c 0
 80.1923828125 194.751953125 106.548828125 187.788085938 137.364257812 236 c 0
 179.069335938 301.250976562 208.446289062 430.638671875 225 591 c 2
EndSplineSet
EndChar

StartChar: L
Encoding: 76 76 12
Width: 1374
VWidth: 1920
Flags: HMW
AnchorPoint: "top" 683 1390 basechar 0
AnchorPoint: "bottom" 672 0 basechar 0
LayerCount: 2
Fore
SplineSet
382 -11 m 0
 296 -11 232 -24 147 -24 c 0
 64 -24 13 34 13 91 c 0
 13 127.982421875 24.3486328125 158.272460938 50.015625 179 c 0
 77.3671875 201.088867188 115.067382812 204.119140625 146 227.526367188 c 0
 172.74609375 247.764648438 194.43359375 300.536132812 200 324 c 0
 215.396484375 388.907226562 221.954101562 414.87109375 240 574 c 2
 273 879 l 2
 289.041015625 1020.44921875 291 1059 291 1121 c 0
 291 1165.93847656 273.72265625 1183.05859375 252 1195.11230469 c 0
 227.76171875 1208.5625 197.745117188 1211.47851562 175 1220.57714844 c 0
 157.575195312 1227.546875 144 1243.58886719 144 1264 c 0
 144 1319 161.993164062 1383.03710938 219 1398 c 0
 270.217773438 1411.44335938 489 1437 610 1437 c 0
 745.170898438 1437 829.368164062 1428.08398438 881 1410.56738281 c 0
 942.913085938 1389.5625 958 1356.19238281 958 1311 c 0
 958 1247.00195312 926.3984375 1220.99609375 890 1207.33007812 c 0
 848.65625 1191.80761719 815.564453125 1203.72558594 788.315429688 1162 c 0
 752.75390625 1107.54492188 739.005859375 998.583984375 725 792 c 2
 709 542 l 2
 699.064453125 395.453125 697.233398438 297.786132812 719 268 c 0
 738 242 768 230 867 230 c 0
 952 230 996.596679688 246.93359375 1041 280 c 0
 1093.71777344 319.2578125 1112.84179688 378.2421875 1140 422.947265625 c 0
 1163.85058594 462.208007812 1194.35449219 490 1253 490 c 0
 1318 490 1385 440 1385 352 c 0
 1385 290.90625 1371.11523438 186.634765625 1325.86425781 102 c 0
 1287.53320312 30.3076171875 1228.703125 -38 1168 -38 c 0
 1104 -38 1103 -12 1055 -12 c 0
 938 -12 874 -18 789 -18 c 0
 702 -18 466 -11 382 -11 c 0
EndSplineSet
EndChar

StartChar: M
Encoding: 77 77 13
Width: 1909
VWidth: 1920
Flags: HMW
AnchorPoint: "top" 1030 1400 basechar 0
AnchorPoint: "bottom" 731 0 basechar 0
LayerCount: 2
Fore
SplineSet
285 640 m 2
 325 864 l 2
 333.909587695 913.893691092 341 988 341 1057 c 0
 341 1120 321 1145 295 1159 c 0
 262 1177 218 1178 195 1196 c 0
 181 1207 170 1227 170 1258 c 0
 170 1320 223 1381 327 1411 c 0
 399 1431 501 1441 605 1441 c 0
 656 1441 694 1434 716 1426 c 0
 807 1395 816 1335 852 1242 c 2
 946 981 l 2
 972 913 981 839 1020 839 c 0
 1058 839 1103 912 1138 975 c 0
 1213 1111 1250 1183 1321 1300 c 0
 1352 1351 1380 1384 1421 1405 c 0
 1451 1420 1484 1436 1556 1436 c 0
 1642 1436 1734 1436 1840 1419 c 0
 1892.66601562 1410.55371094 1933 1351.01953125 1933 1296 c 0
 1933 1239.57910156 1905.70410156 1207.25390625 1880 1193.75976562 c 0
 1852.34667969 1179.2421875 1815.28125 1176.453125 1790.83984375 1152 c 0
 1757.5234375 1118.66699219 1741.14453125 1015.94335938 1737 912 c 2
 1720 484 l 2
 1718.5078125 447.408203125 1716 402 1716 368 c 0
 1716 339.4921875 1716 247.212890625 1741.79785156 225 c 0
 1754.50292969 214.060546875 1768.17285156 208.639648438 1783 204.580078125 c 0
 1802.48046875 199.24609375 1821.87695312 190.529296875 1838.13085938 171 c 0
 1849.54492188 157.286132812 1857 134.516601562 1857 113 c 0
 1857 54.9716796875 1813.9375 19.6259765625 1745 -1.873046875 c 0
 1647.31835938 -32.3369140625 1497.68457031 -35 1345 -35 c 0
 1244.33007812 -35 1183.00195312 -21.4912109375 1144 -6.4111328125 c 0
 1097.38964844 11.609375 1083 45.06640625 1083 82 c 0
 1083 125.822265625 1098 149 1118 163 c 0
 1133 174 1144 177 1172 185 c 0
 1212 196 1237.38867188 209.581054688 1250 343 c 2
 1269 555 l 2
 1280 648 1267 674 1240 674 c 0
 1215 674 1183.29101562 606.639648438 1156 562 c 2
 1018 333 l 2
 959.0546875 236.58203125 890 138 834 138 c 0
 778 138 737.967773438 230.703125 721 285 c 0
 696 365 662 469 628 567 c 0
 615.120117188 604.123046875 596 656 576 656 c 0
 549 656 535.581054688 633.48828125 522 554 c 2
 488 355 l 2
 481.0390625 314.259765625 480 284 480 256 c 0
 480 216.755859375 495.771484375 196.838867188 528 173.04296875 c 0
 551.858398438 155.426757812 564.697265625 154.37890625 578.483398438 141 c 0
 588.434570312 131.34375 593 116.875976562 593 102 c 0
 593 -31.423828125 398.111328125 -35 302 -35 c 0
 180.553710938 -35 101.604492188 -30.0859375 55 -5.7294921875 c 0
 16.4130859375 14.4365234375 0 48.9306640625 0 94 c 0
 0 132.247070312 37.03515625 166.737304688 59 178.709960938 c 0
 80.9384765625 190.66796875 110.446289062 190.888671875 135.213867188 213 c 0
 178.69140625 251.814453125 213.112304688 346.624023438 231 418 c 0
 247.095703125 482.225585938 273.485072717 575.516407216 285 640 c 2
EndSplineSet
AlternateSubs2: "'swsh' Swash in Latin lookup 1-1" M.swsh
EndChar

StartChar: N
Encoding: 78 78 14
Width: 1713
VWidth: 1920
Flags: HMW
AnchorPoint: "top" 952 1400 basechar 0
AnchorPoint: "bottom" 823 0 basechar 0
LayerCount: 2
Fore
SplineSet
262 551 m 5
 287 688 l 6
 313.256835938 831.887695312 316 1011 316 1077 c 4
 316 1132.31835938 306.854492188 1158.40234375 286 1173 c 4
 256 1194 206.4453125 1185.41113281 177 1206 c 4
 156.708984375 1220.1875 144 1245.75097656 144 1278 c 4
 144 1322 180.484375 1370.93359375 221 1390 c 4
 323 1438 590.547851562 1448.47753906 664 1439 c 4
 726 1431 796.178710938 1382.02929688 876 1265 c 6
 1127 897 l 6
 1146.34863281 868.6328125 1224 745 1255 745 c 4
 1288 745 1292.70703125 782.133789062 1298 888 c 6
 1300 924 l 6
 1304.48632812 1013.72558594 1302.00097656 1136.73144531 1288 1161 c 4
 1258 1213 1209 1181 1167 1214 c 4
 1154.19921875 1224.05761719 1138 1248.74316406 1138 1280 c 4
 1138 1378 1219 1442 1475 1442 c 4
 1698 1442 1806 1426 1806 1314 c 4
 1806 1264.64160156 1788.22265625 1239.83203125 1750.99121094 1218 c 4
 1722 1201 1671.57519531 1202.02929688 1648.13085938 1176 c 4
 1604.55175781 1127.61523438 1599.47265625 1014.78417969 1575 819 c 6
 1528 439 l 6
 1508.84863281 284.158203125 1494.1875 181.254882812 1462.37890625 110 c 4
 1415.31640625 4.57421875 1343.79785156 -28 1271 -28 c 4
 1195 -28 1123.81445312 16.900390625 1086 73 c 6
 691 659 l 6
 662.744140625 700.918945312 632 749 600 749 c 4
 576 749 551.0390625 706.619140625 536 471 c 6
 533 424 l 6
 528.147460938 347.981445312 521.778320312 272.515625 541.639648438 239 c 4
 566.991210938 196.21875 597.173828125 195.58984375 624.799804688 179 c 4
 648.688476562 164.654296875 669 140.140625 669 104 c 4
 669 -4 515 -25 349 -25 c 4
 186 -25 25 -23 25 102 c 4
 25 125.818359375 37.6181640625 158.955078125 60.068359375 176 c 4
 88.3779296875 197.494140625 128.416015625 186.4140625 166.263671875 219 c 4
 200.09375 248.126953125 244.555664062 411.444335938 262 551 c 5
EndSplineSet
AlternateSubs2: "'swsh' Swash in Latin lookup 1-1" N.swsh
EndChar

StartChar: O
Encoding: 79 79 15
Width: 1590
VWidth: 1920
Flags: HMW
AnchorPoint: "bottom" 760 0 basechar 0
AnchorPoint: "top" 968 1400 basechar 0
LayerCount: 2
Fore
SplineSet
92 531 m 256
 92 992 461 1450 976 1450 c 256
 1343 1450 1592 1214 1592 878 c 256
 1592 255 1157 -55 730 -55 c 256
 327 -55 92 166 92 531 c 256
774 224 m 256
 938 224 1044 551 1044 911 c 256
 1044 1079 1022 1170 931 1170 c 256
 805 1170 658 900 658 481 c 256
 658 278 691 224 774 224 c 256
EndSplineSet
EndChar

StartChar: P
Encoding: 80 80 16
Width: 1398
VWidth: 1920
Flags: HMW
AnchorPoint: "top" 703 1400 basechar 0
AnchorPoint: "bottom" 424 0 basechar 0
LayerCount: 2
Fore
SplineSet
774 747 m 0
 807.065429688 747 843.754882812 762.875976562 875.192382812 801 c 0
 918.604492188 853.646484375 952 948.720703125 952 1103 c 0
 952 1173 927 1230 827 1230 c 0
 791 1230 776 1213 772 1202 c 0
 766.271484375 1186.24609375 760.62109375 1160.54492188 747 1033 c 2
 736 930 l 2
 729.15234375 865.876953125 722 802 722 784 c 0
 722 764 731 747 774 747 c 0
689 458 m 2
 683 374 l 6
 678.426395939 309.969543147 687 224 713 197 c 0
 735 174 775 181 802 161 c 0
 824 145 832 125 832 94 c 0
 832 30 780 4 715 -14 c 0
 654 -31 516 -35 425 -35 c 0
 308 -35 204 -32 132 -12 c 0
 68 5 30 35 30 86 c 0
 30 129 40 148 61 166 c 0
 89 189 112 181 144 205 c 0
 175 228 220.582120582 370.738045738 241 572 c 2
 269 848 l 2
 297 1099 291 1180 257 1209 c 0
 234 1229 204 1218 183 1233 c 0
 169 1243 149 1261 149 1303 c 0
 149 1417 273 1442 370 1442 c 0
 438 1442 537 1424 649 1424 c 0
 781 1424 865 1441 1094 1441 c 0
 1241 1441 1457 1336 1457 1066 c 0
 1457 881 1375 757 1259 660 c 0
 1162 579 982 518 827 518 c 0
 756 518 730 517 715 509 c 0
 705 504 692 496 689 458 c 2
EndSplineSet
AlternateSubs2: "'swsh' Swash in Latin lookup 1-1" P.swsh
EndChar

StartChar: Q
Encoding: 81 81 17
Width: 1681
VWidth: 1920
Flags: HMW
AnchorPoint: "top" 890 1400 basechar 0
LayerCount: 2
Fore
SplineSet
1184 26 m 0
 1235 3 1270 -8 1321 -8 c 0
 1367.7109375 -8 1399 10 1420 21.1943359375 c 4
 1428.79589844 25.8837890625 1438.43945312 29.0341796875 1449 31.5595703125 c 0
 1457.96386719 33.703125 1467.78320312 35 1479 35 c 0
 1522 35 1582 -18 1582 -68 c 0
 1582 -187 1411 -395 1143 -395 c 0
 715 -395 599 -41 343 -41 c 0
 263 -41 257 -84 175 -84 c 0
 123 -84 84 -36 84 11 c 0
 84 81 112 126 152 156 c 0
 174.528320312 172.896484375 172.591796875 193.543945312 159 216 c 0
 113 292 80 383 80 512 c 0
 80 964 422 1448 998 1448 c 0
 1347 1448 1598 1241 1598 873 c 0
 1598 540 1470 232 1181.078125 84.2958984375 c 0
 1150.84179688 68.837890625 1142 68 1142 60 c 0
 1142 53 1146.75878906 42.794921875 1184 26 c 0
768 212 m 256
 962 212 1028 571 1028 931 c 256
 1028 1099 1006 1190 915 1190 c 256
 789 1190 652 888 652 469 c 256
 652 266 685 212 768 212 c 256
EndSplineSet
EndChar

StartChar: R
Encoding: 82 82 18
Width: 1607
VWidth: 1920
Flags: HMW
AnchorPoint: "top" 773 1400 basechar 0
AnchorPoint: "bottom" 894 0 basechar 0
LayerCount: 2
Fore
SplineSet
700 556 m 2
 689 452 l 2
 678.09375 348.884765625 681.65625 255.068359375 699.8046875 220 c 0
 720.76953125 179.490234375 741.620117188 182.676757812 768.44921875 161 c 0
 786.141601562 146.705078125 798 126.377929688 798 103 c 0
 798 68.1240234375 780.823242188 35.14453125 735 9.96484375 c 0
 683.1953125 -18.501953125 593.943359375 -37 436 -37 c 0
 283.174804688 -37 185.244140625 -26.5888671875 126 -6.1328125 c 0
 69.251953125 13.4609375 32 40.107421875 32 95 c 0
 32 130.892578125 42.271484375 149.958007812 61.7060546875 163 c 0
 93 184 123 168 157.388671875 225 c 0
 191.724609375 281.912109375 215.750976562 413.515625 241 611 c 2
 269 842 l 2
 289.864257812 1005.19042969 297.147460938 1138.24609375 263.1328125 1183 c 0
 238.677734375 1215.17675781 203 1206 172.016601562 1228 c 0
 156.272460938 1239.1796875 144 1260.05761719 144 1292 c 0
 144 1357 206 1418 333 1418 c 0
 431 1418 479 1415 581 1415 c 0
 733 1415 945 1425 1094 1425 c 0
 1321 1425 1467 1278 1467 1128 c 0
 1467 981 1392 842 1281 780 c 0
 1263.78125 770.381835938 1244 761 1244 743 c 0
 1244 726 1266.43164062 707.522460938 1283 702 c 0
 1334 685 1370.54785156 641.176757812 1391 577 c 0
 1439.50683594 424.788085938 1427.32324219 243.032226562 1461 200 c 0
 1479 177 1500 182 1523 168 c 0
 1546.87597656 153.466796875 1565 132 1565 101 c 0
 1565 45 1493 -43 1303 -43 c 0
 1163 -43 1083.89941406 -17.1103515625 1022 39 c 0
 883 165 953.81640625 393.413085938 883 531 c 0
 848 599 803 601 771 601 c 0
 750 601 735.592773438 599.979492188 725 595 c 0
 715.602539062 590.583007812 702.625 580.81640625 700 556 c 2
806 815 m 0
 931 815 947 1024 947 1114 c 0
 947 1174 898 1220 846 1220 c 4
 821 1220 782 1215 773 1189 c 0
 765.135742188 1166.28125 746.967773438 1099.60253906 741 1025 c 2
 735 938 l 2
 732.450195312 906.124023438 733 871 735 846 c 0
 738 818 758 815 806 815 c 0
EndSplineSet
AlternateSubs2: "'swsh' Swash in Latin lookup 1-1" R.swsh
EndChar

StartChar: S
Encoding: 83 83 19
Width: 1303
VWidth: 1920
Flags: HMW
AnchorPoint: "top" 810 1400 basechar 0
AnchorPoint: "bottom" 640 0 basechar 0
LayerCount: 2
Fore
SplineSet
298 535.33203125 m 0
 311.10546875 519.936523438 321.317382812 500.952148438 330.23046875 480 c 0
 340.782226562 455.194335938 349.512695312 427.631835938 359.06640625 400 c 0
 389.90234375 310.815429688 429.291015625 221 566 221 c 256
 654 221 702 261 702 312 c 256
 702 368 685 416 496 538 c 0
 328.788085938 645.935546875 225 788 225 973 c 256
 225 1243 458 1439 796 1439 c 256
 910 1439 949 1421 987 1421 c 0
 1004 1421 1041 1443 1096 1443 c 0
 1151 1443 1302 1356 1302 1159 c 0
 1302 1108.31640625 1288.89648438 1058.62109375 1259.63867188 1024 c 0
 1235.41210938 995.33203125 1200.109375 977 1152 977 c 0
 1118.45019531 977 1091.9375 983.294921875 1070 993.627929688 c 0
 1027.43652344 1013.67675781 1002.09570312 1048.92773438 976 1082.90332031 c 0
 940.493164062 1129.13183594 903.588867188 1173 820 1173 c 256
 749 1173 727 1136 727 1096 c 256
 727 1015 885.974609375 951.44140625 1023 865 c 0
 1237 730 1276 627 1276 468 c 256
 1276 337.293945312 1206.91601562 165.565429688 1025 60.3515625 c 0
 925.294921875 2.685546875 791.6953125 -35 617 -35 c 256
 440 -35 265.997070312 -4.9970703125 175 86 c 0
 113 148 47 259 47 375 c 0
 47 506 124 575 208 575 c 0
 249.39453125 575 277.303710938 559.645507812 298 535.33203125 c 0
EndSplineSet
EndChar

StartChar: T
Encoding: 84 84 20
Width: 1391
VWidth: 1920
Flags: HMW
AnchorPoint: "top" 802 1400 basechar 0
AnchorPoint: "bottom" 662 0 basechar 0
LayerCount: 2
Fore
SplineSet
486 611 m 6
 523 921 l 6
 543.9765625 1096.74804688 541 1137 527 1148 c 4
 518.248046875 1154.87597656 500.973632812 1157.4296875 484 1155.13085938 c 4
 470.29296875 1153.27539062 435.614257812 1146.86816406 401.353515625 1087 c 4
 355 1006 349.1640625 961.982421875 293 927.216796875 c 4
 274.4296875 915.721679688 252.197265625 909 225 909 c 4
 137 909 89 983 89 1058 c 4
 89 1228 245 1435 338 1435 c 4
 395 1435 415 1420 528 1420 c 6
 1100 1420 l 6
 1213 1420 1232 1438 1289 1438 c 4
 1390 1438 1484 1257 1484 1117 c 4
 1484 1055.38867188 1461.91210938 1000.56933594 1428.56152344 963 c 4
 1399.77734375 930.575195312 1362.60351562 911 1324 911 c 4
 1286.72460938 911 1260.53417969 917.990234375 1239 934.013671875 c 4
 1220.63183594 947.680664062 1205.65234375 967.919921875 1190.07128906 996 c 4
 1141.53515625 1083.47265625 1160.05957031 1129.74707031 1121 1150 c 4
 1097.31152344 1162.28320312 1070.38769531 1165.04101562 1053 1152 c 4
 1029 1134 1016.25878906 1022.83496094 1005 914 c 6
 975 624 l 6
 958.559570312 465.080078125 954.463867188 392.55859375 957 330 c 4
 958.68359375 288.470703125 964.86328125 258.53125 982.954101562 238 c 4
 1002.64746094 215.651367188 1048.10839844 210.646484375 1075 194.314453125 c 4
 1103.55761719 176.970703125 1115 158.190429688 1115 124 c 4
 1115 81.43359375 1093.1328125 8.1044921875 951 -18.91796875 c 4
 869.296875 -34.451171875 766.282226562 -35 664 -35 c 4
 544.755859375 -35 445.608398438 -32.3681640625 372 -13.490234375 c 4
 320.873046875 -0.37890625 237 33.412109375 237 114 c 4
 237 159.838867188 250.416015625 182.734375 275.588867188 199 c 4
 301.893554688 215.997070312 343.380859375 210.366210938 377 227.89453125 c 4
 405.590820312 242.80078125 425.748046875 269.40234375 441 332 c 4
 455.375976562 391.002929688 470.30859375 479.53125 486 611 c 6
EndSplineSet
AlternateSubs2: "'swsh' Swash in Latin lookup 1-1" T.swsh
EndChar

StartChar: U
Encoding: 85 85 21
Width: 1587
VWidth: 1920
Flags: HMW
AnchorPoint: "ogonek" 1094 0 basechar 0
AnchorPoint: "top" 1018 1400 basechar 0
AnchorPoint: "bottom" 869 0 basechar 0
LayerCount: 2
Fore
SplineSet
1525 889 m 2
 1494 624 l 18
 1474.90625 460.778320312 1439.09472656 276.39453125 1322.3515625 141 c 0
 1222.35546875 25.0283203125 1060.5859375 -55 826 -55 c 0
 634 -55 419 -26 321 70 c 0
 236.569335938 152.70703125 185.580078125 291.1640625 206 468 c 2
 256 911 l 2
 277.481445312 1097.03027344 282.4921875 1140.41992188 233 1168.39453125 c 0
 213.666992188 1179.32226562 191.560546875 1183.015625 174.0078125 1196 c 0
 160.85546875 1205.72949219 144 1221.8203125 144 1268 c 0
 144 1364 234.927734375 1396.33984375 281 1406 c 0
 343 1419 480 1435 571 1435 c 0
 697 1435 764.991210938 1429.94433594 811 1419 c 0
 863.145507812 1406.59570312 930 1373 930 1282 c 0
 930 1252.921875 920.639648438 1228.15625 894.192382812 1207 c 0
 875.784179688 1192.27441406 849.444335938 1192.00488281 824 1172.26171875 c 0
 774.239257812 1133.65039062 757.045898438 972.033203125 748 887 c 2
 713 548 l 2
 703.69140625 460.500976562 700.546875 388.077148438 724.407226562 346 c 0
 754.11328125 293.615234375 801.745117188 270 884 270 c 0
 976.779296875 270 1042.78710938 294.791992188 1089.77929688 339 c 0
 1156.26464844 401.545898438 1184.68457031 502.956054688 1197 628 c 2
 1223 892 l 2
 1241.62304688 1081.09082031 1237.89257812 1147.50097656 1186 1173.64355469 c 0
 1160.72070312 1186.37792969 1128.34277344 1188.73828125 1108.86132812 1203 c 0
 1089.77636719 1216.97070312 1071 1237 1071 1288 c 0
 1071 1383 1173 1435 1409 1435 c 0
 1572 1435 1679 1420 1679 1305 c 0
 1679 1250.86230469 1669.70019531 1226.43457031 1653.51367188 1207 c 0
 1638.1171875 1188.51367188 1611.57519531 1180.40820312 1590 1154.72070312 c 0
 1559.38378906 1118.26953125 1543.484375 1047.01367188 1525 889 c 2
EndSplineSet
EndChar

StartChar: V
Encoding: 86 86 22
Width: 1509
VWidth: 1920
Flags: HMW
AnchorPoint: "top" 911 1400 basechar 0
AnchorPoint: "bottom" 712 0 basechar 0
LayerCount: 2
Fore
SplineSet
1123 1029 m 0
 1150 1098 1153 1136 1153 1157 c 0
 1153 1176.1796875 1145.12988281 1188.84375 1134.04394531 1199 c 0
 1118.828125 1212.93945312 1097.5546875 1222.15234375 1082.25878906 1237 c 0
 1071.01367188 1247.91601562 1063 1261.87695312 1063 1283 c 0
 1063 1387 1135 1435 1348 1435 c 4
 1539 1435 1638 1407 1638 1311 c 0
 1638 1258 1611.72265625 1238.83300781 1592 1227 c 0
 1567 1212 1527.05957031 1208.90039062 1502 1189 c 0
 1468 1162 1447.83496094 1124.80078125 1386 996 c 2
 1157 519 l 2
 1075.31347656 348.849609375 959 155 912 83 c 0
 861 5 810 -39 725 -39 c 0
 616 -39 590.057617188 -3.34765625 527 169 c 0
 409.315429688 490.653320312 372.852539062 658.372070312 302 946 c 0
 263.365234375 1102.83984375 245.662109375 1149.08105469 201 1166.98730469 c 0
 178.877929688 1175.85644531 152.159179688 1180.27832031 133.577148438 1197 c 0
 115.732421875 1213.05761719 105 1230.95019531 105 1263 c 0
 105 1322.81054688 137.572265625 1361.6796875 195 1386.3046875 c 0
 264.313476562 1416.02734375 369.836914062 1425 498 1425 c 0
 745 1425 885 1417 885 1299 c 0
 885 1264.97949219 866.600585938 1237.55957031 843.919921875 1223 c 0
 824.020507812 1210.22558594 799.825195312 1204.65234375 783.870117188 1192 c 0
 767.93359375 1179.36230469 760 1157.77246094 760 1128 c 0
 760 1096 771.434570312 1047.54492188 778 1018 c 0
 800 919 812 878 844 751 c 0
 855.915039062 703.712890625 881 612 903 612 c 0
 930 612 978.349609375 689.393554688 1002 743 c 0
 1047 845 1067.08496094 886.106445312 1123 1029 c 0
EndSplineSet
EndChar

StartChar: W
Encoding: 87 87 23
Width: 2304
VWidth: 1920
Flags: HMW
AnchorPoint: "top" 1384 1400 basechar 0
AnchorPoint: "bottom" 1208 0 basechar 0
LayerCount: 2
Fore
SplineSet
1899 1010 m 0
 1928.68945312 1088.38085938 1943 1126 1943 1167 c 0
 1943 1188.69140625 1934.69140625 1198.61035156 1923.33105469 1209 c 0
 1910.4375 1220.79199219 1893.86230469 1227.48339844 1880 1241.63085938 c 0
 1867.09960938 1254.79589844 1860 1275.71289062 1860 1301 c 0
 1860 1401 1943 1435 2146 1435 c 0
 2377 1435 2436 1416 2436 1328 c 0
 2436 1273.12695312 2406.29980469 1240.81152344 2385 1230.44238281 c 0
 2362.24414062 1219.36425781 2330.49609375 1219.41113281 2312 1208.16503906 c 0
 2268.49707031 1181.71484375 2231.37695312 1121.05175781 2171 1001 c 0
 1968.81347656 598.978515625 1825.99902344 286 1700 95 c 0
 1648.75585938 17.3203125 1599 -30 1515 -30 c 0
 1436 -30 1400.26855469 2.05859375 1351 145 c 0
 1297.62890625 299.84375 1271 398 1231 543 c 0
 1218.92773438 586.763671875 1204 625 1176 625 c 0
 1158 625 1141.58496094 599.775390625 1118 557 c 0
 1016 372 960.287109375 252.849609375 868 115 c 0
 816.490234375 38.0595703125 781 -36 676 -36 c 0
 579 -36 543.8359375 22.9736328125 506 164 c 0
 418 492 375.360351562 659.077148438 292 978 c 0
 255.698242188 1116.88476562 234.88671875 1156.8125 190 1171.12304688 c 0
 176.0859375 1175.55957031 149.254882812 1177.42578125 128 1195.84179688 c 0
 114.046875 1207.93066406 105 1223.44238281 105 1253 c 0
 105 1321 150 1366 206 1390 c 0
 258.616210938 1412.54980469 371 1425 504 1425 c 0
 659.561523438 1425 764.044921875 1425 814 1384.13476562 c 0
 836.560546875 1365.6796875 848 1338.88964844 848 1300 c 0
 848 1279.71386719 845.920898438 1258.96777344 837.073242188 1242 c 0
 824.099609375 1217.11914062 806.608398438 1204.56933594 787 1193.4375 c 0
 767.989257812 1182.64453125 752 1171.16601562 752 1143 c 0
 752 1081 753.662109375 1031.90429688 772 968 c 0
 805 853 816 818 830 766 c 0
 842.548828125 719.389648438 861 657 883 657 c 0
 901 657 935.49609375 697.692382812 964 749 c 0
 1019 848 1043 891 1070 950 c 0
 1083.22460938 978.8984375 1095 1004 1095 1019 c 0
 1095 1055 1082.90917969 1079.52832031 1065 1118 c 0
 1053.19433594 1143.36035156 1041.25585938 1171.54394531 1020.30273438 1189 c 0
 1009.61621094 1197.90136719 995.362304688 1201.19433594 982 1210.49902344 c 0
 964.546875 1222.65234375 955 1239.58007812 955 1274 c 0
 955 1311.74121094 967.661132812 1366.77441406 1039 1400.42382812 c 0
 1093.4609375 1426.11132812 1182.45019531 1435 1334 1435 c 0
 1450.74707031 1435 1540.60058594 1431.29980469 1599 1412.63085938 c 0
 1649.98828125 1396.33105469 1677 1368.62109375 1677 1322 c 0
 1677 1297.99121094 1670.97558594 1273.54003906 1658.90722656 1255 c 4
 1646.43554688 1235.83984375 1627.4765625 1224.89160156 1604 1211.88476562 c 4
 1574.16601562 1195.35644531 1557 1183.95117188 1557 1145 c 0
 1557 1113 1566.40527344 1058.43847656 1573 1028 c 0
 1599 908 1606 872 1631 788 c 0
 1644.88085938 741.359375 1673 654 1705 654 c 0
 1732 654 1770.71386719 738.571289062 1799 790 c 0
 1843 870 1874 944 1899 1010 c 0
EndSplineSet
EndChar

StartChar: X
Encoding: 88 88 24
Width: 1480
VWidth: 1920
Flags: HMW
LayerCount: 2
Fore
SplineSet
911 1087 m 2
 959 1145 l 2
 975 1165 996 1205 996 1226 c 0
 996 1245 993.400390625 1256.83105469 990 1266 c 0
 987.227539062 1273.47460938 983.172851562 1282.06738281 980 1290 c 0
 976 1300 972 1308 972 1326 c 0
 972 1377 1011 1436 1274 1436 c 0
 1415 1436 1503 1399 1503 1321 c 0
 1503 1277.97558594 1480.32617188 1249.30957031 1452 1236.96484375 c 0
 1422.88574219 1224.27636719 1389.74023438 1227.15136719 1351 1215.15917969 c 0
 1269.78710938 1190.02050781 1143.71679688 1028.43945312 1095 963 c 2
 1023 867 l 2
 1019 862 995 833 995 811 c 0
 995 793 1009 764 1015 753 c 2
 1250 326 l 6
 1285 264 1308 241 1337 226 c 4
 1373 208 1391 215 1418 204 c 4
 1441.2265625 194.537109375 1457 177 1457 133 c 4
 1457 65.94921875 1414.03417969 25.34765625 1345 1.31640625 c 4
 1271.91210938 -24.125 1169.58300781 -31 1058 -31 c 4
 739 -31 684 18 684 91 c 4
 684 126 691 149 704 163 c 4
 719 179 736 185 751 191 c 4
 766 197 778 207 778 220 c 4
 778 232 768 265 758 287 c 6
 718 379 l 6
 704 411 680 451 661 451 c 4
 645 451 622.684570312 423.278320312 604 398 c 6
 536 306 l 6
 517.9609375 281.59375 496 240 496 219 c 4
 496 198.3125 503.38671875 186.376953125 512.841796875 176 c 4
 521.239257812 166.784179688 533.267578125 155.796875 539.202148438 147 c 4
 547.16796875 135.19140625 553 119.536132812 553 95 c 4
 553 5 453 -37 250 -37 c 4
 39 -37 -22 -10 -22 92 c 4
 -22 126.701171875 -8.029296875 148.27734375 14 167.612304688 c 4
 33.21875 184.48046875 79.3125 193.03125 109 207.901367188 c 4
 154.744140625 230.813476562 223.569335938 298.481445312 325 413 c 6
 511 636 l 2
 524.340820312 651.0625 533 673 533 691 c 0
 533 714 522 738 513 753 c 2
 307 1102 l 2
 263.497070312 1175.70117188 259.995117188 1181.63378906 198 1202.83984375 c 0
 173.45703125 1211.234375 159.094726562 1216.48925781 143.336914062 1233 c 0
 130.028320312 1246.9453125 120 1265.1953125 120 1293 c 0
 120 1342 151 1372 205 1394 c 0
 290 1428 438 1438 588 1438 c 0
 820 1438 882 1400 882 1336 c 0
 882 1309.42578125 873.703125 1291.16601562 860.971679688 1278 c 0
 847.860351562 1264.44238281 830.860351562 1253.44238281 819 1244.40722656 c 0
 797.430664062 1227.97753906 791 1215.17382812 791 1200 c 0
 791 1179 796 1163 808 1142 c 2
 839 1085 l 2
 847 1071 862 1050 872 1050 c 0
 883 1050 901 1075 911 1087 c 2
EndSplineSet
EndChar

StartChar: Y
Encoding: 89 89 25
Width: 1462
VWidth: 1920
Flags: HMW
AnchorPoint: "top" 949 1400 basechar 0
LayerCount: 2
Fore
SplineSet
987 1061 m 2
 1045 1143 l 2
 1053.91113281 1155.59960938 1061 1179.95507812 1061 1191 c 0
 1061 1206 1056.0234375 1215.03125 1048 1221 c 0
 1037.30175781 1228.95800781 1026.91796875 1237.31152344 1017.2734375 1250 c 0
 1004.05078125 1267.39648438 1000 1279.16601562 1000 1309 c 0
 1000 1403 1123 1441 1309 1441 c 0
 1480 1441 1584 1405 1584 1326 c 0
 1584 1280.6015625 1559 1256 1533 1240 c 0
 1506.18066406 1223.61035156 1488.79589844 1222.76074219 1461 1214.70996094 c 0
 1407.78515625 1199.29785156 1392.69433594 1187.40722656 1347 1132 c 6
 1060 784 l 2
 1032 753 1025.47558594 725.173828125 1022 688 c 0
 999 442 993 348 993 288 c 0
 993 274.497070312 995.380859375 246.095703125 1009 231.057617188 c 0
 1027.12597656 211.043945312 1062.73828125 220.950195312 1096 207.62109375 c 0
 1125 196 1147 169.098632812 1147 133 c 0
 1147 66 1106.95507812 28.4658203125 1053 8 c 0
 995 -14 892 -33 714 -33 c 0
 612 -33 488 -32 406 -4 c 0
 349 15 298 54 298 99 c 0
 298 117.819335938 298 162.875976562 349 191.995117188 c 0
 384.32421875 212.1640625 424.850585938 210.422851562 449 232 c 0
 468.01171875 248.987304688 482.575195312 273.10546875 489 298 c 0
 505 360 506.12109375 394.985351562 536 639 c 0
 542 688 531.345703125 734.237304688 515 758 c 2
 283 1116 l 2
 272.443359375 1132.29003906 257 1168 231 1183 c 0
 204 1198 160.35546875 1185.14355469 132 1220 c 0
 122.041015625 1232.2421875 117 1246 117 1270 c 0
 117 1336.38964844 166.874023438 1378.35546875 223 1398 c 0
 323 1433 476 1435 581 1435 c 0
 683 1435 749 1431 813 1414 c 0
 876 1397 901 1356 901 1311 c 0
 901 1274.32128906 888.9921875 1259.06054688 877.072265625 1248 c 0
 858.734375 1230.984375 838.083984375 1218.08398438 827 1207 c 0
 820 1200 812 1192 812 1178 c 0
 812 1165.95800781 820.102539062 1146.53515625 832 1123 c 2
 878 1032 l 2
 890.693359375 1006.88867188 900 995 912 995 c 0
 934 995 963.577148438 1027.88476562 987 1061 c 2
EndSplineSet
AlternateSubs2: "'swsh' Swash in Latin lookup 1-1" Y.swsh
EndChar

StartChar: Z
Encoding: 90 90 26
Width: 1313
VWidth: 1920
Flags: HMW
AnchorPoint: "top" 769 1400 basechar 0
LayerCount: 2
Fore
SplineSet
433 -26 m 0
 347.014648438 -27.5634765625 269 -33 185 -33 c 0
 102 -33 26 10 26 81 c 0
 26 134 61.744140625 179.615234375 96 231 c 2
 628 1029 l 2
 660.598632812 1077.8984375 668 1102 668 1112 c 0
 668 1139 647.018554688 1156.70898438 598 1157 c 0
 539.829101562 1157.34570312 494.044921875 1157.74511719 453 1146 c 0
 397.362304688 1130.07910156 383.899414062 1096.15039062 360 1050 c 0
 331 994 307 936 233 936 c 0
 145 936 108 971 108 1059 c 0
 108 1239 227 1437 333 1437 c 0
 387 1437 419 1414 467 1414 c 0
 613 1414 646 1414 821 1418 c 0
 906.977539062 1419.96484375 1095 1419 1179 1419 c 0
 1262 1419 1321 1371 1321 1318 c 0
 1321 1274 1312.16992188 1250.44824219 1297 1226 c 2
 764 367 l 2
 752.034179688 347.715820312 743 322 743 303 c 0
 743 275 771 250 826 250 c 0
 878 250 926.020507812 253.888671875 971 262 c 0
 1032 273 1052.55957031 351.56640625 1074 390 c 0
 1111.96875 458.061523438 1133 467 1178 467 c 0
 1243 467 1293 410 1293 312 c 0
 1293 159 1176 -37 1090 -37 c 0
 1026 -37 905 -22 857 -22 c 0
 771 -22 708 -21 433 -26 c 0
EndSplineSet
EndChar

StartChar: a
Encoding: 97 97 27
Width: 1177
VWidth: 1920
Flags: HMW
AnchorPoint: "top" 718 1000 basechar 0
AnchorPoint: "ogonek" 954 50 basechar 0
LayerCount: 2
Fore
SplineSet
1172 242 m 4
 1172 122 884 -14 756 -14 c 4
 676 -14 646 32 646 77 c 4
 646 94.3427734375 647.102539062 114.294921875 643.6328125 131 c 4
 639.388671875 151.428710938 628.3046875 166 600 166 c 4
 562 166 547.634765625 138.483398438 511 104.026367188 c 4
 455.083984375 51.43359375 368.5625 -15 234 -15 c 4
 90 -15 5 110 5 308 c 4
 5 685 277 1029 579 1029 c 4
 654.708984375 1029 707.405273438 989.490234375 746 967.592773438 c 4
 766.549804688 955.93359375 783.1015625 955 797 955 c 4
 813.922851562 955 834.58203125 961.870117188 849 970.556640625 c 4
 877.645507812 987.815429688 903.4765625 1001.52832031 939 1016 c 4
 968.856445312 1028.16308594 1002 1036 1059 1036 c 4
 1095 1036 1125 1013 1125 966 c 4
 1125 924 1119.9375 886.240234375 1112 832 c 4
 1094 709 1061 511 1061 371 c 4
 1061 339.407226562 1069.4765625 317.608398438 1080.8515625 307 c 4
 1096.86816406 292.063476562 1103.94140625 303.227539062 1138 292.822265625 c 4
 1145.26074219 290.603515625 1153.30859375 286.088867188 1159 279.368164062 c 4
 1163.12402344 274.498046875 1167.140625 268.282226562 1169.56835938 260 c 4
 1171.08300781 254.833007812 1172 248.879882812 1172 242 c 4
685 813 m 4
 554 813 431 519 431 363 c 4
 431 303 467 299 490 299 c 4
 591 299 729 614 729 763 c 4
 729 786 715 813 685 813 c 4
EndSplineSet
EndChar

StartChar: l
Encoding: 108 108 28
Width: 649
VWidth: 1920
Flags: HMW
AnchorPoint: "top" 356 1400 basechar 0
LayerCount: 2
Fore
SplineSet
77 551 m 2
 119 861 l 2
 144.196289062 1046.97363281 162 1174 117 1174 c 0
 92 1174 86 1172 56 1172 c 0
 20 1172 0 1197 0 1223 c 0
 0 1287 49 1322 135 1361 c 0
 215 1397 372 1436 523 1436 c 0
 589 1436 627 1392 627 1335 c 0
 627 1279 602 1201 586 1078 c 2
 521 572 l 2
 508 468 504 426 504 354 c 0
 504 312 518 303 545 303 c 0
 561.572265625 303 574.614257812 303.580078125 586 304.735351562 c 0
 590.829101562 305.225585938 597.26953125 306 602 306 c 0
 626 306 644 280 644 260 c 0
 644 189 618 135 510 72 c 0
 434 28 306 -17 188 -17 c 0
 131 -17 84 -3 60 20 c 0
 28 51 20 97 20 148 c 0
 20 234 40 275 77 551 c 2
EndSplineSet
EndChar

StartChar: v
Encoding: 118 118 29
Width: 1136
VWidth: 1920
Flags: HMW
LayerCount: 2
Fore
SplineSet
464 -25 m 4
 261 -25 63 61 63 273 c 0
 63 354 90 529 111 624 c 0
 120 664 125 697 125 721 c 0
 125 749 109 761 89 768 c 0
 85 769 82 770 78 771 c 0
 69 773 56 776 52 777 c 0
 45.8642578125 778.534179688 40 780 36 781 c 0
 18 787 5 798 5 820 c 0
 5 857 8 877 39 912 c 0
 73 950 185 981 247 999 c 0
 314 1018 392 1026 460 1026 c 0
 543 1026 575 993 575 937 c 0
 575 915 570 856 559 784 c 0
 541 668 506 479 506 364 c 0
 506 280 544 241 629 241 c 4
 772 241 880 424 880 597 c 4
 880 668 856 755 830 795 c 4
 795 849 778 896 778 925 c 4
 778 963 786 993 842 1016 c 4
 881 1032 915 1033 937 1033 c 4
 968 1033 1021.96191406 1024.3671875 1055 995 c 4
 1100 955 1116 904 1116 724 c 4
 1116 314 802 -25 464 -25 c 4
EndSplineSet
EndChar

StartChar: paragraph
Encoding: 182 182 32
Width: 2083
Flags: HMW
LayerCount: 2
Fore
SplineSet
96 698 m 0
 170 1302 754 1500 1178 1500 c 0
 1442 1500 1606 1401 1679 1347 c 0
 1726 1312 1800 1264 1787 1160 c 0
 1773 1050 1637 188 1617 28 c 0
 1604 -78 1668 -107 1720 -107 c 0
 1772 -107 1847 -83 1889 -83 c 0
 1951 -83 1978 -125 1968 -206 c 0
 1945 -397 1674 -436 1332 -436 c 0
 1200 -436 1191 -394 1201 -315 c 0
 1209 -246 1387 768 1400 876 c 0
 1413 984 1415 1064 1374 1120 c 0
 1333 1176 1280 1208 1192 1208 c 0
 1064 1208 947 1096 904 746 c 0
 854 336 935 303 1009 303 c 0
 1067 303 1077 385 1089 480 c 0
 1132 828 1079 903 1088 980 c 0
 1096 1048 1154 1090 1226 1090 c 0
 1298 1090 1325 1036 1316 962 c 0
 1304 868 1244 340 1235 268 c 0
 1225 190 1207 124 1178 98 c 0
 1136 61 1029 -42 747 -42 c 0
 435 -42 29 154 96 698 c 0
EndSplineSet
EndChar

StartChar: b
Encoding: 98 98 33
Width: 1134
VWidth: 1920
Flags: HMW
LayerCount: 2
Fore
SplineSet
84 598 m 2
 116 800 l 2
 129.362304688 884.3515625 131 1002 131 1114 c 0
 131 1131.71972656 130 1153 111 1153 c 0
 82 1153 68 1153 48 1153 c 0
 28 1153 0 1161 0 1191 c 0
 0 1252 19.1494140625 1291.65722656 74 1323 c 0
 172 1379 268 1415 479 1415 c 0
 562 1415 592 1394 592 1347 c 0
 592 1281 555.692382812 1191.26757812 543 1058 c 2
 531 932 l 2
 526.8984375 888.938476562 535 865 556 865 c 0
 579 865 582.978515625 868.404296875 623 900 c 0
 680 945 762 1021 878 1021 c 0
 1060 1021 1129 827 1129 670 c 0
 1129 464.920898438 1005.7578125 214.888671875 847 102.549804688 c 0
 729.954101562 19.7275390625 593.81640625 -29 428 -29 c 0
 274 -29 171.111328125 2.126953125 112 54 c 0
 63 97 35 170 35 223 c 0
 35 278 45.3701171875 354.146484375 84 598 c 2
483 181 m 0
 503.130859375 181 524.641601562 183.786132812 541 195.791015625 c 0
 634.487304688 264.396484375 683 457.856445312 683 597 c 0
 683 692 663 718 621 718 c 0
 583 718 543.494140625 692.130859375 508 608 c 0
 464.30859375 504.438476562 442 366 442 243 c 0
 442 224.98828125 445.056640625 210.456054688 450.919921875 200 c 0
 457.83984375 187.661132812 468.669921875 181 483 181 c 0
EndSplineSet
EndChar

StartChar: o
Encoding: 111 111 34
Width: 1194
VWidth: 1920
Flags: HMW
AnchorPoint: "bottom" 490 0 basechar 0
AnchorPoint: "top" 686 1000 basechar 0
LayerCount: 2
Fore
SplineSet
5 379 m 256
 5 631.107421875 143.00390625 804.86328125 308 908.864257812 c 0
 445.2421875 995.37109375 594.619140625 1035 728 1035 c 256
 970 1035 1189 903 1189 616 c 256
 1189 225 862 -47 502 -47 c 256
 101 -47 5 195 5 379 c 256
563 176 m 256
 680 176 726 546 726 711 c 256
 726 786 701 810 651 810 c 256
 585.864257812 810 547.75390625 734.627929688 522.028320312 631 c 0
 488.989257812 497.909179688 478 350.2734375 478 261 c 256
 478 236.141601562 484.844726562 215.637695312 497.989257812 201 c 0
 512.36328125 184.9921875 534.270507812 176 563 176 c 256
EndSplineSet
EndChar

StartChar: n
Encoding: 110 110 35
Width: 1289
VWidth: 1920
Flags: HMW
AnchorPoint: "bottom" 574 0 basechar 0
AnchorPoint: "top" 721 1000 basechar 0
LayerCount: 2
Fore
SplineSet
1026 1033 m 4
 1081.56738281 1033 1144.89160156 1010.27734375 1184.90136719 969 c 4
 1223.66992188 929.00390625 1243 874.83203125 1243 789 c 4
 1243 603 1173 430 1173 326 c 4
 1173 299.828125 1179.49316406 294.088867188 1193 286.321289062 c 4
 1206.20507812 278.728515625 1223.24316406 276.84375 1239 272.762695312 c 4
 1248.08398438 270.409179688 1256.7421875 267.327148438 1263.99511719 262 c 4
 1267.9609375 259.086914062 1271.50683594 255.502929688 1274.47070312 251 c 4
 1280.39648438 241.998046875 1284 229.32421875 1284 211 c 4
 1284 158 1234 108 1178 68 c 4
 1115.76074219 23.5439453125 967 -30 853 -30 c 4
 763 -30 698 9 698 75 c 4
 698 229 780 491 780 617 c 4
 780 681 759 698 710 698 c 4
 666 698 607 650 576 534 c 4
 552.1328125 444.689453125 537.825195312 315.45703125 513 138 c 4
 507.23046875 96.7578125 483.28515625 55.59375 442 23.0986328125 c 4
 422.331054688 7.6171875 352.422851562 -28 262 -28 c 4
 200.40234375 -28 129.48046875 -28 87 1.1328125 c 4
 63.734375 17.0888671875 49 41.7822265625 49 80 c 4
 49 148 137 483 137 681 c 4
 137 705 130.071289062 717.12109375 120 723 c 4
 104.235351562 732.202148438 67.5224609375 728.712890625 56 729.368164062 c 4
 47.1337890625 729.873046875 41.0068359375 730.569335938 36 732 c 4
 30 734 25 737 21 741 c 4
 12 750 5 763 5 789 c 4
 5 861 78.611328125 917.755859375 163 955 c 4
 253.427734375 994.909179688 383 1037 466 1037 c 4
 507 1037 534 1029 556 998 c 4
 573.6015625 973.197265625 570.713867188 944.450195312 580 889 c 4
 583.7109375 866.840820312 595 856 615 856 c 4
 637 856 648.759765625 867.278320312 665 881 c 4
 799.740234375 994.845703125 906 1031 1026 1033 c 4
EndSplineSet
EndChar

StartChar: d
Encoding: 100 100 36
Width: 1224
VWidth: 1920
Flags: HMW
LayerCount: 2
Fore
SplineSet
511 299 m 4
 600 299 733 534 733 729 c 4
 733 776 718 808 673 808 c 4
 580 808 460 549 460 375 c 4
 460 337 471 299 511 299 c 4
5 289 m 4
 5 653 228 1024 535 1024 c 4
 593 1024 629 1010 669 991 c 4
 684 984 693 975 708 975 c 4
 725 975 760 991 767 1048 c 6
 771 1082 l 6
 773 1101 774 1126 764 1142 c 4
 761 1146 758 1152 744 1153 c 4
 731 1154 708 1153 687 1157 c 4
 656 1163 627 1179 627 1220 c 4
 627 1281 673 1324 741 1350 c 4
 842 1389 990 1421 1101 1421 c 4
 1174 1421 1212 1384 1212 1337 c 4
 1212 1221 1192 1177 1155 894 c 6
 1117 606 l 6
 1101 482 1099 415 1099 368 c 4
 1099 336 1103 316 1114 305 c 4
 1124 296 1141.96875 295 1158 295 c 4
 1162.64355469 295 1166.57714844 295.133789062 1170 295.178710938 c 4
 1174.35644531 295.236328125 1177.88574219 295.1484375 1181 294.455078125 c 4
 1194.14257812 291.528320312 1219 275.443359375 1219 231 c 4
 1219 146 1153 108 1055 58 c 4
 1000 30 882 -31 778 -31 c 4
 698 -31 676 24 676 69 c 4
 676 125 676 160 632 160 c 4
 594 160 578 130 541 96 c 4
 485 43 377 -27 242 -27 c 4
 68 -27 5 121 5 289 c 4
EndSplineSet
EndChar

StartChar: c
Encoding: 99 99 37
Width: 1052
VWidth: 1920
Flags: HMW
AnchorPoint: "top" 653 1000 basechar 0
AnchorPoint: "bottom" 464 0 basechar 0
LayerCount: 2
Fore
SplineSet
700 1024 m 0
 928 1024 1052 902 1052 767 c 0
 1052 611 945 518 827 518 c 0
 687 518 667.186523438 617.603515625 690 688 c 0
 720 780.573242188 712 805 663 805 c 0
 616.409179688 805 572.53515625 760.637695312 539.51171875 674.000976562 c 0
 513.729492188 606.36328125 493 515.348632812 493 395 c 0
 493 277 544 223 619 223 c 0
 703 223 771 269 842 308 c 0
 869.854492188 323.30078125 891 335 915 335 c 0
 964 335 988 262 988 222 c 0
 988 141 759 -25 469 -25 c 0
 225 -25 5 58 5 312 c 0
 5 541.74609375 100.353515625 717.629882812 225.973632812 831 c 0
 385.826171875 975.263671875 569.623046875 1024 700 1024 c 0
EndSplineSet
EndChar

StartChar: e
Encoding: 101 101 38
Width: 1078
VWidth: 1920
Flags: HMW
AnchorPoint: "ogonek" 787 60 basechar 0
AnchorPoint: "bottom" 433 -11 basechar 0
AnchorPoint: "top" 642 1000 basechar 0
LayerCount: 2
Fore
SplineSet
819 1022 m 4
 892.516601562 1022 965.009765625 1000.62792969 1013 953.810546875 c 5
 1051.08691406 916.654296875 1073 862.729492188 1073 796 c 4
 1073 683 1009 584 945 521 c 4
 875 452 722 364 543 364 c 4
 491 364 479 361 479 331 c 4
 479 308 487.594726562 287.63671875 510 263 c 4
 540.911132812 229.009765625 588 228 642 228 c 4
 723.604492188 228 787.68359375 254.701171875 872 304.764648438 c 4
 896.938476562 319.572265625 914.500976562 330 935 330 c 4
 957 330 972.211914062 320.302734375 990 301 c 4
 1007.22265625 282.310546875 1016 261 1016 247 c 4
 1016 188.399414062 950.659265128 125.041827229 843 69.2802734375 c 4
 748.570387441 20.3709490616 623.889648438 -25 451 -25 c 4
 217 -25 5 82 5 316 c 4
 5 509.87890625 79.7890625 663.254882812 179 767.890625 c 4
 353.958007812 952.416015625 567.639648438 1022 819 1022 c 4
489 541.747070312 m 4
 493.142578125 537.111328125 501.353515625 531 513 531 c 4
 570 531 620.536132812 575.552734375 661 652 c 4
 676.55078125 681.379882812 695 727 695 763 c 4
 695 780.288085938 690.870117188 795.423828125 683.788085938 807 c 4
 674.622070312 821.981445312 660.508789062 831 644 831 c 4
 606.157226562 831 563.337890625 808.760742188 525.11328125 745 c 4
 502.288085938 706.92578125 480 642.177734375 480 568 c 4
 480 559.102539062 482.541992188 548.97265625 489 541.747070312 c 4
EndSplineSet
EndChar

StartChar: f
Encoding: 102 102 39
Width: 799
VWidth: 1920
Flags: HMW
LayerCount: 2
Fore
SplineSet
160 590 m 4
 113 590 86 588 62 588 c 4
 34 588 12 597.094726562 12 635 c 4
 12 669 29 830 75 830 c 4
 100 830 132 827 149 827 c 4
 159 827 178 830.982421875 178 851 c 4
 178 875 78 943 78 1066 c 4
 78 1262 269 1422 526 1422 c 4
 694 1422 798 1334 798 1194 c 4
 798 1101 699 1022 618 1022 c 4
 505 1022 461 1146 383 1146 c 4
 355 1146 328 1129 328 1092 c 4
 328 949 594.365234375 1025.73535156 645 861 c 4
 648.168945312 850.69140625 652.73828125 839.75390625 667 835 c 4
 676 832 687 830 703 830 c 4
 720 830 726 831 740 831 c 4
 773 831 799 814 799 792 c 4
 799 759.734375 778.95703125 668.038085938 759.721679688 616 c 4
 749.473632812 588.276367188 742.685546875 580 719 580 c 4
 707 580 694 581 681 581 c 4
 642 581 631.418945312 515.866210938 620 421 c 6
 607 313 l 6
 568.180664062 -9.4970703125 573 -92 573 -208 c 4
 573 -245.215820312 555.876953125 -270.997070312 531 -290 c 4
 459 -345 332 -384 187 -384 c 4
 99 -384 5 -340 5 -273 c 4
 5 -255.467773438 9.291015625 -232.202148438 22.24609375 -211 c 4
 36.103515625 -188.3203125 61.3935546875 -171.741210938 76.28125 -146 c 4
 94.3916015625 -114.686523438 102.896484375 -73.2138671875 109 -45 c 4
 154 163 181.122070312 312.09765625 196 446 c 6
 202 500 l 6
 206.654296875 541.888671875 204 590 160 590 c 4
EndSplineSet
EndChar

StartChar: g
Encoding: 103 103 40
Width: 1162
VWidth: 1920
Flags: HMW
AnchorPoint: "top" 634 1050 basechar 0
LayerCount: 2
Fore
SplineSet
579 464 m 0
 612 464 644 483 662 514 c 0
 704 584 706 721 706 776 c 0
 706 826 680 855 635 855 c 0
 606 855 579 843 559 813 c 0
 522 756 505 648 505 524 c 0
 505 486 531 464 579 464 c 0
45 580 m 0
 45 655 65 747 121 806 c 0
 223 913 364 1019 638 1019 c 0
 706 1019 747 1020 775 1020 c 0
 793 1020 817 1018 830 1018 c 0
 839 1018 856 1021 871 1033 c 0
 909 1063 931 1107 950 1126 c 0
 957 1133 973 1141 988 1141 c 0
 1017 1141 1068 1125 1095 1099 c 0
 1145 1051 1144 1022 1140 1000 c 0
 1132 962 1115 935 1099 913 c 0
 1094 906 1089 896 1093 890 c 0
 1149 802 1157 762 1157 676 c 0
 1157 475 901 303 561 303 c 0
 510 303 429 307 407 307 c 0
 387 307 376 299 371 293 c 0
 367 288 359 278 359 255 c 0
 359 210 405 200 502 200 c 0
 643 200 774 221 883 221 c 0
 1026 221 1101 105 1101 9 c 0
 1101 -94 1043 -192 923 -269 c 0
 810 -342 649 -386 409 -386 c 0
 199 -386 28 -286 28 -181 c 0
 28 -117 56 -101 87 -70 c 0
 92 -65 93 -65 93 -61 c 0
 93 -59 88 -54 85 -50 c 0
 69 -33 5 27 5 113 c 0
 5 202 71 264 167 306 c 0
 179 311 195 321 195 336 c 0
 195 348 185 356 172 366 c 0
 131 396 45 483 45 580 c 0
253 -151 m 0
 253 -199 314 -234 483 -234 c 0
 646 -234 685 -179 685 -148 c 0
 685 -129 669 -122 629 -122 c 0
 547 -122 513 -128 433 -128 c 0
 392 -128 334 -124 297 -109 c 0
 287 -105 281 -103 278 -103 c 0
 273 -103 268 -108 263 -115 c 0
 257 -124 253 -135 253 -151 c 0
EndSplineSet
EndChar

StartChar: i
Encoding: 105 105 41
Width: 663
VWidth: 1920
Flags: HMW
AnchorPoint: "ogonek" 393 10 basechar 0
LayerCount: 2
Fore
SplineSet
65 1158 m 0
 65 1319 338 1420 495 1420 c 0
 602 1420 653 1357 653 1290 c 0
 653 1164 437 1057 250 1057 c 0
 123 1057 65 1092 65 1158 c 0
98 435 m 4
 120.805664062 555.647460938 130 614 130 658 c 4
 130 682 123 694 113 700 c 4
 104 705 94 706 84 706 c 4
 74 706 67 706 59 706 c 4
 51 706 44 707 37 709 c 4
 31 711 26 714 22 718 c 4
 13 727 5 740 5 766 c 4
 5 845.272460938 99.6259765625 901.086914062 207 942.765625 c 4
 321.762695312 987.3125 451.0859375 1015 495 1015 c 4
 576 1015 613 975 613 908 c 4
 613 854 598.7421875 798.0390625 561 548 c 4
 545 442 527 362 527 303 c 0
 527 289 540 277 555 277 c 0
 565.916992188 277 574.665039062 277.862304688 583 279.260742188 c 0
 591.393554688 280.668945312 597.19921875 282 608 282 c 0
 635 282 658 251 658 226 c 0
 658 151 599.139648438 114.8203125 519 64 c 0
 437 12 325 -25 227 -25 c 0
 108 -25 52 38 52 120 c 0
 52 197 67 271 98 435 c 4
EndSplineSet
EndChar

StartChar: h
Encoding: 104 104 42
Width: 1245
VWidth: 1920
Flags: HMW
AnchorPoint: "top" 364 1400 basechar 0
LayerCount: 2
Fore
SplineSet
67 401 m 2
 133 901 l 2
 153.715820312 1057.94140625 154 1125 107 1143 c 0
 74.3154296875 1155.51757812 55 1150 33 1158 c 0
 14.2041015625 1164.83496094 0 1178 0 1212 c 0
 0 1267 28.927734375 1294.10644531 123 1339 c 0
 204.83984375 1378.05664062 365 1406 535 1406 c 0
 587.140625 1406 610 1361 610 1304 c 0
 610 1255 564 969 553 888 c 0
 550.411132812 868.939453125 555 838 582 838 c 0
 601 838 614.923828125 847.196289062 635 865 c 0
 741 959 867 1018 990 1018 c 0
 1071 1018 1205 969 1205 817 c 0
 1205 701 1133 477 1133 343 c 0
 1133 311 1135 299 1144 290 c 0
 1151.51269531 282.487304688 1163.02644842 278.074358176 1173 277 c 0
 1182.28326493 276 1189.41308594 276.680664062 1198 274.455078125 c 0
 1211.22167969 271.029296875 1240 251.443359375 1240 207 c 0
 1240 154 1149.94726562 83.05859375 1070 41 c 0
 1002.31054688 5.3896484375 906 -29 842 -29 c 0
 752 -29 671 -3 671 122 c 0
 671 251 738 478 738 625 c 0
 738 660 720 685 685 685 c 0
 631 685 553.504882812 630.158203125 517 512 c 0
 489.740234375 423.767578125 478.388671875 315.786132812 463 150 c 0
 457.595703125 91.783203125 450.942382812 65.396484375 420 44.4267578125 c 0
 353.484375 -0.6513671875 263.850585938 -28 201 -28 c 0
 129.115234375 -28 75.65234375 -20.9140625 43 -1.001953125 c 0
 20.1669921875 12.921875 7 31.5849609375 7 65 c 0
 7 149 36.2861328125 168.319335938 67 401 c 2
EndSplineSet
EndChar

StartChar: r
Encoding: 114 114 43
Width: 1008
VWidth: 1920
Flags: HMW
AnchorPoint: "bottom" 272 0 basechar 0
AnchorPoint: "top" 564 1000 basechar 0
LayerCount: 2
Fore
SplineSet
807 1032 m 0
 916 1032 1003 932 1003 794 c 0
 1003 672 929 568 823 568 c 0
 671 568 703 690 635 690 c 0
 603 690 595.794921875 685.694335938 575 569 c 0
 555.249023438 458.163085938 535 374 533 159 c 0
 532.469726562 102.002929688 512.350585938 51.6640625 467 27 c 0
 410 -4 298.0234375 -26 197 -26 c 0
 136 -26 64 4 64 62 c 0
 64 109 137 453 137 681 c 4
 137 708.125 128.415039062 722.520507812 109 727 c 4
 96 730 65.322265625 728.837890625 56 729.368164062 c 0
 47.1337890625 729.873046875 41.0068359375 730.569335938 36 732 c 0
 30 734 25 737 21 741 c 0
 12 750 5 763 5 789 c 0
 5 861 88.611328125 917.755859375 173 955 c 0
 263.427734375 994.909179688 312 1027 385 1027 c 0
 417 1027 450.536132812 1024.6953125 471 994 c 0
 495 958 507.794921875 910.967773438 511 878 c 0
 512.861328125 858.854492188 522 840 551 840 c 0
 578 840 587.249023438 849.907226562 599 876 c 0
 660.717773438 1013.04394531 734 1032 807 1032 c 0
EndSplineSet
EndChar

StartChar: j
Encoding: 106 106 44
Width: 664
VWidth: 1920
Flags: HMW
LayerCount: 2
Fore
SplineSet
56 1158 m 0
 56 1319 329 1420 486 1420 c 0
 593 1420 644 1357 644 1290 c 0
 644 1164 428 1057 241 1057 c 0
 114 1057 56 1092 56 1158 c 0
153 413 m 6
 176 577 190 694 148 704 c 4
 119 711 95 706 78 709 c 4
 67 711 58 714 51 719 c 4
 39 728 34 742 34 768 c 4
 34 884 347 1008 525 1008 c 4
 606 1008 627 971 627 904 c 4
 627 818 584 579 567 424 c 6
 536 134 l 6
 522 1 509 -122 470 -220 c 4
 429 -323 291 -405 181 -405 c 4
 94 -405 5 -372 5 -312 c 4
 5 -292 9 -280 15 -271 c 4
 19 -265 24.671875 -259.551757812 30 -256 c 4
 36 -252 49 -242 57 -227 c 4
 63 -217 67 -203 70 -184 c 4
 84 -93 90 -45 108 88 c 6
 153 413 l 6
EndSplineSet
EndChar

StartChar: k
Encoding: 107 107 45
Width: 1191
VWidth: 1920
Flags: HMW
AnchorPoint: "bottom" 558 0 basechar 0
LayerCount: 2
Fore
SplineSet
503 497 m 4
 503 474 523 468 540 468 c 4
 595 468 722 620 722 692 c 4
 722 712 714 737 671 737 c 4
 564 737 503 532 503 497 c 4
91 591 m 6
 132 921 l 6
 141.86328125 1000.38964844 144 1032 144 1093 c 4
 144 1139 126 1163 104 1163 c 4
 89 1163 67 1159 47 1159 c 4
 27 1159 0 1180 0 1209 c 4
 0 1274 51.748046875 1332.61132812 136 1367 c 4
 234 1407 380 1434 531 1434 c 4
 570 1434 587 1405 587 1369 c 4
 587 1313 576.393554688 1239.60742188 567 1125 c 6
 552 942 l 6
 547.75390625 890.201171875 553 875 570 875 c 4
 580 875 599.7734375 897.295898438 618 911 c 4
 751 1011 861 1041 945 1041 c 4
 1062 1041 1186 964 1186 825 c 4
 1186 671 1086.9296875 588.309570312 966 518 c 4
 952.331054688 510.052734375 939 500 939 492 c 4
 939 478 959.4140625 452.5625 970 439 c 4
 1002 398 1021.19628906 361.41015625 1048 309 c 4
 1056.63964844 292.107421875 1062.10742188 279.390625 1080 273 c 4
 1096.66113281 267.049804688 1110.13574219 260.479492188 1120.84472656 253 c 4
 1124.50585938 250.443359375 1127.84277344 247.780273438 1130.87402344 245 c 4
 1148.78125 228.573242188 1156 208.03515625 1156 181 c 4
 1156 60 877 -28 793 -28 c 4
 760.969726562 -28 725.377929688 -22.482421875 704 -12.0654296875 c 4
 668.936523438 5.01953125 640.224609375 32.9384765625 623 76 c 4
 581 181 579 274 552 277 c 4
 535.103515625 278.876953125 524.947265625 278.380859375 513 276 c 4
 500.212890625 273.452148438 492.13671875 268.030273438 487 257 c 4
 467.7421875 215.646484375 473 174 473 146 c 4
 473 115 446.877929688 62.501953125 425 45 c 4
 385 13 260 -32 169 -32 c 4
 41 -32 10 21 10 50 c 4
 10 152 52.6298828125 282.169921875 91 591 c 6
EndSplineSet
EndChar

StartChar: m
Encoding: 109 109 46
Width: 1911
VWidth: 1920
Flags: HMW
LayerCount: 2
Fore
SplineSet
655 878 m 4
 787.740234375 971.845703125 896 1031 1015 1031 c 4
 1090 1031 1154 1002 1197 890 c 4
 1205.85253906 866.942382812 1215 857 1225 857 c 4
 1236 857 1263.53417969 870.313476562 1274 879 c 4
 1405.19726562 987.889648438 1500 1039 1639 1039 c 4
 1694.56738281 1039 1748.89160156 1020.27734375 1788.90136719 979 c 4
 1827.66992188 939.00390625 1853 877.83203125 1853 792 c 4
 1853 636 1792 477 1792 343 c 4
 1792 314.828125 1801.49316406 301.088867188 1815 293.321289062 c 4
 1828.20507812 285.728515625 1845.24316406 283.84375 1861 279.762695312 c 4
 1870.08398438 277.409179688 1878.7421875 274.327148438 1885.99511719 269 c 4
 1897.88964844 260.263671875 1906 245.490234375 1906 218 c 4
 1906 165 1847 114 1791 74 c 4
 1728.76074219 29.5439453125 1604 -29 1490 -29 c 4
 1380 -29 1317 23 1317 100 c 4
 1317 249 1386 486 1386 653 c 4
 1386 686 1366 702 1339 702 c 4
 1287 702 1231.35546875 674.625976562 1206 579 c 4
 1182.42480469 490.088867188 1175 398 1149 193 c 4
 1142.70996094 143.404296875 1138.19726562 104.112304688 1132 88 c 4
 1122 62 1096.28027344 35.0380859375 1071 23 c 4
 1029 3 929 -27 832 -27 c 4
 742 -27 689 -11 689 55 c 4
 689 209 760 481 760 607 c 4
 760 673 744 690 695 690 c 4
 651 690 600 640 569 524 c 4
 545.1328125 434.689453125 532.46484375 316.600585938 518 138 c 4
 512.23046875 66.7578125 499.28515625 55.59375 446 23.0986328125 c 4
 424.62890625 10.06640625 345.422851562 -28 255 -28 c 4
 196 -28 122 -24 99 -11 c 4
 80.7177734375 -0.6669921875 54 22 54 50 c 4
 54 118 130 483 130 681 c 4
 130 705 123 717 113 723 c 4
 104 728 94 729 84 729 c 4
 74 729 67 729 59 729 c 4
 51 729 44 730 37 732 c 4
 31 734 26 737 22 741 c 4
 13 750 5 763 5 789 c 4
 5 861 99.611328125 917.755859375 156 945 c 4
 245 988 379 1033 462 1033 c 4
 503 1033 527 1029 549 998 c 4
 566.6015625 973.197265625 577 936 582 880 c 4
 583.7109375 860.840820312 594 853 604 853 c 4
 626 853 637.639648438 865.7265625 655 878 c 4
EndSplineSet
EndChar

StartChar: p
Encoding: 112 112 47
Width: 1311
VWidth: 1920
Flags: HMW
AnchorPoint: "top" 857 1000 basechar 0
AnchorPoint: "bottom" 761 0 basechar 0
LayerCount: 2
Fore
SplineSet
191 224 m 6
 230 530 l 2
 234 563 236.239257812 577.81640625 211 567 c 0
 190 558 171.321289062 539.624023438 153 519 c 0
 133.934570312 497.537109375 125 476 104 476 c 0
 73 476 71.69921875 513.795898438 30 595 c 0
 11 632 5 648 5 665 c 0
 5 699 20.5693359375 714.94140625 43 731 c 0
 131 794 172 820 239 861 c 0
 246 865 262 876 263 891 c 0
 271 1048 261 1114 261 1170 c 0
 261 1224 296.110351562 1239.703125 336 1253 c 0
 372 1265 578 1280 649 1280 c 0
 691 1280 718 1257 718 1225 c 0
 718 1179 698 1165 684 1053 c 0
 679 1013 688.217773438 1002.81835938 704 1005 c 0
 768.193359375 1013.87402344 849 1050 958 1050 c 0
 1140 1050 1306 945 1306 698 c 0
 1306 197 986 -38 776 -38 c 0
 729 -38 698.532226562 -34.0595703125 669 -27 c 0
 644.33203125 -21.103515625 625 -19 618 -19 c 0
 596 -19 583.61328125 -38.91796875 583 -61 c 4
 582 -97 583.310546875 -132.579101562 589 -154 c 4
 594.620117188 -175.159179688 606.094726562 -191.46484375 622.954101562 -202 c 4
 637.99609375 -211.399414062 657.936523438 -215.389648438 672.181640625 -227 c 4
 690.262695312 -241.737304688 704 -262.30859375 704 -289 c 4
 704 -367 601 -392 503 -392 c 4
 294 -392 210.736328125 -363.052734375 154 -345 c 4
 66 -317 35 -258 35 -222 c 4
 35 -193.491210938 47.4541015625 -171.946289062 58.08203125 -159 c 4
 71.7060546875 -142.404296875 88.837890625 -134.147460938 111.96484375 -111 c 4
 130.633789062 -92.314453125 151.646484375 -63.6669921875 164 0 c 4
 177 67 177.888671875 121.129882812 191 224 c 6
663 175 m 0
 762 175 858 439 858 562 c 0
 858 650 835.892578125 690.241210938 797 725 c 0
 769.01171875 750.013671875 737 752 712 752 c 0
 679 752 668 737 665 710 c 2
 610 251 l 2
 607.38671875 229.193359375 609.439453125 208.93359375 622 195 c 0
 633.711914062 182.006835938 638 175 663 175 c 0
EndSplineSet
EndChar

StartChar: q
Encoding: 113 113 48
Width: 1239
VWidth: 1920
Flags: HMW
AnchorPoint: "bottom" 260 0 basechar 0
LayerCount: 2
Fore
SplineSet
721 821 m 0
 678 821 624.737304688 764.609375 577 678 c 0
 495.740234375 530.571289062 473 443 473 361 c 0
 473 340.974609375 476.21484375 323.487304688 484.682617188 311 c 0
 493.166015625 298.491210938 506.921875 291 528 291 c 0
 603 291 796 566 796 720 c 0
 796 784 768 821 721 821 c 0
855 979 m 0
 881 979 904.204101562 988.591796875 924 1000 c 0
 983 1034 1079 1063 1117 1063 c 0
 1177 1063 1213 1028 1213 979 c 0
 1213 931 1197.65527344 897.838867188 1187 831 c 0
 1176 762 1152.91601562 597.27734375 1143 491 c 2
 1104 73 l 2
 1095.67285156 -16.2490234375 1097.46972656 -72.87890625 1101 -107 c 0
 1103.35058594 -129.720703125 1111.015625 -150.301757812 1123.74023438 -163 c 0
 1143.42578125 -182.643554688 1172.49316406 -178.047851562 1193 -190.75 c 0
 1214.50878906 -204.071289062 1234 -227.8203125 1234 -257 c 0
 1234 -304.0546875 1197.50683594 -336.896484375 1132 -356.905273438 c 0
 1078.59765625 -373.217773438 1005.91308594 -381 918 -381 c 0
 775.873046875 -381 666.640625 -365.645507812 596 -335.473632812 c 0
 535.209960938 -309.508789062 503 -272.5703125 503 -225 c 0
 503 -191.193359375 525.58984375 -165.309570312 537.353515625 -158 c 0
 555.79296875 -146.541992188 578.255859375 -150.458007812 603 -141.275390625 c 0
 626.525390625 -132.544921875 639.90234375 -123.297851562 655 -65 c 0
 668.28125 -13.7158203125 685 70 685 119 c 0
 685 135 681 160 667 160 c 0
 652 160 640 154 617 128 c 0
 547 48 410 -27 286 -27 c 0
 84 -27 5 150 5 317 c 0
 5 758 386 1042 626 1042 c 0
 683 1042 738.922851562 1026.91699219 772 1007 c 4
 802.3125 988.747070312 831 979 855 979 c 0
EndSplineSet
EndChar

StartChar: s
Encoding: 115 115 49
Width: 937
VWidth: 1920
Flags: HMW
AnchorPoint: "bottom" 374 0 basechar 0
AnchorPoint: "top" 570 1000 basechar 0
LayerCount: 2
Fore
SplineSet
204.254298532 253.000000807 m 4
 207.329848208 244.14585481 210.978477185 235.518357579 216.510742188 228 c 4
 230.000976562 209.66796875 252.760742188 198 300 198 c 260
 352 198 376 223 376 253 c 260
 376 290 317.359375 348.223632812 258 414 c 4
 184 496 130 588 130 689 c 256
 130 912 345 1035 576 1035 c 260
 781 1035 932 970 932 864 c 0
 932 746 865 703 820 703 c 0
 786 703 755.065429688 714.377929688 735 752 c 0
 711 797 692 808 652 808 c 256
 617 808 595 795 595 760 c 256
 595 715 650.333007812 674.453125 745 578 c 4
 851 470 885 413 885 333 c 260
 885 152 728 -45 390 -45 c 260
 260.09765625 -45 157.3515625 -19.7587890625 90 24.5146484375 c 4
 31.7734375 62.7890625 -0 115.288085938 0 178 c 4
 0 258 38 324 121 324 c 4
 169.591951129 324 187.68858649 300.690738529 204.254298532 253.000000807 c 4
EndSplineSet
EndChar

StartChar: t
Encoding: 116 116 50
Width: 830
Flags: HMW
AnchorPoint: "bottom" 383 0 basechar 0
LayerCount: 2
Fore
SplineSet
581 358 m 0
 581 313 597 296 638 296 c 0
 659.254882812 296 668.294921875 300.279296875 679 303.770507812 c 0
 696.336914062 309.424804688 712.61328125 319.452148438 727 328 c 0
 734.9140625 332.702148438 749 342 756 342 c 0
 789 342 807 284 807 249 c 0
 807 184 677 89 601 47 c 0
 510.973632812 -2.751953125 413 -39 287 -39 c 0
 185 -39 117 27 117 149 c 0
 117 322 182 723 182 762 c 0
 182 781 172.055664062 786 163 786 c 0
 151 786 137 779 105 779 c 0
 77 779 56 788 41 799 c 0
 29.111328125 807.717773438 20 819 20 839 c 0
 20 892 27.830078125 939.09375 79 981 c 0
 86.96484375 987.5234375 107 1001 131 1001 c 0
 157 1001 170.247070312 1006.29589844 189 1012 c 0
 215.94140625 1020.1953125 229.453125 1038.33398438 234 1056 c 0
 240.470703125 1081.14257812 246.525390625 1114.77636719 260 1155 c 0
 273.484375 1195.25195312 292.798828125 1229.22460938 314 1248 c 0
 331.381835938 1263.39257812 354.948242188 1283.49511719 439 1302 c 0
 478.259765625 1310.64355469 541 1316 609 1316 c 0
 646 1316 676 1290 676 1259 c 0
 676 1233 669.201171875 1210.76367188 661 1157 c 0
 653.606445312 1108.53027344 649 1081 649 1054 c 0
 649 1033 655.010742188 1020.22167969 677 1019 c 0
 695 1018 721.649414062 1019.41503906 738 1020 c 0
 753.182617188 1020.54296875 759 1022 773 1022 c 0
 809 1022 825 997 825 960 c 0
 825 943.208007812 816.288085938 923.366210938 812.399414062 904 c 4
 809.072435059 887.431109838 808.28515625 870.569335938 804 857 c 0
 792 819 771 809 748 809 c 0
 728 809 715 809 687 809 c 0
 641 809 623 777 615 724 c 0
 591.04296875 565.283203125 581 479 581 358 c 0
EndSplineSet
EndChar

StartChar: u
Encoding: 117 117 51
Width: 1296
VWidth: 1920
Flags: HMW
AnchorPoint: "ogonek" 1023 53 basechar 0
AnchorPoint: "top" 693 1000 basechar 0
LayerCount: 2
Fore
SplineSet
270 -22 m 4
 69 -22 65 135.958007812 65 215 c 4
 65 401 123 564 123 668 c 4
 123 680.526367188 121.512695312 688.372070312 118.48046875 694 c 4
 115.177734375 700.130859375 110.041992188 703.62890625 103 707.678710938 c 4
 86.642578125 717.083984375 53.029296875 718.8125 39 724.64453125 c 4
 28.2958984375 729.094726562 19.6953125 736.631835938 14.529296875 743 c 4
 7.7392578125 751.369140625 5 759.67578125 5 778 c 4
 5 861 57.2470703125 893.672851562 118 926 c 4
 227 984 329 1024 443 1024 c 4
 486.524414062 1024 519.524414062 1014.87890625 542 997.994140625 c 4
 566 979.96484375 578 953.08203125 578 919 c 4
 578 765 516 530 516 404 c 4
 516 340 537 323 586 323 c 4
 630 323 694.41015625 372.01953125 729 487 c 4
 755.8671875 576.310546875 771.174804688 695.54296875 786 873 c 4
 789.466796875 914.499023438 788.90625 940.333007812 833 968.901367188 c 4
 881 1000 922 1020 1034 1032 c 4
 1095.24707031 1038.5625 1150.51953125 1044 1189 1022.8671875 c 4
 1213.72753906 1009.28710938 1227 982.217773438 1227 944 c 4
 1227 921.670898438 1218.58984375 862.708007812 1207.29199219 800 c 4
 1184.18457031 671.741210938 1151 503.982421875 1151 371 c 4
 1151 337 1163.08496094 327.137695312 1173 321 c 4
 1194 308 1218.47753906 307.287109375 1230 306.631835938 c 4
 1238.86621094 306.126953125 1244.99316406 305.430664062 1250 304 c 4
 1264.76074219 299.080078125 1291 284.026367188 1291 246 c 4
 1291 168.283203125 1192.68261719 120.196289062 1097 70.3115234375 c 4
 993.1640625 16.17578125 885.354492188 -13 840 -13 c 4
 799 -13 768 5 746 36 c 4
 728.3984375 60.802734375 734.286132812 79.5498046875 725 135 c 4
 721.2890625 157.159179688 697 164 677 164 c 4
 655 164 635.274414062 148.393554688 618 136 c 4
 473.259765625 32.154296875 390.016601562 -22 270 -22 c 4
EndSplineSet
EndChar

StartChar: w
Encoding: 119 119 52
Width: 1796
VWidth: 1920
Flags: HMW
AnchorPoint: "bottom" 890 0 basechar 0
AnchorPoint: "top" 1041 1000 basechar 0
LayerCount: 2
Fore
SplineSet
364 -35 m 0
 285.061523438 -35 194.56640625 -23.2880859375 134 41.490234375 c 0
 92.4609375 85.9189453125 65 155.307617188 65 263 c 0
 65 344 80 502 101 597 c 0
 110 637 115 670 115 694 c 0
 115 722 99 734 79 741 c 0
 75 742 72 743 68 744 c 0
 59 746 46 749 42 750 c 0
 35.8642578125 751.534179688 29.73046875 753.244140625 26 755 c 0
 9 763 5 778 5 800 c 0
 5 837 8 857 39 892 c 0
 73 930 185 972 247 990 c 0
 314 1009 392 1026 460 1026 c 0
 543 1026 575 993 575 937 c 0
 575 915 570 856 559 784 c 0
 541 668 506 479 506 364 c 0
 506 317.997070312 510.15234375 287.46875 520.297851562 268 c 0
 531.852539062 245.826171875 551.180664062 238 581 238 c 0
 638 238 668.424804688 265.594726562 701 316 c 0
 746.337890625 386.153320312 761 434 778 551 c 0
 796.616210938 679.122070312 800.422851562 739.772460938 801 794 c 0
 802 888 837 938 895 968 c 0
 970.142578125 1006.8671875 1044 1023 1184 1023 c 0
 1243 1023 1265 998 1265 941 c 0
 1265 869 1234.05761719 697.987304688 1219 627 c 0
 1205 561 1181 397 1181 301 c 0
 1181 248 1218 208 1323 208 c 0
 1375.68261719 208 1420 246.317382812 1453.703125 292 c 0
 1511.48144531 370.317382812 1540 487.735351562 1540 597 c 0
 1540 772.017578125 1443 832.739257812 1443 916 c 0
 1443 954 1450 982 1499 1005 c 0
 1537.16015625 1022.91210938 1572 1024 1594 1024 c 0
 1625 1024 1674.96191406 1015.3671875 1708 986 c 0
 1753 946 1776 894 1776 724 c 0
 1776 531.116210938 1711.32128906 305.677734375 1592.20019531 166 c 0
 1481.90136719 36.66796875 1369.50097656 -42 1147 -42 c 0
 1010 -42 925 -12 822 91 c 0
 802.764648438 110.235351562 795 129 782 129 c 0
 765 129 706.498046875 77.6083984375 642 35 c 0
 599.611328125 6.9970703125 474.803710938 -35 364 -35 c 0
EndSplineSet
EndChar

StartChar: x
Encoding: 120 120 53
Width: 1075
VWidth: 1920
Flags: HMW
LayerCount: 2
Fore
SplineSet
201 640 m 0
 188 640 181 635 174 628 c 0
 168 622 158 613 150 609 c 0
 141 604 129 602 111 602 c 0
 72 602 30 633 30 695 c 0
 30 728 36 756 46 781 c 0
 62 820 101 863 121 881 c 0
 182 936 364 1045 454 1045 c 0
 494 1045 517 1034 542 1001 c 0
 556 982 570 960 583 936 c 0
 597 910 611 881 625 851 c 0
 632 837 655 839 665 851 c 0
 678 867 691 882 705 900 c 0
 797 1017 850 1054 897 1054 c 0
 990 1054 1070 919 1070 788 c 0
 1070 734 1010 678 971 678 c 0
 948 678 933 684 923 692 c 0
 914 699 908 707 901 714 c 0
 893 722 885 729 871 729 c 0
 848 729 830 717 789 657 c 0
 780 644 777 636 766 614 c 0
 762 607 756 594 761 586 c 0
 793 532 807 496 837 442 c 0
 848 421 862 408 879 408 c 0
 888 408 894 414 902 422 c 0
 908 428 916 434 927 438 c 0
 936 442 946 444 961 444 c 0
 1010 444 1057 405 1057 352 c 0
 1057 171 760 -35 667 -35 c 0
 627 -35 589 -17 563 16 c 0
 545 38 520 80 497 123 c 0
 484 147 473 172 461 192 c 0
 448 213 415 210 391 188 c 0
 356 156 325 106 287 63 c 0
 238 6 184 -41 130 -41 c 0
 57 -41 5 62 5 213 c 0
 5 277 37 360 96 360 c 0
 113 360 125 356 135 351 c 0
 145 345 153 337 159 330 c 0
 169 319 177 308 193 308 c 0
 212 308 226 325 251 348 c 0
 300 394 308 407 327 447 c 0
 330 454 331 455 326 465 c 0
 307 502 287 538 268 570 c 0
 245 610 223 640 201 640 c 0
EndSplineSet
EndChar

StartChar: y
Encoding: 121 121 54
Width: 1210
VWidth: 1920
Flags: HMW
AnchorPoint: "top" 729 1000 basechar 0
LayerCount: 2
Fore
SplineSet
5 -113 m 0
 5 20 106 100 207 100 c 0
 356 100 379 -59 354 -132 c 0
 345.495117188 -156.833007812 373 -189 400 -189 c 0
 438 -189 459 -176 477 -143 c 0
 502.504882812 -96.240234375 505 -58 505 -21 c 0
 505 32 468.091796875 175.450195312 452 214 c 0
 361 432 288 634 207 634 c 0
 189.8671875 634 178.895507812 627.434570312 169 618.721679688 c 0
 159.244140625 610.1328125 145.016601562 596.223632812 138 590.924804688 c 0
 124.998046875 581.106445312 117.083984375 576 92 576 c 0
 57 576 13 624 13 666 c 0
 13 835 399 1041 479 1041 c 0
 529 1041 582.489257812 1012.62792969 622 936 c 0
 688 808 723 682 809 458 c 0
 825.192382812 415.82421875 846 334 878 334 c 0
 899 334 930.840820312 385.784179688 943 435 c 0
 964 520 967 650 938 725 c 0
 912.754882812 790.2890625 858 814 858 887 c 0
 858 975 934 1033 1023 1033 c 0
 1118 1033 1200 964 1200 826 c 0
 1200 723 1186.80175781 533.374023438 1127 348 c 0
 1068.73828125 167.40234375 971 -20 838 -159 c 0
 746.53125 -254.595703125 572 -392 343 -392 c 0
 166 -392 5 -264 5 -113 c 0
EndSplineSet
EndChar

StartChar: z
Encoding: 122 122 55
Width: 1001
VWidth: 1920
Flags: HMW
AnchorPoint: "top" 540 1000 basechar 0
LayerCount: 2
Fore
SplineSet
5 556 m 0
 5 802 105 1038 269 1038 c 0
 443 1038 487 946 586 946 c 0
 715 946 777 1053 867 1053 c 0
 934 1053 963 1022 963 971 c 0
 963 911 930 881 897 839 c 0
 860 792 585 468 537 420 c 0
 528 411 517 398 517 389 c 0
 517 377 541 363 571 349 c 0
 750 267 621 149 733 149 c 0
 775 149 808 216 808 262 c 0
 808 277.249491139 801.273949351 291.642680785 789.000000915 301.870868672 c 0
 785.329625726 304.929484018 774.17894012 312.990160791 765.000001296 316.735890092 c 0
 753.625569553 321.377553261 740.672165388 324 727 324 c 0
 682 324 649 370 649 436 c 0
 649 532 737 580 819 580 c 0
 921 580 1001 485 1001 310 c 0
 1001 -25 841 -208 649 -208 c 0
 520 -208 396 -124 313 -49 c 0
 278 -18 234 -4 204 -4 c 0
 178 -4 145 -23 87 -23 c 0
 29 -23 0 21 0 63 c 0
 0 95 10 125 49 166 c 0
 131 253 266 415 338 505 c 0
 387 567 435 623 435 631 c 0
 435 641 427 645 411 647 c 0
 370 652 340 658 317 664 c 0
 267 677 250 689 231 689 c 0
 201 689 177 665 177 639 c 0
 177 625 192 621 211 616 c 0
 228 612 249 608 266 596 c 0
 285 583 299 561 299 521 c 0
 299 449 233 386 155 386 c 0
 110 386 69 403 42 436 c 0
 19 464 5 504 5 556 c 0
EndSplineSet
EndChar

StartChar: period
Encoding: 46 46 56
Width: 596
VWidth: 1920
Flags: HMW
LayerCount: 2
Fore
SplineSet
50 195 m 4
 50 319.200195312 160.799804688 438 294 438 c 4
 427.200195312 438 506 338.200195312 506 215 c 4
 506 85.7998046875 404.200195312 -28 271 -28 c 4
 137.799804688 -28 50 61.7998046875 50 195 c 4
EndSplineSet
EndChar

StartChar: comma
Encoding: 44 44 57
Width: 596
VWidth: 1920
Flags: HMW
LayerCount: 2
Fore
SplineSet
63 -293.5 m 0
 63 -263.5 87.0712890625 -242.428710938 122 -207.5 c 0
 164 -165.5 205.5 -108 205.5 -48 c 0
 205.5 10.41015625 50 2.896484375 50 178.5 c 0
 50 312.5 137 432.5 271 432.5 c 0
 407 432.5 506 336.5 506 132.5 c 0
 506 -133.5 248 -386.5 170 -386.5 c 0
 126 -386.5 63 -331.5 63 -293.5 c 0
EndSplineSet
EndChar

StartChar: uniFB00
Encoding: 64256 64256 58
Width: 1579
VWidth: 1920
Flags: HMW
LayerCount: 2
Fore
SplineSet
160 590 m 0
 113 590 86 588 62 588 c 0
 34 588 12 597.094726562 12 635 c 0
 12 669 29 830 75 830 c 0
 100 830 132 827 149 827 c 0
 159 827 178 830.982421875 178 851 c 0
 178 875 78 943 78 1066 c 0
 78 1262 269 1422 526 1422 c 0
 694 1422 798 1334 798 1194 c 0
 798 1101 699 1022 618 1022 c 0
 570.280615459 1022 534.866238093 1044.11334623 504 1069.6633082 c 0
 484.868391651 1085.49976564 467.484090696 1102.65650457 450 1116.68614548 c 0
 428.894988245 1133.62129764 407.644574285 1146 383 1146 c 0
 355 1146 328 1129 328 1092 c 0
 328 949 594.365234375 1025.73535156 645 861 c 0
 649.28382386 847.06470118 654.53819074 830.643298353 703 830 c 2
 929 827 l 2
 939.984790056 826.854184203 958 830.982421875 958 851 c 0
 958 875 858 943 858 1066 c 0
 858 1262 1049 1422 1306 1422 c 0
 1474 1422 1578 1334 1578 1194 c 0
 1578 1101 1479 1022 1398 1022 c 0
 1285 1022 1241 1146 1163 1146 c 0
 1135 1146 1108 1129 1108 1092 c 0
 1108 949 1374.36523438 1025.73535156 1425 861 c 0
 1428.16894531 850.69140625 1432.73828125 839.75390625 1447 835 c 0
 1456 832 1467 830 1483 830 c 0
 1500 830 1506 831 1520 831 c 0
 1553 831 1579 814 1579 792 c 0
 1579 759.734375 1558.95703125 668.038085938 1539.72167969 616 c 0
 1529.47363281 588.276367188 1522.68554688 580 1499 580 c 0
 1487 580 1474 581 1461 581 c 0
 1422 581 1411.41894531 515.866210938 1400 421 c 2
 1387 313 l 2
 1348.18066406 -9.4970703125 1353 -92 1353 -208 c 0
 1353 -245.215820312 1335.87695312 -270.997070312 1311 -290 c 0
 1239 -345 1112 -384 967 -384 c 0
 879 -384 785 -340 785 -273 c 0
 785 -255.467773438 789.291015625 -232.202148438 802.24609375 -211 c 0
 816.103515625 -188.3203125 841.393554688 -171.741210938 856.28125 -146 c 0
 874.391601562 -114.686523438 882.896484375 -73.2138671875 889 -45 c 0
 934 163 961.122070312 312.09765625 976 446 c 2
 982 500 l 2
 986.654296875 541.888671875 984 590 940 590 c 0
 937.408436765 590 769.221192864 581 681 581 c 0
 642 581 631.418945312 515.866210938 620 421 c 2
 607 313 l 2
 568.180664062 -9.4970703125 573 -92 573 -208 c 0
 573 -245.215820312 555.876953125 -270.997070312 531 -290 c 0
 459 -345 332 -384 187 -384 c 0
 99 -384 5 -340 5 -273 c 0
 5 -255.467773438 9.291015625 -232.202148438 22.24609375 -211 c 0
 36.103515625 -188.3203125 61.3935546875 -171.741210938 76.28125 -146 c 0
 94.3916015625 -114.686523438 102.896484375 -73.2138671875 109 -45 c 0
 154 163 181.122070312 312.09765625 196 446 c 2
 202 500 l 2
 206.654296875 541.888671875 204 590 160 590 c 0
EndSplineSet
LCarets2: 1 0
Ligature2: "'liga' Standard Ligatures lookup" f f
EndChar

StartChar: uniFB01
Encoding: 64257 64257 59
Width: 1438
VWidth: 1920
Flags: HMW
LayerCount: 2
Fore
SplineSet
160 590 m 4
 113 590 86 588 62 588 c 4
 34 588 12 597 12 635 c 4
 12 669 29 830 75 830 c 4
 100 830 132 827 149 827 c 4
 159 827 178 831 178 851 c 4
 178 875 138 943 138 1066 c 4
 138 1262 328 1420 729 1420 c 4
 1188 1420 1327 1224 1327 1104 c 4
 1327 1001 1228 920 1077 920 c 4
 934 920 880 958 880 1034 c 4
 880 1101 911 1128 911 1156 c 4
 911 1187 835 1207 692 1207 c 4
 584 1207 498 1179 498 1112 c 4
 498 1019 594 1026 645 861 c 4
 649.499837804 846.000540654 656.247644337 830 703 830 c 6
 1161 830 l 6
 1204 830 1256 845 1317 845 c 4
 1358 845 1375 815 1375 768 c 4
 1375 714 1362 679 1324 469 c 4
 1310 393 1302 362 1302 303 c 4
 1302 289 1315 277 1330 277 c 4
 1341 277 1350 278 1358 279 c 4
 1366 280 1372 282 1383 282 c 4
 1410 282 1433 251 1433 226 c 4
 1433 151 1374 115 1294 64 c 4
 1212 12 1100 -25 1002 -25 c 4
 883 -25 827 38 827 120 c 4
 827 183 845 274 862 355 c 4
 878 431 894 498 894 523 c 4
 894 566 881 580 857 580 c 4
 840 580 823 580 808 580 c 4
 741 580 694 581 681 581 c 4
 642 581 631 516 620 421 c 6
 607 313 l 6
 568 -9 573 -92 573 -208 c 4
 573 -245 556 -271 531 -290 c 4
 459 -345 332 -384 187 -384 c 4
 99 -384 5 -340 5 -273 c 4
 5 -255 9 -232 22 -211 c 4
 36 -188 61 -172 76 -146 c 4
 94 -115 103 -73 109 -45 c 4
 154 163 181 312 196 446 c 6
 202 500 l 6
 207 542 204 590 160 590 c 4
EndSplineSet
LCarets2: 1 0
Ligature2: "'liga' Standard Ligatures lookup" f i
EndChar

StartChar: uniFB02
Encoding: 64258 64258 60
Width: 1447
VWidth: 1920
Flags: HMW
LayerCount: 2
Fore
SplineSet
645 861 m 4
 648 851 653 840 667 835 c 4
 676 832 687 830 703 830 c 4
 720 830 726 831 740 831 c 4
 773 831 799 814 799 792 c 4
 799 760 779 668 760 616 c 4
 750 588 743 580 719 580 c 4
 707 580 694 581 681 581 c 4
 642 581 631 516 620 421 c 6
 607 313 l 6
 568 -9 573 -92 573 -208 c 4
 573 -245 556 -271 531 -290 c 4
 459 -345 332 -384 187 -384 c 4
 99 -384 5 -340 5 -273 c 4
 5 -255 9 -232 22 -211 c 4
 36 -188 61 -172 76 -146 c 4
 94 -115 103 -73 109 -45 c 4
 154 163 181 312 196 446 c 6
 202 500 l 6
 207 542 204 590 160 590 c 4
 113 590 86 588 62 588 c 4
 34 588 12 597 12 635 c 4
 12 669 29 830 75 830 c 4
 100 830 132 827 149 827 c 4
 159 827 178 831 178 851 c 4
 178 875 118 943 118 1066 c 4
 118 1262 299 1462 666 1462 c 4
 934 1462 1193 1396 1316 1396 c 4
 1382 1396 1420 1352 1420 1295 c 4
 1420 1239 1395 1161 1379 1038 c 6
 1319 572 l 6
 1306 468 1302 426 1302 354 c 4
 1302 312 1316 303 1343 303 c 4
 1360 303 1373 304 1384 305 c 4
 1389 305 1395 306 1400 306 c 4
 1424 306 1442 280 1442 260 c 4
 1442 189 1416 135 1308 72 c 4
 1232 28 1104 -17 986 -17 c 4
 929 -17 882 -3 858 20 c 4
 826 51 818 97 818 148 c 4
 818 234 838 275 875 551 c 6
 909 801 l 6
 923 905 945 1031 945 1086 c 4
 945 1129 937.21484375 1142.56054688 904 1163 c 4
 852 1195 723 1256 633 1256 c 4
 525 1256 448 1189 448 1112 c 4
 448 969 594 1026 645 861 c 4
EndSplineSet
LCarets2: 1 0
Ligature2: "'liga' Standard Ligatures lookup" f l
EndChar

StartChar: uniFB03
Encoding: 64259 64259 61
Width: 2218
VWidth: 1920
Flags: HMW
LayerCount: 2
Fore
SplineSet
160 590 m 4
 113 590 86 588 62 588 c 4
 34 588 12 597.094726562 12 635 c 4
 12 669 29 830 75 830 c 4
 100 830 132 827 149 827 c 4
 159 827 178 830.982421875 178 851 c 4
 178 875 138 943 138 1066 c 4
 138 1292 359 1442 666 1442 c 4
 830.625 1442 964.152350313 1365.49150759 995.999997368 1270.99913279 c 4
 1012.23108939 1222.84127586 1012.23108939 1222.84127586 1047 1256.55500229 c 4
 1144.16269081 1350.76895145 1297.13023403 1420 1509 1420 c 4
 1968 1420 2107 1224 2107 1104 c 4
 2107 1001 2008 920 1857 920 c 4
 1714 920 1660 958 1660 1034 c 4
 1660 1101 1691 1128 1691 1156 c 4
 1691 1187 1615 1207 1472 1207 c 4
 1364 1207 1278 1179 1278 1112 c 4
 1278 1019 1374 1026 1425 861 c 4
 1429.5 846.000976562 1436.24804688 830 1483 830 c 6
 1941 830 l 6
 1984 830 2036 845 2097 845 c 4
 2138 845 2155 815 2155 768 c 4
 2155 714 2142 679 2104 469 c 4
 2090 393 2082 362 2082 303 c 4
 2082 289 2095 277 2110 277 c 4
 2121 277 2130 278 2138 279 c 4
 2146 280 2152 282 2163 282 c 4
 2190 282 2213 251 2213 226 c 4
 2213 151 2154 115 2074 64 c 4
 1992 12 1880 -25 1782 -25 c 4
 1663 -25 1607 38 1607 120 c 4
 1607 183 1625 274 1642 355 c 4
 1658 431 1674 498 1674 523 c 4
 1674 566 1661 580 1637 580 c 4
 1620 580 1603 580 1588 580 c 4
 1521 580 1474 581 1461 581 c 4
 1422 581 1411 516 1400 421 c 6
 1387 313 l 6
 1354.39339136 42.1143282476 1353 -117.717948718 1353 -208 c 4
 1353 -245.215820312 1335.87695312 -270.997070312 1311 -290 c 4
 1239 -345 1112 -384 967 -384 c 4
 879 -384 785 -340 785 -273 c 4
 785 -255.467773438 789.291015625 -232.202148438 802.24609375 -211 c 4
 816.103515625 -188.3203125 841.393554688 -171.741210938 856.28125 -146 c 4
 874.391601562 -114.686523438 882.896484375 -73.2138671875 889 -45 c 4
 934 163 961.122070312 312.09765625 976 446 c 6
 982 500 l 6
 986.654296875 541.888671875 984 590 940 590 c 4
 887.408436765 590 769.221192864 581 681 581 c 4
 642 581 631.418945312 515.866210938 620 421 c 6
 607 313 l 6
 568.180664062 -9.4970703125 573 -92 573 -208 c 4
 573 -245.215820312 555.876953125 -270.997070312 531 -290 c 4
 459 -345 332 -384 187 -384 c 4
 99 -384 5 -340 5 -273 c 4
 5 -255.467773438 9.291015625 -232.202148438 22.24609375 -211 c 4
 36.103515625 -188.3203125 61.3935546875 -171.741210938 76.28125 -146 c 4
 94.3916015625 -114.686523438 102.896484375 -73.2138671875 109 -45 c 4
 154 163 181.122070312 312.09765625 196 446 c 6
 202 500 l 6
 206.654296875 541.888671875 204 590 160 590 c 4
798 1002 m 4
 721.27734375 1002 678.918945312 1040.89550781 660 1071.85058594 c 4
 647.969726562 1091.53417969 637.413085938 1116.17480469 615 1129.91894531 c 4
 589.939453125 1145.28710938 544.15780286 1156 483 1156 c 4
 435 1156 388 1139 388 1092 c 4
 388 949 594.365234375 1025.73535156 645 861 c 4
 649.28382386 847.06470118 654.53819074 830.643298353 703 830 c 6
 929 827 l 6
 938.024958403 826.880199667 957.999862396 827.941340112 958 851 c 4
 958 875 918 913 918 976 c 4
 918 990.4248743 920.965327651 1004.98903499 921.095727739 1019.99999521 c 4
 921.373711517 1052 861.374023438 1002 798 1002 c 4
EndSplineSet
LCarets2: 2 0 0
Ligature2: "'liga' Standard Ligatures lookup" f f i
EndChar

StartChar: uniFB04
Encoding: 64260 64260 62
Width: 2227
VWidth: 1920
Flags: HMW
LayerCount: 2
Fore
SplineSet
1387 313 m 6
 1348 -9 1353 -92 1353 -208 c 4
 1353 -245 1336 -271 1311 -290 c 4
 1239 -345 1112 -384 967 -384 c 4
 879 -384 785 -340 785 -273 c 4
 785 -255.467773438 789.291015625 -232.202148438 802.24609375 -211 c 4
 816.103515625 -188.3203125 841.393554688 -171.741210938 856.28125 -146 c 4
 874.391601562 -114.686523438 882.896484375 -73.2138671875 889 -45 c 4
 934 163 961.122070312 312.09765625 976 446 c 6
 982 500 l 6
 986.654296875 541.888671875 984 590 940 590 c 4
 887.408436765 590 769.221192864 581 681 581 c 4
 642 581 631.418945312 515.866210938 620 421 c 6
 607 313 l 6
 568.180664062 -9.4970703125 573 -92 573 -208 c 4
 573 -245.215820312 555.876953125 -270.997070312 531 -290 c 4
 459 -345 332 -384 187 -384 c 4
 99 -384 5 -340 5 -273 c 4
 5 -255.467773438 9.291015625 -232.202148438 22.24609375 -211 c 4
 36.103515625 -188.3203125 61.3935546875 -171.741210938 76.28125 -146 c 4
 94.3916015625 -114.686523438 102.896484375 -73.2138671875 109 -45 c 4
 154 163 181.122070312 312.09765625 196 446 c 6
 202 500 l 6
 206.654296875 541.888671875 204 590 160 590 c 4
 113 590 86 588 62 588 c 4
 34 588 12 597.094726562 12 635 c 4
 12 669 29 830 75 830 c 4
 100 830 132 827 149 827 c 4
 159 827 178 830.982421875 178 851 c 4
 178 875 138 943 138 1066 c 4
 138 1292 359 1442 666 1442 c 4
 830.625 1442 964.152350313 1365.49150759 995.999997368 1270.99913279 c 4
 1012.23108939 1222.84127586 1014.11079647 1221.00513892 1047 1256.55500229 c 4
 1134.16269081 1350.76895145 1324.12988281 1462 1536 1462 c 4
 1804 1462 1973 1396 2096 1396 c 4
 2162 1396 2200 1352 2200 1295 c 4
 2200 1239 2175 1161 2159 1038 c 6
 2099 572 l 6
 2086 468 2082 426 2082 354 c 4
 2082 312 2096 303 2123 303 c 4
 2140 303 2153 304 2164 305 c 4
 2169 305 2175 306 2180 306 c 4
 2204 306 2222 280 2222 260 c 4
 2222 189 2196 135 2088 72 c 4
 2012 28 1884 -17 1766 -17 c 4
 1709 -17 1662 -3 1638 20 c 4
 1606 51 1598 97 1598 148 c 4
 1598 234 1618 275 1655 551 c 6
 1689 801 l 6
 1703 905 1725 1031 1725 1086 c 4
 1725 1129 1717.21484375 1142.56054688 1684 1163 c 4
 1632 1195 1503 1256 1413 1256 c 4
 1305 1256 1228 1189 1228 1112 c 4
 1228 969 1374 1026 1425 861 c 4
 1428 851 1433 840 1447 835 c 4
 1456 832 1467 830 1483 830 c 4
 1500 830 1506 831 1520 831 c 4
 1553 831 1579 814 1579 792 c 4
 1579 760 1559 668 1540 616 c 4
 1530 588 1523 580 1499 580 c 4
 1487 580 1474 581 1461 581 c 4
 1422 581 1411 516 1400 421 c 6
 1387 313 l 6
798 1002 m 0
 721.27734375 1002 678.918945312 1040.89550781 660 1071.85058594 c 0
 647.969726562 1091.53417969 637.413085938 1116.17480469 615 1129.91894531 c 0
 589.939453125 1145.28710938 544.15780286 1156 483 1156 c 0
 435 1156 388 1139 388 1092 c 0
 388 949 594.365234375 1025.73535156 645 861 c 0
 649.28382386 847.06470118 654.53819074 830.643298353 703 830 c 2
 929 827 l 2
 938.024958403 826.880199667 957.999862396 827.941340112 958 851 c 0
 958 875 918 913 918 976 c 0
 918 990.4248743 920.965327651 1004.98903499 921.095727739 1019.99999521 c 0
 921.373711517 1052 861.374023438 1002 798 1002 c 0
EndSplineSet
LCarets2: 2 0 0
Ligature2: "'liga' Standard Ligatures lookup" f f l
EndChar

StartChar: quotesingle
Encoding: 39 39 63
Width: 609
VWidth: 1920
Flags: HMW
LayerCount: 2
Fore
SplineSet
309 829 m 4
 266 829 243 874 243 904 c 4
 243 935 243 975 233 1040 c 4
 225 1093 175 1162 175 1282 c 4
 175 1387 297 1503 464 1503 c 4
 579 1503 644 1445 644 1380 c 4
 644 1221 525 1083 470 1007 c 4
 385 889 355 829 309 829 c 4
EndSplineSet
EndChar

StartChar: quoteright
Encoding: 8217 8217 66
Width: 647
VWidth: 1920
Flags: HMW
LayerCount: 2
Fore
SplineSet
189 724 m 4
 189 749 203.594726562 766.329101562 233 793 c 4
 266.0703125 822.994140625 338 896 338 966 c 4
 338 1027.34472656 196 1019.37792969 196 1193 c 4
 196 1330 285 1432 412 1432 c 4
 560 1432 631 1342 631 1141 c 4
 631 933 406 625 292 625 c 4
 248 625 189 700 189 724 c 4
EndSplineSet
EndChar

StartChar: quoteleft
Encoding: 8216 8216 67
Width: 647
VWidth: 1920
Flags: HMW
LayerCount: 2
Fore
SplineSet
625 1432 m 4
 625 1407 610.405273438 1389.67089844 581 1363 c 4
 547.9296875 1333.00585938 476 1260 476 1190 c 4
 476 1128.65527344 618 1136.62207031 618 963 c 4
 618 826 529 724 402 724 c 4
 254 724 183 814 183 1015 c 4
 183 1223 408 1531 522 1531 c 4
 566 1531 625 1456 625 1432 c 4
EndSplineSet
EndChar

StartChar: hyphen
Encoding: 45 45 71
Width: 702
Flags: HMW
LayerCount: 2
Fore
SplineSet
100 486 m 0
 100 540 128.309570312 708.356445312 174 803 c 0
 188 832 211 846 242 846 c 0
 305 846 331 841 384 841 c 0
 476 841 555 857 610 857 c 0
 639 857 662 842 662 813 c 0
 662 759 609.049804688 611.97265625 572 507 c 0
 560 473 519 461 480 461 c 0
 430 461 358 474 292 474 c 0
 218 474 184 442 149 442 c 0
 125 442 100 458 100 486 c 0
EndSplineSet
EndChar

StartChar: exclam
Encoding: 33 33 73
Width: 596
VWidth: 1920
Flags: HMW
LayerCount: 2
Fore
SplineSet
50 175 m 4
 50 299.200195312 160.799804688 408 294 408 c 4
 427.200195312 408 506 318.200195312 506 195 c 4
 506 65.7998046875 404.200195312 -38 271 -38 c 4
 137.799804688 -38 50 41.7998046875 50 175 c 4
147 1137 m 4
 147 1345.31542969 245 1413 422 1413 c 4
 579 1413 634 1344 634 1233 c 4
 634 979.734375 458 676 426 628 c 4
 394.813476562 581.219726562 353 537 317 537 c 4
 281 537 249 584 226 628 c 4
 205 667 147 846 147 1137 c 4
EndSplineSet
EndChar

StartChar: question
Encoding: 63 63 74
Width: 1011
VWidth: 1920
Flags: HMW
LayerCount: 2
Fore
SplineSet
171 195 m 4
 171 319.200195312 271.799804688 417 405 417 c 4
 538.200195312 417 611 328.200195312 611 205 c 4
 611 75.7998046875 506.200195312 -28 373 -28 c 4
 249.799804688 -28 171 71.7998046875 171 195 c 4
406 530 m 4
 330 530 269 547 269 611 c 4
 269 815 500 970 500 1077 c 4
 500 1124 478 1156 443 1156 c 4
 359 1156 305.704101562 1079.53222656 299 1034 c 4
 295.360896449 1009.28763598 285.887414766 968.578258042 259 937.068873245 c 4
 237.187776944 911.507110037 203.915183909 892 153 892 c 4
 84 892 50 925 50 1005 c 4
 50 1187 298 1423 656 1423 c 4
 834 1423 981 1321 981 1160 c 4
 981 819 536 801 536 682 c 4
 536 668.116210938 537.73046875 655.888671875 540.086914062 650 c 4
 542.09375 644.987304688 544.553710938 641.669921875 546.786132812 638 c 4
 550.151367188 632.46875 553 626.137695312 553 612 c 4
 553 561 472 530 406 530 c 4
EndSplineSet
EndChar

StartChar: ampersand
Encoding: 38 38 75
Width: 1695
Flags: HMW
LayerCount: 2
Fore
SplineSet
918 415 m 0
 849 415 795 464 809 576 c 0
 856 955 1360 998 1374 1112 c 0
 1377 1135 1361 1153 1338 1153 c 0
 1322 1153 1314 1152 1302 1150 c 0
 1288 1148 1280 1144 1269 1144 c 0
 1247 1144 1233 1155 1236 1178 c 0
 1254 1325 1414 1384 1540 1384 c 0
 1686 1384 1803 1265 1784 1107 c 0
 1728 650 1003 661 989 550 c 0
 985 517 1002 497 999 471 c 0
 995 437 966 415 918 415 c 0
912 1131 m 0
 885 1131 867 1144 847 1163 c 0
 839 1170 831 1178 822 1184 c 0
 801 1198 775 1208 742 1208 c 0
 677 1208 634 1139 626 1075 c 0
 608 931 619 876 667 876 c 0
 685 876 661 866 657 833 c 0
 654 805 682 804 668 804 c 0
 624 804 595 809 574 635 c 0
 546 411 691 237 884 237 c 4
 1027 237 1182 352 1199 490 c 0
 1215 618 1110 619 966 656 c 1
 1381 729 l 1
 1506 712 1606 614 1591 493 c 0
 1552 172 1170 -45 711 -45 c 0
 242 -45 -16 192 17 463 c 0
 64 844 490 967 681 967 c 0
 801 967 824 908 817 851 c 0
 811 804 753 693 553 693 c 0
 313 693 189 835 217 1065 c 0
 246 1305 507 1457 760 1457 c 0
 943 1457 1070 1368 1055 1244 c 0
 1047 1180 971 1131 912 1131 c 0
EndSplineSet
EndChar

StartChar: one
Encoding: 49 49 76
Width: 1164
VWidth: 1920
Flags: HMW
LayerCount: 2
Fore
SplineSet
363 521 m 2
 384 721 l 2
 396.048828125 835.747070312 326 873 291 873 c 0
 216 873 205 825 145 825 c 0
 115 825 89 850 89 890 c 0
 89 945 127.068359375 1009.88867188 189 1048 c 0
 363.065429688 1155.1171875 737.21484375 1230 885 1230 c 4
 949 1230 995 1213 995 1148 c 0
 995 1095 962 1057 933 1042 c 0
 895.358398438 1022.53027344 872 1006 861 981 c 0
 850.428710938 956.973632812 839.756835938 915.153320312 831 844 c 2
 800 584 l 2
 785.634765625 463.517578125 779.033203125 337.420898438 788 289 c 0
 798 235 825 220 854 220 c 0
 878 220 927 222 946 222 c 0
 984 222 1039 206 1039 140 c 0
 1039 14 857 -24 548 -24 c 0
 268 -24 55 -10 55 118 c 0
 55 175 89 215 127 215 c 0
 155 215 196 207 223 207 c 0
 272 207 302 260 313 286 c 0
 337 344 354.68359375 437.83203125 363 521 c 2
EndSplineSet
EndChar

StartChar: two
Encoding: 50 50 77
Width: 1106
Flags: HMW
LayerCount: 2
Fore
SplineSet
153 770 m 0
 104 770 38 830 38 902 c 0
 38 1054 444 1237 690 1237 c 0
 926 1237 1063 1149 1063 987 c 0
 1063 835 913 691 733 498 c 0
 683 445 659 425 659 403 c 0
 659 377 666 361 759 361 c 2
 800 361 l 2
 835 361 859.948242188 368.061523438 886 399 c 0
 901.999023438 418.000976562 924 499 1001 499 c 0
 1049 499 1086 469 1086 405 c 0
 1086 356.098632812 1080.50488281 221.944335938 1049.69433594 122 c 0
 1013.51171875 4.6298828125 942.845703125 -99 867 -99 c 0
 818 -99 809 -79 802 -64 c 0
 794.021484375 -46.90234375 792 -19 778 -5 c 0
 765 8 717 3 695 3 c 2
 288 -5 l 2
 237.571289062 -5.69921875 168.443359375 -3.7373046875 112 -3.7373046875 c 0
 -1 -3.7373046875 -10 55.08203125 -10 96 c 0
 -10 168 11 172 47 208 c 0
 83 244 181.365234375 342.70703125 364 517 c 0
 447.380859375 596.572265625 575 750 575 840 c 0
 575 900 537 932 477 932 c 0
 400.770507812 932 316.205078125 869.801757812 245 816.423828125 c 4
 203.487304688 785.3046875 183.345703125 770 153 770 c 0
EndSplineSet
EndChar

StartChar: three
Encoding: 51 51 78
Width: 1079
Flags: HMW
LayerCount: 2
Fore
SplineSet
138 831 m 0
 83 831 49 888 49 938 c 0
 49 1007.78710938 76.1123046875 1037.83203125 136 1084.06054688 c 0
 289.9453125 1202.89550781 449.545898438 1266 693 1266 c 0
 938 1266 1021 1145 1021 1010 c 0
 1021 895 980 845 919 775 c 0
 907 761 881 736 881 729 c 0
 881 719 900.637695312 707.12890625 919 696 c 0
 1018 636 1074 553 1074 416 c 0
 1074 19 690 -173 399 -173 c 0
 118 -173 -38 -84 -38 34 c 0
 -38 82 5 138 43 138 c 0
 64 138 84.103515625 122.141601562 104 111 c 0
 154 83 243 63 323 63 c 0
 433 63 579 145 579 327 c 0
 579 434.8203125 495.41015625 466 468 466 c 0
 435.393554688 466 406 452 360 452 c 0
 310.8046875 452 281 507 281 579 c 0
 281 636 303.407226562 654.916992188 331 663 c 0
 467.216796875 702.901367188 547 783 547 866 c 0
 547 939 500 975 444 975 c 0
 368 975 303.000976562 939 237 881 c 4
 213.127929688 860.021484375 200 831 138 831 c 0
EndSplineSet
EndChar

StartChar: four
Encoding: 52 52 79
Width: 1230
Flags: HMW
LayerCount: 2
Fore
SplineSet
619 590 m 0
 624 628 622 614 630 678 c 0
 640 762 635 784 608 784 c 0
 583 784 564 758 542 736 c 2
 464 658 l 2
 446 639 410 601 407 575 c 0
 404 553 420 548 455 548 c 0
 537 548 532 548 564 548 c 0
 610 548 616 562 619 590 c 0
516 207 m 2
 132 207 l 2
 83 207 21 227 30 304 c 2
 43 406 l 2
 51 474 70 512 119 571 c 2
 603 1037 l 2
 736 1164 882 1348 1042 1348 c 0
 1130 1348 1158 1290 1149 1217 c 0
 1137 1121 1099 962 1076 772 c 2
 1056 614 l 2
 1053 588 1058 583 1074 583 c 0
 1104 583 1114 585 1136 585 c 0
 1166 585 1174 560 1171 538 c 0
 1165 486 1145 302 1143 286 c 0
 1139 250 1106 217 1070 217 c 0
 1063 217 1054 218 1048 218 c 0
 1035 218 1029 204 1027 184 c 2
 1016 96 l 10
 1011 54 1012 23 1011 11 c 0
 1009 -5 999 -15 974 -25 c 0
 939 -39 713 -32 592 -32 c 0
 558 -32 533 -22 537 10 c 0
 540 32 543 38 551 102 c 2
 559 172 l 2
 562 194 555 207 516 207 c 2
EndSplineSet
EndChar

StartChar: five
Encoding: 53 53 80
Width: 1155
Flags: HMW
LayerCount: 2
Fore
SplineSet
465 1210 m 2
 802 1228 l 2
 876.4921875 1231.97851562 895.94921875 1232.33691406 965 1241 c 0
 1026.18066406 1248.67578125 1073 1268 1105 1268 c 0
 1134 1268 1153 1249 1153 1219 c 0
 1153 1164.61523438 1135.90234375 1111.609375 1124 1076 c 0
 1110.80957031 1036.53613281 1101 993 1071 948 c 0
 1032.82617188 890.739257812 949.545898438 883.048828125 892 881 c 2
 583 870 l 2
 470.142578125 865.982421875 438.817382812 859.19140625 423 814 c 2
 409 774 l 2
 392.692382812 727.407226562 413.119140625 709.655273438 483 712 c 0
 781 722 1072 629 1072 309 c 0
 1072 19 848 -228 424 -228 c 0
 230 -228 38 -154 38 -34 c 4
 38 32 76 79 106 79 c 0
 166 79 210 14 337 14 c 0
 443 14 551 66 551 170 c 0
 551 264 505.725585938 364 247 364 c 4
 164 364 55.64453125 326.037109375 118 523 c 6
 307 1120 l 2
 325.709960938 1179.1015625 335.754882812 1203.09667969 465 1210 c 2
EndSplineSet
EndChar

StartChar: six
Encoding: 54 54 81
Width: 1143
Flags: HMW
LayerCount: 2
Fore
SplineSet
455 324 m 4
 455 245 485 190 539 190 c 4
 621 190 709 387 709 576 c 4
 709 645 689 726 627 726 c 4
 512 726 455 543 455 324 c 4
50 537 m 4
 50 901 192 1127 494 1370 c 4
 541.069335938 1407.87402344 578 1437 636 1437 c 4
 713 1437 818 1390.99902344 818 1332 c 4
 818 1293.06640625 788.322265625 1285.2578125 772 1272.78222656 c 4
 740.5390625 1248.73535156 726.956054688 1230.74902344 694 1195 c 4
 635 1131 576 1070 545 974 c 4
 541.005859375 961.629882812 537 949 537 940 c 4
 537 927 546 919 558 919 c 4
 566 919 583.486328125 927.841796875 602 935 c 4
 677 964 731 983 803 983 c 4
 995 983 1135 842 1135 603 c 4
 1135 306.071289062 935.147460938 102.749023438 733 17.7734375 c 4
 649.005859375 -17.5341796875 564.614257812 -20 494 -20 c 4
 272 -20 50 213 50 537 c 4
EndSplineSet
EndChar

StartChar: seven
Encoding: 55 55 82
Width: 1136
Flags: HMW
LayerCount: 2
Fore
SplineSet
507 1202 m 0
 551 1202 903 1203 947 1205 c 0
 990.955078125 1206.99804688 1067 1210 1105 1210 c 0
 1183 1210 1228 1166 1228 1118 c 0
 1228 1088 1190.0625 1018.71191406 1162 956 c 2
 672 -139 l 2
 640.5703125 -209.236328125 629 -240 567 -240 c 0
 482 -240 238 -169 238 -73 c 0
 238 -59.8994140625 245.55078125 -42.5703125 255.958007812 -24 c 0
 268.234375 -2.09375 285.145507812 21.2138671875 297 42 c 2
 658 675 l 2
 671.684570312 698.99609375 710 777 710 793 c 0
 710 839 634 845 602 845 c 0
 560 845 491.6015625 844.604492188 420 835 c 0
 356.04296875 826.420898438 324.346679688 801.623046875 306 751 c 0
 284.7734375 692.430664062 251.591796875 682 211 682 c 0
 165 682 123 698 123 754 c 0
 123 866 134 974 172 1064 c 0
 221.170898438 1180.45605469 299 1224 333 1224 c 0
 354.697265625 1224 363.73828125 1220.27734375 388 1214.42089844 c 0
 413.422851562 1208.28417969 450.068359375 1202 507 1202 c 0
EndSplineSet
EndChar

StartChar: eight
Encoding: 56 56 83
Width: 1129
Flags: HMW
LayerCount: 2
Fore
SplineSet
136 983 m 0
 136 1177 367 1367 696 1367 c 0
 890 1367 1124 1243 1124 1053 c 0
 1124 950 1094 877 1040 813 c 0
 1022.29199219 792.012695312 1010 779 1010 764 c 0
 1010 746 1034.36816406 722.271484375 1043 712 c 0
 1122 618 1144 572 1144 449 c 0
 1144 191 902 -25 568 -25 c 0
 506.586914062 -25 444.8046875 -18.7890625 386 -5.482421875 c 0
 186.3359375 39.6962890625 21 186.666015625 21 410 c 0
 21 552 66 630 192 727 c 0
 204.99609375 737.004882812 209 741 209 746 c 0
 209 750 199.490234375 758.893554688 182 792 c 0
 154 845 136 901 136 983 c 0
407 494 m 0
 389 472 381 433 381 399 c 0
 381 273 530 188 622 188 c 0
 684 188 754 240 754 284 c 0
 754 408 645.356445312 388.581054688 471 489 c 0
 447.262695312 502.670898438 438 509 433 509 c 0
 428 509 416.830078125 506.014648438 407 494 c 0
766 924 m 0
 769.37109375 940.763671875 772 959 772 977 c 0
 772 1085 704 1151 616 1151 c 0
 531 1151 494 1092 494 1048 c 0
 494 985 585 963 704 896 c 0
 724.060546875 884.705078125 737 875 743 875 c 4
 752 875 761.90625 903.639648438 766 924 c 0
EndSplineSet
EndChar

StartChar: nine
Encoding: 57 57 84
Width: 1162
Flags: HMW
LayerCount: 2
Fore
SplineSet
753 876 m 0
 753 955 723 1019 669 1019 c 4
 577 1019 509 771 509 582 c 0
 509 513 523 432 582 432 c 0
 697 432 753 657 753 876 c 0
1196 731 m 0
 1196 447 1014 61 772 -162 c 0
 727.571289062 -202.940429688 701 -229 660 -229 c 0
 603 -229 474 -165.999023438 474 -127 c 0
 474 -98.06640625 490.81640625 -80.5390625 504 -64.7822265625 c 0
 518.467773438 -47.4912109375 536.138671875 -25.9404296875 555.154296875 -1 c 0
 595.283203125 51.634765625 641.396484375 119.364257812 676 194 c 0
 681.467773438 205.79296875 682 216 682 225 c 0
 682 238 670 246 658 246 c 0
 650 246 632.513671875 240.158203125 614 233 c 0
 539 204 485 185 413 185 c 0
 221 185 61 336 61 575 c 0
 61 860.700195312 251.147460938 1228 782 1228 c 0
 1004 1228 1196 1075 1196 731 c 0
EndSplineSet
EndChar

StartChar: figuredash
Encoding: 8210 8210 85
Width: 1922
Flags: HMW
LayerCount: 2
Fore
SplineSet
100 486 m 4
 100 540 128 708 174 803 c 4
 188 832 211 846 242 846 c 4
 355 846 1491 841 1604 841 c 4
 1696 841 1775 857 1830 857 c 4
 1859 857 1882 842 1882 813 c 4
 1882 759 1829 612 1792 507 c 4
 1780 473 1739 461 1700 461 c 4
 1650 461 1608 474 1462 474 c 6
 337 474 l 6
 224 474 183 442 149 442 c 4
 125 442 100 458 100 486 c 4
EndSplineSet
EndChar

StartChar: slash
Encoding: 47 47 86
Width: 880
Flags: HMW
LayerCount: 2
Fore
SplineSet
282 -112 m 0
 260 -160 48 -196 16 -196 c 0
 -37 -196 -52 -172 -47 -135 c 0
 -43 -100 -8 -61 42 40 c 0
 266 485 484 936 695 1396 c 0
 717 1444 910 1480 942 1480 c 4
 995 1480 1009 1456 1004 1419 c 4
 1000 1384 986 1345 936 1244 c 4
 712 799 493 348 282 -112 c 0
EndSplineSet
EndChar

StartChar: endash
Encoding: 8211 8211 87
Width: 1142
Flags: HMW
LayerCount: 2
Fore
SplineSet
100 486 m 0
 100 540 128 708 174 803 c 0
 188 832 211 846 242 846 c 0
 355 846 711 841 824 841 c 0
 916 841 995 857 1050 857 c 0
 1079 857 1102 842 1102 813 c 0
 1102 759 1049 612 1012 507 c 0
 1000 473 959 461 920 461 c 0
 870 461 828 474 682 474 c 2
 337 474 l 2
 224 474 183 442 149 442 c 0
 125 442 100 458 100 486 c 0
EndSplineSet
EndChar

StartChar: emdash
Encoding: 8212 8212 88
Width: 1922
Flags: HMW
LayerCount: 2
Fore
SplineSet
100 486 m 0
 100 540 128 708 174 803 c 0
 188 832 211 846 242 846 c 0
 355 846 1491 841 1604 841 c 0
 1696 841 1775 857 1830 857 c 0
 1859 857 1882 842 1882 813 c 0
 1882 759 1829 612 1792 507 c 0
 1780 473 1739 461 1700 461 c 0
 1650 461 1608 474 1462 474 c 2
 337 474 l 2
 224 474 183 442 149 442 c 0
 125 442 100 458 100 486 c 0
EndSplineSet
EndChar

StartChar: uni2015
Encoding: 8213 8213 89
Width: 1922
Flags: HMW
LayerCount: 2
Fore
SplineSet
100 486 m 0
 100 540 128 708 174 803 c 0
 188 832 211 846 242 846 c 0
 355 846 1491 841 1604 841 c 0
 1696 841 1775 857 1830 857 c 0
 1859 857 1882 842 1882 813 c 0
 1882 759 1829 612 1792 507 c 0
 1780 473 1739 461 1700 461 c 0
 1650 461 1608 474 1462 474 c 2
 337 474 l 2
 224 474 183 442 149 442 c 0
 125 442 100 458 100 486 c 0
EndSplineSet
EndChar

StartChar: numbersign
Encoding: 35 35 90
Width: 1163
Flags: HMW
LayerCount: 2
Fore
SplineSet
879 1200 m 4
 946 1200 965 1165 965 1135 c 4
 965 1105 947.108398438 1077.9765625 935 1022 c 14
 707 -32 l 22
 696 -81 648 -126 586 -126 c 4
 521 -126 500 -91 500 -55 c 4
 500 -20 544.213867188 15.953125 567 120 c 14
 733 878 l 22
 761.770507812 1009.37402344 766 1094 766 1120 c 4
 766 1160 811 1200 879 1200 c 4
529 1200 m 4
 596 1200 615 1165 615 1135 c 4
 615 1105 597.108398438 1077.9765625 585 1022 c 14
 357 -32 l 22
 346 -81 298 -126 236 -126 c 4
 171 -126 150 -91 150 -55 c 4
 150 -20 194.213867188 15.953125 217 120 c 14
 383 878 l 22
 411.770507812 1009.37402344 416 1084 416 1120 c 4
 416 1160 461 1200 529 1200 c 4
121 668 m 4
 121 692 177 945 205 975 c 4
 219 990 232 998 253 998 c 4
 316 998 912 983 965 983 c 4
 1057 983 1076 999 1131 999 c 4
 1150 999 1163 982 1163 963 c 4
 1163 939 1110 688 1093 657 c 4
 1084 640 1070 631 1051 631 c 4
 1023 631 974 650 911 650 c 6
 331 650 l 6
 251 650 164 640 149 640 c 4
 135 640 121 650 121 668 c 4
61 188 m 4
 61 212 117 465 145 495 c 4
 159 510 172 518 193 518 c 4
 256 518 852 503 905 503 c 4
 997 503 1016 519 1071 519 c 4
 1090 519 1103 502 1103 483 c 4
 1103 459 1050 208 1033 177 c 4
 1024 160 1010 151 991 151 c 4
 963 151 914 170 851 170 c 6
 271 170 l 6
 191 170 104 160 89 160 c 4
 75 160 61 170 61 188 c 4
EndSplineSet
EndChar

StartChar: underscore
Encoding: 95 95 91
Width: 1024
VWidth: 2048
Flags: HMW
LayerCount: 2
Fore
SplineSet
366 -652 m 2
 40 -652 -25 -659 -101 -659 c 0
 -128 -659 -141 -656 -138 -635 c 2
 -106 -375 l 2
 -103 -354 -90 -351 -63 -351 c 0
 13 -351 76 -358 402 -358 c 2
 423 -358 l 2
 749 -358 845 -351 921 -351 c 0
 948 -351 961 -354 958 -375 c 2
 926 -635 l 2
 923 -656 910 -659 883 -659 c 0
 807 -659 713 -652 387 -652 c 2
 366 -652 l 2
EndSplineSet
EndChar

StartChar: dollar
Encoding: 36 36 92
Width: 1136
VWidth: 1920
Flags: HMW
LayerCount: 2
Fore
SplineSet
661 26 m 6
 658.311156948 3.08081398929 660 -46 660 -58 c 4
 660 -127 610 -125 556 -125 c 4
 508 -125 458 -129 438 -129 c 4
 398 -129 382 -107 382 -86 c 4
 382 -54 400.05389984 -46.8969838676 413 72 c 6
 538 1220 l 6
 542.544110095 1261.73310712 544 1313 544 1335 c 4
 544 1391 626 1397 687 1397 c 4
 781 1397 817 1392 817 1340 c 4
 817 1328 810.793856004 1302.81429641 808 1279 c 6
 661 26 l 6
277 340 m 0
 292 306 319 275 350 253 c 0
 386 228 427 206 474 206 c 256
 582 206 633 250 633 281 c 256
 633 347 613 373 428 472 c 0
 284 549 159 673 159 848 c 256
 159 1076 427 1265 674 1265 c 256
 848 1265 1032 1210 1094 1158 c 0
 1128 1129 1135 1086 1135 1059 c 0
 1135 977 1057 881 989 881 c 0
 972 881 953 889 938 902 c 0
 913 924 895 949 876 969 c 0
 869 976 862 983 855 989 c 0
 822 1016 776 1037 719 1037 c 256
 652 1037 607 1004 607 954 c 256
 607 876 693 850 833 779 c 0
 1023 682 1104 597 1104 418 c 256
 1104 197 854 -15 584 -15 c 256
 437 -15 243 19 131 92 c 0
 85 122 47 151 47 237 c 0
 47 378 134 435 177 435 c 0
 217 435 252 395 277 340 c 0
EndSplineSet
EndChar

StartChar: at
Encoding: 64 64 93
Width: 1538
VWidth: 1920
Flags: HMW
LayerCount: 2
Fore
SplineSet
90 412 m 0
 90 944 556 1187 909 1187 c 0
 1284 1187 1468 944 1468 662 c 0
 1468 382 1264 137 976 137 c 0
 904 137 863 153 854 210 c 0
 852.440374265 219.877629653 850.059117478 233.229700764 847 254 c 0
 845.387367227 264.949192208 839 270 829 270 c 0
 816 270 802.726414984 256.372816094 794 247 c 0
 740 189 686 144 589 144 c 0
 475 144 420 237 420 355 c 0
 420 612 617 869 809 869 c 0
 855 869 895.712912119 846.191391921 926 826 c 0
 932 822 940 818 953 818 c 0
 964.512695312 818 977.086914062 820.2734375 998 832.805664062 c 0
 1015.5703125 843.333984375 1027.31277484 850.933285158 1040 857.16245152 c 0
 1066.12554756 869.989557527 1090.34387585 876 1133 876 c 0
 1159 876 1170 859 1170 838 c 0
 1170 816 1166 780 1159 727 c 0
 1144 610 1126 506 1126 406 c 0
 1126 376 1139 360 1160 360 c 0
 1219 360 1298 495 1298 652 c 0
 1298 884 1168 1044 918 1044 c 4
 637 1044 269 767 269 402 c 4
 269 106 483 -72 752 -72 c 0
 942 -72 1074 0 1169 82 c 0
 1178 90 1191 98 1204 98 c 0
 1234 98 1290 33 1290 10 c 0
 1290 -10 1273 -23 1260 -34 c 0
 1157 -119 988 -221 751 -221 c 0
 412 -221 90 8 90 412 c 0
875 718 m 0
 817 718 719 529 719 423 c 0
 719 393 731 361 754 361 c 0
 805 361 905 549 905 678 c 0
 905 701 894 718 875 718 c 0
EndSplineSet
EndChar

StartChar: braceleft
Encoding: 123 123 95
Width: 857
Flags: HMW
LayerCount: 2
Fore
SplineSet
366 589 m 0
 356 508 425 439 453 293 c 0
 466 223 469 136 456 32 c 0
 449 -26 453 -48 476 -61 c 0
 501 -75 527 -76 555 -76 c 0
 593 -76 634 -75 669 -75 c 0
 719 -75 756 -91 747 -164 c 0
 739 -233 718 -255 676 -274 c 0
 597 -310 488 -326 351 -326 c 0
 264 -326 174 -322 128 -313 c 0
 81 -304 59 -283 64 -244 c 0
 69 -205 132 102 149 321 c 0
 155 400 88 475 102 589 c 0
 116 703 202 778 215 857 c 0
 252 1076 264 1383 269 1422 c 0
 274 1461 300 1482 349 1491 c 0
 398 1500 489 1504 576 1504 c 0
 713 1504 817 1488 888 1452 c 0
 925 1433 940 1411 932 1342 c 0
 923 1269 882 1253 832 1253 c 0
 797 1253 756 1254 718 1254 c 0
 690 1254 664 1253 635 1239 c 0
 609 1226 600 1204 593 1146 c 0
 580 1042 557 955 526 885 c 0
 462 739 376 670 366 589 c 0
EndSplineSet
EndChar

StartChar: bar
Encoding: 124 124 96
Width: 488
VWidth: 1920
Flags: HMW
LayerCount: 2
Fore
SplineSet
441 246 m 6
 441 -80 458 -244 458 -320 c 4
 458 -347 455 -360 434 -360 c 6
 134 -360 l 6
 113 -360 110 -347 110 -320 c 4
 110 -244 127 -80 127 246 c 6
 127 763 l 6
 127 1089 110 1284 110 1360 c 4
 110 1387 113 1400 134 1400 c 6
 434 1400 l 6
 455 1400 458 1387 458 1360 c 4
 458 1284 441 1089 441 763 c 6
 441 246 l 6
EndSplineSet
EndChar

StartChar: braceright
Encoding: 125 125 97
Width: 857
Flags: HMW
LayerCount: 2
Fore
SplineSet
555 589 m 4
 565 670 497 739 469 885 c 4
 456 955 453 1042 466 1146 c 4
 473 1204 469 1226 446 1239 c 4
 421 1253 395 1254 367 1254 c 4
 329 1254 288 1253 253 1253 c 4
 203 1253 166 1269 175 1342 c 4
 183 1411 203 1433 245 1452 c 4
 324 1488 434 1504 571 1504 c 4
 658 1504 748 1500 794 1491 c 4
 841 1482 863 1461 858 1422 c 4
 853 1383 789 1076 772 857 c 4
 766 778 833 703 819 589 c 4
 805 475 719 400 706 321 c 4
 669 102 658 -205 653 -244 c 4
 648 -283 622 -304 573 -313 c 4
 524 -322 433 -326 346 -326 c 4
 209 -326 104 -310 33 -274 c 4
 -4 -255 -18 -233 -10 -164 c 4
 -1 -91 40 -75 90 -75 c 4
 125 -75 166 -76 204 -76 c 4
 232 -76 258 -75 287 -61 c 4
 313 -48 322 -26 329 32 c 4
 342 136 365 223 396 293 c 4
 460 439 545 508 555 589 c 4
EndSplineSet
EndChar

StartChar: bracketleft
Encoding: 91 91 98
Width: 930
Flags: HMW
LayerCount: 2
Fore
SplineSet
212 837 m 6
 225.127333067 985.369392342 289.753838009 1313.35380272 297 1352 c 4
 306 1400 329 1432 378 1441 c 4
 427 1450 545 1484 732 1484 c 4
 789 1484 824 1488 847 1474 c 4
 870.6875 1459.58105469 883.777484348 1431.24624969 880 1387 c 4
 876.346881022 1344.21046083 851.295898438 1320.20019531 793 1306 c 4
 715 1287 681 1281 642 1271 c 4
 614.431343066 1263.93111361 599 1243 581 1186 c 4
 563.17210744 1129.54500689 539 1053 456 795 c 4
 433.175453949 724.05141107 433.175453949 724.05141107 435 579 c 4
 439 261 449 58 451 1 c 4
 453 -56 468 -73 493 -82 c 4
 528 -95 689 -141 787 -141 c 4
 847 -141 886.766601562 -179.250976562 878 -247 c 4
 872.236328125 -291.540039062 842.030340704 -300.656553099 814 -310 c 4
 778 -322 671 -326 574 -326 c 4
 397 -326 242.08047987 -271.625554875 198 -253 c 4
 127 -223 121 -194 124 -124 c 4
 125.68356343 -84.7168533061 157.550795018 221.597357642 169 351 c 6
 212 837 l 6
EndSplineSet
EndChar

StartChar: bracketright
Encoding: 93 93 99
Width: 930
Flags: HMW
LayerCount: 2
Fore
SplineSet
825 333 m 6
 807.357421875 185.169921875 752.24609375 -158.353515625 745 -197 c 4
 736 -245 713 -277 664 -286 c 4
 615 -295 487 -323 300 -323 c 4
 243 -323 208 -318 185 -304 c 4
 161.3125 -289.581054688 148.22265625 -261.24609375 152 -217 c 4
 155.653320312 -174.2109375 180.704101562 -150.200195312 239 -136 c 4
 317 -117 371 -114 410 -104 c 4
 437.568359375 -96.9306640625 453 -76 471 -19 c 4
 488.828125 37.455078125 553 347 626 605 c 4
 646.291015625 676.713867188 652.5546875 676.66796875 638 821 c 4
 614 1059 603 1126 601 1183 c 4
 599 1240 584 1257 559 1266 c 4
 524 1279 343 1311 245 1311 c 4
 185 1311 145.233398438 1349.25097656 154 1417 c 4
 159.763671875 1461.54003906 189.969726562 1470.65625 218 1480 c 4
 254 1492 361 1496 458 1496 c 4
 635 1496 781.919921875 1453.62597656 826 1435 c 4
 897 1405 903 1376 900 1306 c 4
 898.31640625 1266.71679688 898.38671875 947.932617188 883 819 c 6
 825 333 l 6
EndSplineSet
EndChar

StartChar: parenleft
Encoding: 40 40 100
Width: 1028
Flags: HMW
LayerCount: 2
Fore
SplineSet
160 744 m 4
 194.435546875 980.74609375 335.444335938 1158.54101562 501.650390625 1320 c 4
 636.052734375 1450.56347656 806.135742188 1527 949 1527 c 4
 979.908203125 1527 1006.11425781 1522.71679688 1026 1512.94433594 c 4
 1052.6953125 1499.82519531 1068 1476.81542969 1068 1441 c 4
 1068 1395.62890625 1043.71972656 1359.1328125 981 1351.18652344 c 4
 969.340820312 1349.70898438 956.375 1349 942 1349 c 4
 898.747070312 1349 823.115234375 1336.28027344 761.174804688 1219 c 4
 690.930664062 1085.99707031 634.03515625 914.509765625 604 724 c 4
 569 502 554.05078125 254.817382812 610.681640625 69 c 4
 644.436523438 -41.7587890625 714.666992188 -88 827 -88 c 4
 894 -88 939 -59 994 -59 c 4
 1034 -59 1050 -92 1050 -125 c 4
 1050 -186 1011.9453125 -216.024414062 958 -240 c 4
 895 -268 853 -286 695 -286 c 4
 479.459960938 -286 324.04296875 -173.20703125 233.500976562 13 c 4
 143.83203125 197.411132812 117.79296875 453.827148438 160 744 c 4
EndSplineSet
EndChar

StartChar: parenright
Encoding: 41 41 101
Width: 1034
Flags: HMW
LayerCount: 2
Fore
SplineSet
967.245117188 498 m 4
 932.809570312 271.25390625 835.133789062 81.9931640625 676.594726562 -78 c 0
 526.03515625 -229.940429688 422.109375 -277 249.245117188 -277 c 0
 198.3359375 -277 150.245117188 -264 122.245117188 -250.944335938 c 0
 71.2333984375 -227.159179688 50.2451171875 -204.815429688 50.2451171875 -169 c 0
 50.2451171875 -123.62890625 66.2451171875 -84.1865234375 117.245117188 -84.1865234375 c 0
 148.997070312 -84.1865234375 175.870117188 -91 190.245117188 -91 c 0
 233.498046875 -91 334.129882812 -74.2802734375 396.0703125 43 c 0
 466.314453125 176.002929688 494.209960938 327.490234375 524.245117188 518 c 0
 559.245117188 740 561.194335938 987.182617188 511.563476562 1173 c 0
 481.684570312 1284.86621094 433.578125 1360 321.245117188 1360 c 0
 254.245117188 1360 179.245117188 1341 124.245117188 1341 c 0
 84.2451171875 1341 68.2451171875 1374 68.2451171875 1407 c 0
 68.2451171875 1468 103.725585938 1484.95410156 160.245117188 1502 c 0
 223.245117188 1521 296.245117188 1528 424.245117188 1528 c 0
 639.78515625 1528 784.202148438 1405.20703125 874.744140625 1219 c 0
 964.413085938 1034.58886719 1011.27246094 787.90234375 967.245117188 498 c 4
EndSplineSet
EndChar

StartChar: backslash
Encoding: 92 92 102
Width: 884
Flags: HMW
LayerCount: 2
Fore
SplineSet
493 -112 m 0
 395 348 288 799 173 1244 c 0
 147 1345 134 1385 147 1419 c 0
 162 1456 312 1480 365 1480 c 0
 417 1480 439 1444 450 1396 c 0
 548 936 656 485 771 40 c 4
 797 -61 829 -101 816 -135 c 4
 801 -172 652 -196 599 -196 c 0
 547 -196 504 -160 493 -112 c 0
EndSplineSet
EndChar

StartChar: asterisk
Encoding: 42 42 103
Width: 1459
VWidth: 1920
Flags: HMW
LayerCount: 2
Fore
SplineSet
855 866 m 4
 886 866 926 885 991 902 c 4
 1043 915 1113 948 1233 948 c 4
 1358 948 1454 851 1454 717 c 4
 1454 625 1396 573 1331 573 c 4
 1172 573 1034 678 958 722 c 4
 916.954101562 745.653320312 882.92578125 764.951171875 856 780.861328125 c 4
 840.481445312 790.030273438 840.481445312 790.030273438 848 777 c 4
 863 750 899 725 946 677 c 4
 984 638 1048 595 1108 491 c 4
 1171 383 1134 251 1018 184 c 4
 938 138 863 162 831 218 c 4
 751 356 775 528 775 616 c 4
 775 664.879882812 774.483398438 705.104492188 774.610351562 737 c 4
 774.671875 752.296875 774.671875 752.296875 767 739 c 4
 751 712 748 669 730 604 c 4
 715 552 709 475 649 371 c 4
 587 263 455 228 339 295 c 4
 259 341 243 418 275 474 c 4
 355 612 515 678 591 722 c 4
 632.490234375 745.909179688 666.5625 765.986328125 694 781.53515625 c 4
 708.936523438 790 708.936523438 790 694 790 c 4
 663 790 623 771 558 754 c 4
 506 741 436 708 316 708 c 4
 191 708 95 805 95 939 c 4
 95 1031 153 1083 218 1083 c 4
 377 1083 515 978 591 934 c 4
 632.555664062 910.052734375 666.91796875 890.5703125 694 874.547851562 c 4
 708.528320312 865.952148438 708.528320312 865.952148438 701 879 c 4
 686 906 650 931 603 979 c 4
 565 1018 501 1061 441 1165 c 4
 378 1273 415 1405 531 1472 c 4
 611 1518 686 1494 718 1438 c 4
 798 1300 774 1128 774 1040 c 4
 774 991.120117188 774.516601562 950.895507812 774.389648438 919 c 4
 774.328125 903.703125 774.328125 903.703125 782 917 c 4
 798 944 801 987 819 1052 c 4
 834 1104 840 1181 900 1285 c 4
 962 1393 1094 1428 1210 1361 c 4
 1290 1315 1306 1238 1274 1182 c 4
 1194 1044 1034 978 958 934 c 4
 916.509765625 910.090820312 882.4375 890.013671875 855 874.46484375 c 4
 840.063476562 866 840.063476562 866 855 866 c 4
EndSplineSet
EndChar

StartChar: plus
Encoding: 43 43 104
Width: 1222
Flags: HMW
LayerCount: 2
Fore
SplineSet
767 456 m 2
 767 280 794 166 794 90 c 0
 794 63 791 50 770 50 c 2
 450 50 l 2
 429 50 426 63 426 90 c 0
 426 166 453 280 453 456 c 2
 453 533 l 2
 453 709 426 854 426 930 c 0
 426 957 429 970 450 970 c 2
 770 970 l 2
 791 970 794 957 794 930 c 0
 794 854 767 709 767 533 c 2
 767 456 l 2
102 338 m 0
 102 442 142 604 189 675 c 0
 200.325826452 692.109227194 223 698 244 698 c 0
 307 698 872 683 925 683 c 0
 1017 683 1036 699 1091 699 c 0
 1110 699 1123 682 1123 663 c 0
 1123 639 1080 440 1027 337 c 0
 1018.19898345 319.89613764 994 301 975 301 c 0
 947 301 898 320 835 320 c 2
 340 320 l 2
 230 320 178 290 143 290 c 0
 119 290 102 300 102 338 c 0
EndSplineSet
EndChar

StartChar: uni2768
Encoding: 10088 10088 105
Width: 2954
Flags: HMW
LayerCount: 2
Fore
SplineSet
433 -241 m 0
 277 -241 100 -162 100 45 c 0
 100 262 322 423 667 489 c 0
 715 498 768 508 825 519 c 1
 680 565 529 685 529 856 c 0
 529 1081 727 1215 971 1250 c 1
 905 1297 857 1357 857 1435 c 0
 857 1568 968 1643 1097 1643 c 0
 1196 1643 1264 1584 1264 1544 c 0
 1264 1504 1234 1478 1189 1478 c 0
 1153 1478 1139 1518 1089 1518 c 0
 1049 1518 1002 1479 1002 1415 c 0
 1002 1343 1073 1291 1140 1259 c 1
 1371 1251 1585 1152 1739 1031 c 1
 1768 1063 1795 1094 1819 1122 c 0
 1951 1278 2170 1437 2374 1437 c 0
 2508 1437 2640 1368 2714 1309 c 1
 2714 1511 l 2
 2714 1545.69871855 2770.90164932 1548 2786 1548 c 0
 2796.29111218 1548 2854 1546.46353978 2854 1512 c 2
 2854 43 l 2
 2854 12.3080414971 2803.99965783 2 2780 2 c 0
 2760 2 2714 12.2333984375 2714 38 c 2
 2714 447 l 1
 2671 340 2566 152 2326 152 c 0
 2065 152 1752 447 1533 686 c 1
 1432 589 1234 454 682 363 c 0
 403 317 235 178 235 34 c 0
 235 -50 307 -131 442 -131 c 0
 577 -131 640 -39 642 37 c 0
 643 74 665 119 705 119 c 0
 745 119 770 88 770 22 c 0
 770 -104 639 -241 433 -241 c 0
1827 953 m 1
 2037 764 2244 622 2450 622 c 0
 2588 622 2670 699 2714 760 c 1
 2714 1122 l 1
 2628 1264 2510 1290 2368 1290 c 0
 2215 1290 2062 1191 1939 1065 c 0
 1909 1035 1871 996 1827 953 c 1
1164 600 m 0
 1218 617 1267 635 1306 654 c 0
 1352 677 1407 716 1463 763 c 1
 1263 973 1098 1056 930 1056 c 0
 770 1056 642 988 642 830 c 0
 642 692 800 580 1000 580 c 0
 1079 580 1129 589 1164 600 c 0
EndSplineSet
EndChar

StartChar: uni2698
Encoding: 9880 9880 107
Width: 1981
Flags: HMW
LayerCount: 2
Fore
SplineSet
202 -146 m 0
 150 -146 100 -100 100 -14 c 0
 100 72 172 138 268 138 c 0
 334 138 374 126 454 91 c 0
 648 6 875 -85 1073 -85 c 0
 1170 -85 1306 -11 1306 81 c 0
 1306 177 1271 215 1244 215 c 0
 1214 215 1163 44 1044 44 c 0
 854 44 716 167 565 192 c 0
 463 209 279 248 279 417 c 0
 279 548 350 546 350 585 c 0
 350 624 113 618 113 858 c 0
 113 1018 148 1043 205 1130 c 0
 262 1217 295 1275 337 1365 c 0
 379 1455 483 1509 564 1509 c 0
 669 1509 691 1412 728 1412 c 0
 765 1412 761 1584 1006 1584 c 0
 1201 1584 1230 1489 1365 1464 c 0
 1505 1438 1600 1345 1600 1240 c 0
 1600 1165 1584 1157 1584 1124 c 0
 1584 1099 1657 1092 1726 1047 c 0
 1795 1002 1873 891 1873 790 c 0
 1873 689 1814 635 1747 558 c 0
 1689 491 1706 378 1646 291 c 0
 1602 227 1558 204 1518 204 c 0
 1481 204 1457 205 1428 205 c 0
 1410 205 1398 202 1398 194 c 0
 1398 173 1427 154 1427 95 c 0
 1427 5.0966796875 1392 -9.740234375 1392 -42 c 0
 1392 -54 1399 -63 1417 -63 c 0
 1423 -63 1431 -61 1441 -59 c 0
 1596 -20 1674 57 1750 142 c 0
 1774 170 1794 189 1822 189 c 0
 1850 189 1881 171 1881 123 c 0
 1881 95 1868 60 1830 26 c 0
 1695 -94 1520 -212 1162 -212 c 0
 854 -212 613 -102 363 -7 c 0
 331 5 312 10 288 10 c 0
 254 10 248 0 248 -20 c 0
 248 -40 268 -52 268 -84 c 0
 268 -116 254 -146 202 -146 c 0
846 978 m 0
 770 978 738 1089 707 1180 c 0
 676 1271 644 1342 551 1342 c 0
 438 1342 410 1203 351 1129 c 0
 292 1055 259 977 259 879 c 0
 259 781 331 731 441 731 c 0
 561 731 633 792 707 792 c 0
 761 792 804 766 804 716 c 0
 804 666 787 607 697 604 c 0
 587 600 447 573 447 443 c 0
 447 313 624 340 684 312 c 0
 788 263 914 170 984 170 c 0
 1044 170 1119 226 1119 319 c 0
 1119 432 1013 575 1013 631 c 0
 1013 667 1037 697 1086 697 c 0
 1165 697 1192 672 1208 611 c 0
 1218 572 1226 532 1259 477 c 0
 1294 418 1352 341 1434 341 c 0
 1546 341 1573 442 1584 493 c 0
 1595 545 1623 614 1671 688 c 0
 1700 733 1722 764 1722 803 c 0
 1722 842 1692 876 1658 908 c 0
 1624 940 1578 969 1537 969 c 0
 1496 969 1469 941 1419 908 c 0
 1376 880 1305 835 1252 835 c 0
 1211 835 1181 865 1181 904 c 0
 1181 963 1264 996 1343 1034 c 0
 1422 1072 1471 1098 1471 1193 c 0
 1471 1288 1331 1317 1233 1366 c 0
 1135 1415 1106 1452 1002 1452 c 0
 898 1452 858 1382 858 1319 c 0
 858 1256 878 1206 917 1165 c 0
 946 1134 964 1117 964 1066 c 0
 964 1015 912 978 846 978 c 0
EndSplineSet
EndChar

StartChar: uni2769
Encoding: 10089 10089 108
Width: 2954
Flags: HMW
LayerCount: 2
Fore
SplineSet
2521 -241 m 0
 2315 -241 2184 -104 2184 22 c 0
 2184 88 2209 119 2249 119 c 0
 2289 119 2311 74 2312 37 c 0
 2314 -39 2377 -131 2512 -131 c 0
 2647 -131 2719 -50 2719 34 c 0
 2719 178 2551 317 2272 363 c 0
 1720 454 1522 589 1421 686 c 1
 1202 447 889 152 628 152 c 0
 388 152 283 340 240 447 c 1
 240 38 l 2
 240 12.2333984375 194 2 174 2 c 0
 150 2 100 12.3076171875 100 43 c 2
 100 1512 l 2
 100 1546.46386719 157.708984375 1548 168 1548 c 0
 183.098632812 1548 240 1545.69824219 240 1511 c 2
 240 1309 l 1
 314 1368 446 1437 580 1437 c 0
 784 1437 1003 1278 1135 1122 c 0
 1159 1094 1186 1063 1215 1031 c 1
 1369 1152 1583 1251 1814 1259 c 1
 1881 1291 1952 1343 1952 1415 c 0
 1952 1479 1905 1518 1865 1518 c 0
 1815 1518 1801 1478 1765 1478 c 0
 1720 1478 1690 1504 1690 1544 c 0
 1690 1584 1758 1643 1857 1643 c 0
 1986 1643 2097 1568 2097 1435 c 0
 2097 1357 2049 1297 1983 1250 c 1
 2227 1215 2425 1081 2425 856 c 0
 2425 685 2274 565 2129 519 c 1
 2186 508 2239 498 2287 489 c 0
 2632 423 2854 262 2854 45 c 0
 2854 -162 2677 -241 2521 -241 c 0
1127 953 m 1
 1083 996 1045 1035 1015 1065 c 0
 892 1191 739 1290 586 1290 c 0
 444 1290 326 1264 240 1122 c 1
 240 760 l 1
 284 699 366 622 504 622 c 0
 710 622 917 764 1127 953 c 1
1790 600 m 0
 1825 589 1875 580 1954 580 c 0
 2154 580 2312 692 2312 830 c 0
 2312 988 2184 1056 2024 1056 c 0
 1856 1056 1691 973 1491 763 c 1
 1547 716 1602 677 1648 654 c 0
 1687 635 1736 617 1790 600 c 0
EndSplineSet
EndChar

StartChar: uni2767
Encoding: 10087 10087 109
Width: 2933
Flags: HMW
LayerCount: 2
Fore
SplineSet
353 505 m 0
 213 505 100 618 100 773 c 0
 100 958 244 1079 439 1079 c 0
 540 1079 625 1050 723 982 c 1
 719 1013 716 1049 716 1086 c 0
 716 1252 864 1414 1122 1414 c 0
 1450 1414 1565 1122 1791 872 c 0
 2000 641 2175 448 2381 448 c 0
 2587 448 2721 616 2721 794 c 0
 2721 972 2583 1070 2457 1070 c 0
 2341 1070 2285 1020 2257 950 c 0
 2248 928 2247 904 2207 904 c 0
 2177 904 2158 913 2158 949 c 0
 2158 1045 2293 1166 2459 1166 c 0
 2695 1166 2833 1006 2833 802 c 0
 2833 618 2688 357 2448 330 c 1
 2397.47460938 127.8984375 2231.04589844 -65 1891 -65 c 4
 1531 -65 1329 80 1192 227 c 2
 694 761 l 2
 573 890 466 947 366 947 c 0
 266 947 196 867 196 771 c 0
 196 665 253 581 351 581 c 0
 392 581 403 560 403 539 c 0
 403 518 383 505 353 505 c 0
884 848 m 1
 910 824 937 797 966 768 c 2
 1451 284 l 2
 1570 167 1724 66 1933 66 c 0
 2079.59730552 66 2280.09960938 97.298828125 2354 319 c 1
 2098 331 1857.46355404 486.984141678 1681 698 c 2
 1395 1040 l 2
 1275.0025961 1183.49339907 1157 1278 1017 1278 c 0
 897 1278 815 1158 815 1064 c 0
 815 1002 841 924 884 848 c 1
EndSplineSet
EndChar

StartChar: bullet
Encoding: 8226 8226 110
Width: 655
Flags: HMW
LayerCount: 2
Fore
SplineSet
86.9794921875 840 m 0
 126.9921875 897.436523438 209.979492188 916 289.979492188 872 c 0
 389.270507812 817.389648438 485.979492188 868 528.979492188 835 c 0
 655.950280975 737.557587584 551.126891008 501.780463313 386.000007348 396.735672522 c 0
 307.537490185 346.822063559 245.402996355 353.503028991 208.979492188 376 c 0
 106.979492188 439 186.53125 499.456054688 188.659179688 574.732421875 c 0
 190.36328125 635.020507812 167.734375 653.704101562 104.979492188 706 c 0
 74.9794921875 731 52.6826171875 790.768554688 86.9794921875 840 c 0
EndSplineSet
EndChar

StartChar: equal
Encoding: 61 61 111
Width: 1124
Flags: HMW
LayerCount: 2
Fore
SplineSet
581 168 m 6
 355 168 266 161 190 161 c 4
 153 161 130 174 130 205 c 6
 130 425 l 6
 130 456 153 469 190 469 c 4
 266 469 355 462 581 462 c 6
 602 462 l 6
 828 462 918 469 994 469 c 4
 1031 469 1054 456 1054 425 c 6
 1054 205 l 6
 1054 174 1031 161 994 161 c 4
 918 161 828 168 602 168 c 6
 581 168 l 6
581 558 m 6
 355 558 266 551 190 551 c 4
 153 551 130 564 130 595 c 6
 130 815 l 6
 130 846 153 859 190 859 c 4
 266 859 355 852 581 852 c 6
 602 852 l 6
 828 852 918 859 994 859 c 4
 1031 859 1054 846 1054 815 c 6
 1054 595 l 6
 1054 564 1031 551 994 551 c 4
 918 551 828 558 602 558 c 6
 581 558 l 6
EndSplineSet
EndChar

StartChar: A.swsh
Encoding: 1114112 -1 112
Width: 2256
VWidth: 1920
Flags: HMW
LayerCount: 2
Fore
SplineSet
619 248 m 0
 1261 248 1162 1437 2054 1437 c 0
 2137 1437 2195 1391 2195 1298 c 0
 2195 1173 2157.52148438 1073.21289062 2140 898 c 2
 2113 628 l 2
 2090.35644531 401.564453125 2082 338 2084 282 c 0
 2084.79296875 259.784179688 2102.01757812 239.995117188 2120 229.272460938 c 0
 2152.97460938 209.612304688 2177.11914062 201.3203125 2199 179.592773438 c 0
 2214.33496094 164.365234375 2230 146.909179688 2230 109 c 0
 2230 68.0107421875 2202.83203125 6.7646484375 2108 -17.451171875 c 0
 2048.24804688 -32.708984375 1931.95507812 -41 1842 -41 c 0
 1692.84570312 -41 1572.77441406 -38.98046875 1486 -14.0810546875 c 0
 1418.99609375 5.1455078125 1387 45.224609375 1387 95 c 0
 1387 123.697265625 1400.28613281 155.9765625 1421 170.517578125 c 0
 1443.45410156 186.280273438 1470.05273438 192.051757812 1498 201.28125 c 0
 1517.13378906 207.599609375 1535.59765625 222.303710938 1544 239 c 0
 1555.86816406 262.583007812 1564 278 1564 301 c 0
 1564 329.017578125 1549.79003906 350.59765625 1520 356 c 0
 1485.28808594 362.294921875 1427 366 1398 366 c 0
 1347 366 1335.00976562 362.901367188 1276 357 c 0
 1236 353 1246.24609375 346.596679688 1220 316 c 4
 1033 98 862 -56 532 -56 c 4
 250 -56 50 111 50 428 c 0
 50 775 355 949 585 949 c 0
 761 949 864 831 864 674 c 0
 864 567 771 458 655 458 c 0
 450 458 530 631 388 631 c 0
 344 631 262 599 262 498 c 0
 262 310 402 248 619 248 c 0
1646 754 m 2
 1668 861 l 2
 1675.92382812 907.354492188 1688 946 1688 974 c 0
 1688 991.640625 1671.99707031 1000 1636 1000 c 0
 1557 1000 1492 845 1430 727 c 0
 1413.37890625 695.365234375 1406.76757812 640.967773438 1433 639 c 0
 1455.43457031 637.317382812 1473.39160156 636.325195312 1493 635.75 c 0
 1513.73632812 635.141601562 1536.3203125 635 1568 635 c 0
 1626 635 1636.08300781 695.985351562 1646 754 c 2
EndSplineSet
EndChar

StartChar: B.swsh
Encoding: 1114113 -1 113
Width: 2146
VWidth: 1920
Flags: HMW
LayerCount: 2
Fore
SplineSet
1097 -18 m 0
 1011 -18 854 -30 759 -30 c 0
 666 -30 599 6 599 81 c 0
 599 144 636 208 718 223 c 0
 754.075195312 229.599609375 767.921875 235.267578125 776 292 c 2
 862 896 l 2
 872.22265625 967.797851562 880 1071 880 1115 c 0
 880 1155.19921875 857 1188 769 1188 c 0
 582 1188 341 995 341 857 c 0
 341 806 374 780 418 780 c 0
 450 780 460 787 495 787 c 0
 581 787 671 718 671 591 c 0
 671 454 540 337 384 337 c 0
 194 337 50 468 50 735 c 0
 50 1142 447 1410 822 1410 c 0
 890 1410 1010 1413 1112 1413 c 0
 1264 1413 1403 1440 1562 1440 c 0
 1859 1440 2083 1358 2083 1098 c 0
 2083 1002 1994 893 1928 833 c 0
 1895 803 1885 788 1885 776 c 0
 1885 763 1911 748 1947 731 c 0
 2094 663 2130 567 2130 428 c 0
 2130 159 1893 -27 1562 -27 c 0
 1443 -27 1211 -18 1097 -18 c 0
1391 849 m 0
 1517 849 1548 922 1563 1042 c 0
 1580 1182 1519 1206 1437 1206 c 0
 1386 1206 1387 1185 1378 1129 c 0
 1371 1085 1368 1052 1363 1014 c 0
 1358 971 1352 914 1350 890 c 0
 1348 856 1362 849 1391 849 c 0
1383 208 m 0
 1487 208 1537 287 1551 397 c 0
 1566 517 1533 614 1444 621 c 0
 1427 622 1415 623 1398 623 c 0
 1355 623 1336 613 1331 572 c 0
 1325 527 1317 462 1313 415 c 0
 1308.3828125 360.744140625 1309 298 1312 268 c 0
 1316 231 1325 208 1383 208 c 0
EndSplineSet
EndChar

StartChar: D.swsh
Encoding: 1114114 -1 114
Width: 2352
VWidth: 1920
Flags: HMW
LayerCount: 2
Fore
SplineSet
1392 -29 m 0
 1244 -29 1099 -23 998 -23 c 0
 932 -23 887 -34 792 -34 c 0
 699 -34 632 15 632 91 c 0
 632 141.265625 656 173 687 194 c 0
 715.198242188 213.1015625 760 215 785 234 c 0
 810 252 818 278 824 302 c 0
 840 363 869 464 893 660 c 2
 923 900 l 2
 944 1067 952 1098 920 1135 c 0
 897 1161 886 1168 788 1168 c 0
 601 1168 373 1014 373 866 c 0
 373 814.384765625 403 779 447 779 c 0
 489 779 510 786 545 786 c 0
 631 786 704 708.145507812 704 590 c 0
 704 431 574 326 418 326 c 0
 268 326 50 474.826171875 50 704 c 0
 50 1212 583 1409 878 1409 c 0
 946 1409 1192 1417 1294 1417 c 0
 1421 1417 1525 1429 1728 1429 c 0
 2175 1429 2353 1146 2353 797 c 0
 2353 458.9609375 2212 184 1911 46 c 0
 1759 -24 1602 -29 1392 -29 c 0
1502 249 m 0
 1568 249 1613 285 1657 324 c 0
 1757 413 1769 741.245117188 1769 837 c 0
 1769 1040 1737 1169 1557 1169 c 0
 1514 1169 1497 1167 1484 1158 c 0
 1465 1145 1457 1105 1452 1068 c 0
 1438 971 1440.71972656 889.456054688 1431 778 c 0
 1416 606 1419 561 1401 355 c 0
 1396 301 1398 287 1410 269 c 0
 1421 252 1458 249 1502 249 c 0
EndSplineSet
EndChar

StartChar: E.swsh
Encoding: 1114115 -1 115
Width: 2135
VWidth: 1920
Flags: HMW
LayerCount: 2
Fore
SplineSet
1042 -23 m 0
 956 -23 854 -18 769 -18 c 0
 679 -18 643 48 643 101 c 0
 643 150.366210938 683 189 729 199 c 0
 762 206 783 222 799 250 c 0
 814 276 851 335 867 428 c 0
 896 592 901 672 916 800 c 0
 938.520507812 992.178710938 939 1064 939 1130 c 0
 939 1170 916 1205 838 1205 c 0
 651 1205 372 1012 372 877 c 0
 372 826 414 780 452 780 c 0
 482 780 503 792 538 792 c 0
 624 792 690 739 690 611 c 0
 690 480 567 377 411 377 c 0
 221 377 50 508 50 755 c 0
 50 1143 589 1440 887 1440 c 0
 955 1440 1234 1430 1296 1430 c 4
 1418 1430 1552 1430 1671 1430 c 0
 1814 1430 1875 1436 1952 1436 c 0
 2045 1436 2139 1319 2139 1148 c 0
 2139 1052 2075 984 2007 984 c 0
 1957 984 1906 1017 1876 1087 c 0
 1853 1140 1820 1168 1749 1186 c 0
 1700 1199 1657 1200 1595 1200 c 0
 1500 1200 1462 1171 1450 1143 c 0
 1438 1115 1419 1001 1414 928 c 0
 1411 881 1409 863 1436 855 c 0
 1464 847 1484 847 1519 847 c 0
 1543 847 1568 858 1574 885 c 0
 1583 925 1587 946 1595 971 c 0
 1606 1004 1632 1039 1668 1039 c 0
 1725 1039 1800 1002 1800 816 c 0
 1800 567 1702 411 1618 411 c 0
 1569 411 1535 469 1535 537 c 0
 1535 583 1514 611 1474 611 c 0
 1427 611 1402.57128906 597.7421875 1395 572 c 0
 1390 555 1378.3046875 481.15234375 1376 446 c 0
 1372 385 1370.22363281 360.892578125 1377 315 c 0
 1381.84863281 282.162109375 1420.44921875 255.874023438 1445 249 c 0
 1470 242 1509 240 1565 240 c 0
 1610 240 1658 246 1702 256 c 0
 1742 265 1795 292 1837 343 c 0
 1897 416 1924 492 1995 492 c 0
 2083 492 2122 428.005859375 2122 349 c 0
 2122 191 1961 -26 1895 -26 c 0
 1851 -26 1754 -1 1616 -1 c 0
 1499 -1 1364 -23 1279 -23 c 0
 1192 -23 1126 -23 1042 -23 c 0
EndSplineSet
EndChar

StartChar: F.swsh
Encoding: 1114116 -1 116
Width: 2076
VWidth: 1920
Flags: HMW
LayerCount: 2
Fore
SplineSet
996 592 m 2
 1010 802 l 2
 1021 965 1049 1054 985 1085 c 0
 920 1116 643 1177 509 1177 c 0
 422 1177 319 1124 319 1026 c 0
 319 955 360 928 412 916 c 0
 463 904 508 899 568 871 c 0
 643 836 686 785 686 678 c 0
 686 561 550 483 424 483 c 0
 264 483 50 600 50 846 c 0
 50 1293 440 1520 835 1520 c 0
 1043 1520 1529 1459 1813 1459 c 0
 1866 1459 1897 1460 1925 1475 c 0
 1943 1484 2005 1525 2048 1525 c 0
 2129 1525 2176 1483 2176 1393 c 0
 2176 1217 1923 1032 1618 1032 c 0
 1553 1032 1536 1023 1520 995 c 0
 1516 987 1515 966 1515 958 c 0
 1515 928 1513 918 1513 888 c 0
 1513 841 1523 832 1561 824 c 0
 1586 818 1602 815 1623 815 c 0
 1734 815 1749 854 1859 854 c 0
 1915 854 1961 815 1961 764 c 0
 1961 663 1904 637 1904 561 c 0
 1904 479 1905 403 1905 341 c 0
 1905 272 1851 240 1795 240 c 0
 1645 240 1640 387 1624 519 c 0
 1621 543 1609 553 1560 553 c 0
 1548 553 1540 553 1529 553 c 0
 1479 553 1469 528 1466 504 c 0
 1464 484 1457 453 1452 429 c 2
 1408 272 l 2
 1360.93457031 104.0625 1236.609375 -42.66796875 1183 -100 c 0
 1039 -254 848 -319 621 -319 c 0
 374 -319 173 -186 173 4 c 0
 173 147 284 263 415 263 c 0
 518.077148438 263 596.42578125 196.608398438 611.381835938 118 c 0
 616.604492188 90.548828125 618 63.3310546875 618 36 c 0
 618 -24 642 -86 737 -86 c 0
 845 -86 898 37 938 205 c 0
 955 278 983 400 996 592 c 2
EndSplineSet
EndChar

StartChar: G.swsh
Encoding: 1114117 -1 117
Width: 1718
VWidth: 1920
Flags: HMW
LayerCount: 2
Fore
SplineSet
763 -39 m 0
 366 -39 85 117 85 563 c 0
 85 942.795898438 460 1439 945 1439 c 0
 1145 1439 1191 1403 1241 1403 c 0
 1277 1403 1287 1417 1345 1417 c 0
 1425 1417 1566 1270.37011719 1566 1113 c 0
 1566 966 1475 881 1380 881 c 0
 1285 881 1247 944 1223 989 c 0
 1164 1101 1117 1162 1040 1162 c 0
 875 1162 692 927.666015625 692 628 c 0
 692 332 794 265 911 265 c 0
 1008 265 1078 343 1078 410 c 0
 1078 442.344726562 1073 455 1048 465 c 0
 1020 477 969 484 946 494 c 0
 921.771293747 504.53422011 902 534 902 570 c 0
 902 626.435546875 921.250312324 651.009947123 962 678 c 0
 1039 729 1201 737 1356 737 c 0
 1484 737 1603 737 1657 715 c 0
 1709.73046875 693.517578125 1731 649.3515625 1731 598 c 0
 1731 540 1695 518 1674 510 c 0
 1647.22363281 499.799804688 1613 506 1587 479 c 0
 1569.65895782 460.991994663 1545 339 1537 274 c 2
 1526 184 l 2
 1476 -224 1245 -389 958 -389 c 0
 824 -389 746 -348 746 -285 c 0
 746 -227.618164062 792 -197 831 -183 c 0
 874 -168 906 -168 937 -157 c 0
 980 -142 1011 -112 1031 -5 c 1
 968 -16 866 -39 763 -39 c 0
EndSplineSet
EndChar

StartChar: M.swsh
Encoding: 1114118 -1 118
Width: 3165
VWidth: 1920
Flags: HMW
LayerCount: 2
Fore
SplineSet
1399 1146.66015625 m 4
 1343.45800781 1162.0859375 1320.65820312 1148.83203125 1277 1169.43066406 c 4
 1250.61132812 1181.88085938 1215 1213.91894531 1215 1272 c 4
 1215 1336 1258.78808594 1385.79492188 1293 1402 c 4
 1407 1456 1611 1467 1702 1467 c 4
 1743 1467 1796.79394531 1463.93359375 1827 1460 c 4
 1886.34082031 1452.27246094 1927.34179688 1391.7421875 1944 1338 c 6
 2081 896 l 6
 2093.52148438 855.602539062 2115 802 2143 802 c 4
 2168 802 2192.10742188 830.616210938 2235 896 c 6
 2502 1303 l 6
 2534.8203125 1353.02929688 2574.2265625 1395.61230469 2626 1426 c 4
 2697.14355469 1467.75585938 2797 1476 2879 1476 c 4
 2950.86425781 1476 3005.67578125 1467.33398438 3055 1449.12402344 c 4
 3146.42675781 1415.37109375 3197 1373.70019531 3197 1298 c 4
 3197 1256.45703125 3181.13476562 1233.67285156 3152 1215.86621094 c 4
 3120.92773438 1196.87597656 3070.41015625 1192.21875 3044.27636719 1154 c 4
 2997.15722656 1085.09277344 2984.90234375 961.760742188 2982 821 c 6
 2976 530 l 6
 2973.14453125 391.52734375 2963.84472656 316.159179688 3002.26367188 277 c 4
 3032.91894531 245.75390625 3060.94921875 242.056640625 3089 221.815429688 c 4
 3118.95214844 200.202148438 3137 183.392578125 3137 127 c 4
 3137 79.0234375 3117.46777344 31.703125 3069 6.466796875 c 4
 2999.75 -29.58984375 2852.21972656 -38 2749 -38 c 4
 2640.60546875 -38 2491.52636719 -46.01171875 2396 -15.798828125 c 4
 2314.87304688 9.8603515625 2276 43.6884765625 2276 119 c 4
 2276 151.848632812 2295.81445312 186.861328125 2332 207.7421875 c 4
 2360.40917969 224.135742188 2399.52539062 219.711914062 2429.47265625 248 c 4
 2463.17675781 279.836914062 2482.3828125 341.766601562 2484 428 c 6
 2487 588 l 6
 2488.30175781 657.4375 2476 701 2443 701 c 4
 2409 701 2381.77832031 661.739257812 2345 614 c 6
 2043 222 l 6
 1999.40527344 165.413085938 1934 106 1872 106 c 4
 1818 106 1788.80273438 149.240234375 1766 218 c 6
 1636 610 l 6
 1599.56347656 719.869140625 1546.74511719 682.63671875 1520 639 c 4
 1292 267 1027.39550781 -46 611 -46 c 4
 259 -46 50 151 50 448 c 4
 50 755 369 993 629 993 c 4
 805 993 915 889 915 752 c 4
 915 615 790 515 684 515 c 4
 569 515 458 613 396 613 c 4
 332 613 268 587 268 506 c 4
 268 398 393 263 600 263 c 4
 917.19921875 263 1284 610 1444 1030 c 4
 1451.27148438 1049.08789062 1455.99121094 1094.875 1447 1112 c 4
 1438.4921875 1128.20605469 1419.04589844 1141.09277344 1399 1146.66015625 c 4
EndSplineSet
EndChar

StartChar: N.swsh
Encoding: 1114119 -1 119
Width: 2792
VWidth: 1920
Flags: HMW
LayerCount: 2
Fore
SplineSet
1219 1097 m 0
 1194 1097 1164 1091 1135 1091 c 0
 1055 1091 1023 1149 1023 1209 c 0
 1023 1293 1102.47460938 1336.4140625 1184 1366 c 0
 1308 1411 1511 1434 1572 1434 c 0
 1658 1434 1732.0625 1360.80664062 1773 1310 c 2
 2221 754 l 2
 2245.25195312 728.118164062 2276 693 2297 693 c 0
 2321 693 2345.48632812 723.029296875 2361 856 c 2
 2375 976 l 2
 2389.78710938 1102.74804688 2380.98730469 1151.17285156 2339.17773438 1172 c 0
 2303.49609375 1189.77441406 2272.13671875 1196.43554688 2241.39550781 1209 c 0
 2214.69238281 1219.9140625 2196 1245.82714844 2196 1295 c 0
 2196 1413 2356 1435 2552 1435 c 0
 2775 1435 2885 1395 2885 1306 c 0
 2885 1280.90136719 2874.66894531 1244.14453125 2836.82226562 1225 c 0
 2799.7578125 1206.25097656 2744 1192 2718.88574219 1166 c 0
 2688.67480469 1134.72363281 2665.83496094 935.796875 2650 829 c 2
 2607 539 l 6
 2551.70117188 166.055664062 2517 -35 2325 -35 c 0
 2229 -35 2121.32324219 23.3681640625 2042 125 c 2
 1658 617 l 2
 1606.45898438 672.24609375 1561.58105469 687.538085938 1535 644 c 0
 1245 169 962.971679688 -60 610 -60 c 0
 277 -60 50 109 50 406 c 0
 50 723 372 951 662 951 c 0
 838 951 911 822 911 685 c 0
 911 598 798 482 672 482 c 0
 587 482 467 593 405 593 c 0
 361 593 287 551 287 470 c 0
 287 332 444 272 631 272 c 0
 883.927734375 272 1091 443 1361 825 c 0
 1390.40722656 866.60546875 1417.70507812 931.133789062 1374 983 c 2
 1325.96875 1040 l 2
 1284.80957031 1088.84472656 1268.39746094 1097 1219 1097 c 0
EndSplineSet
EndChar

StartChar: P.swsh
Encoding: 1114120 -1 120
Width: 2100
VWidth: 1920
Flags: HMW
LayerCount: 2
Fore
SplineSet
1363 436 m 2
 1353 353 l 2
 1339.7506081 243.030047217 1366.31738281 231.13671875 1394 214 c 0
 1415 201 1450 188 1471 172 c 0
 1487 160 1514 134.227539062 1514 99 c 0
 1514 54 1472 12 1413 -15 c 0
 1348 -45 1192 -67 1028 -67 c 0
 876 -67 818 -64 744 -38 c 0
 684 -17 641 19 641 94 c 0
 641 158.234375 671 183 696 198 c 0
 720 212 762 217 793 249 c 0
 825 282 853 375 879 591 c 2
 916 898 l 2
 934 1045 933 1111 912 1146 c 0
 897 1171 889 1178 822 1178 c 0
 635 1178 377 992 377 857 c 0
 377 785.384765625 404 766 438 766 c 0
 465 766 468 772 503 772 c 0
 589 772 693 710 693 551 c 0
 693 433.165039062 553 317 397 317 c 0
 207 317 49 415.826171875 49 715 c 0
 49 1102 501 1420 916 1420 c 0
 984 1420 1059 1411 1161 1411 c 0
 1323 1411 1505 1446 1674 1446 c 0
 1951 1446 2160 1338.00878906 2160 1066 c 0
 2160 742 1853 468 1559 468 c 0
 1418 468 1410 468 1393 468 c 0
 1383 468 1366 461 1363 436 c 2
1415 724 m 0
 1541 724 1630 840 1630 1023 c 0
 1630 1153.98046875 1578 1199 1496 1199 c 0
 1478 1199 1460 1195 1450 1184 c 0
 1433 1165 1416 1101 1409 1044 c 2
 1400 968 l 2
 1394 916 1383 799 1383 774 c 0
 1383 746 1377 724 1415 724 c 0
EndSplineSet
EndChar

StartChar: R.swsh
Encoding: 1114121 -1 121
Width: 2306
VWidth: 1920
Flags: HMW
LayerCount: 2
Fore
SplineSet
1462 830 m 0
 1568 830 1630 942 1630 1092 c 0
 1630 1142.88769531 1611 1197 1529 1197 c 0
 1504 1197 1458 1197 1446 1171 c 0
 1435 1148 1420 1088 1411 1013 c 2
 1402 938 l 2
 1398.12890625 905.744140625 1395 883 1394 858 c 0
 1394 830 1414 830 1462 830 c 0
1353 526 m 2
 1342 414 l 2
 1332 329 1339.61132812 271.791015625 1361 242 c 0
 1389 203 1422 189 1446 167 c 0
 1462 153 1479 130.296875 1479 88 c 0
 1479 47 1438 7 1366 -20 c 0
 1308.09082031 -41.7158203125 1177 -49 1049 -49 c 0
 896 -49 799 -44 742 -24 c 0
 688 -4 637 35 637 77 c 0
 637 133.389648438 656.41015625 158.28125 686 184 c 0
 707.0546875 202.30078125 745 215 783 255 c 0
 827.689453125 302.041015625 860 412 884 611 c 2
 918 890 l 2
 936 1037 939 1131 910 1164 c 0
 884.77734375 1192.70214844 835 1195 787 1195 c 0
 600 1195 362 1012 362 877 c 0
 362 805.384765625 392 790 436 790 c 0
 478 790 499 797 534 797 c 0
 620 797 695 762 695 601 c 0
 695 483.165039062 554 367 398 367 c 0
 208 367 50 475.826171875 50 755 c 0
 50 1148 542 1420 837 1420 c 0
 935 1420 1271 1417 1373 1417 c 0
 1525 1417 1609 1436 1758 1436 c 0
 2015 1436 2160 1307.60351562 2160 1096 c 0
 2160 974 2099 851 1982 784 c 0
 1964.11035156 773.755859375 1937 762.110351562 1937 744 c 0
 1937 723 1956.31835938 715.08984375 1971 707 c 0
 2020 680 2050 655 2083 555 c 0
 2138 390 2103 301 2151 252 c 0
 2176.23046875 226.243164062 2203.72753906 212.235351562 2218 203 c 0
 2252 181 2264 156.256835938 2264 115 c 0
 2264 20 2122 -41 1932 -41 c 0
 1792 -41 1725.33691406 1.0146484375 1675 62 c 0
 1571 188 1597.66601562 370.200195312 1569 507 c 0
 1554.95117188 574.04296875 1502 581 1470 581 c 0
 1439 581 1394 573 1383 568 c 0
 1373 564 1356 551 1353 526 c 2
EndSplineSet
EndChar

StartChar: T.swsh
Encoding: 1114122 -1 122
Width: 1887
VWidth: 1920
Flags: HMW
LayerCount: 2
Fore
SplineSet
800 1029 m 0
 716 1053 594 1088 460 1088 c 0
 383 1088 321 1061 321 1022 c 0
 321 1002.734375 333 983 364 958 c 0
 399 930 442 914 485 876 c 0
 537 829 560 764.544921875 560 690 c 0
 560 608 467 492 351 492 c 0
 191 492 49 586.874023438 49 816 c 0
 49 1310 473 1460 818 1460 c 0
 1126 1460 1422 1340 1566 1340 c 4
 1650 1340 1687 1421 1756 1421 c 0
 1837 1421 1884 1368.71777344 1884 1268 c 0
 1884 1112 1746 858 1571 858 c 0
 1490 858 1447 872 1410 872 c 0
 1360 872 1341.24123981 847.227280389 1337 793 c 2
 1323 614 l 2
 1310.77599131 457.707317504 1305 402 1305 350 c 0
 1305 293.963867188 1317.59938797 270.45043352 1338 256 c 0
 1362 239 1391.47735221 240.873872556 1425 226 c 0
 1466.23637547 207.703575529 1484 184.435546875 1484 137 c 0
 1484 63 1417 29 1351 4 c 0
 1286 -21 1155 -35 996 -35 c 0
 810 -35 701 -17 630 17 c 0
 568.709302331 46.3504749402 543 64.7255859375 543 114 c 0
 543 166 574.926757812 191.15625 598 205 c 0
 628 223 674 232 707 249 c 0
 729.08166989 260.375405701 752 295 761 321 c 0
 783 382 803.520002736 456.84743467 821 631 c 2
 848 900 l 2
 857.241838829 992.076097961 853 1014 800 1029 c 0
EndSplineSet
EndChar

StartChar: Y.swsh
Encoding: 1114123 -1 123
Width: 1983
VWidth: 1920
Flags: HMW
LayerCount: 2
Fore
SplineSet
1524 548 m 0
 1508.06640625 428.120117188 1498 368 1514 316 c 0
 1521 294 1540 273 1566 264 c 0
 1595 254 1622 255 1654 241 c 0
 1694 223 1711 183.311523438 1711 143 c 0
 1711 87 1659.46289062 33.9677734375 1588 4 c 0
 1526 -22 1394 -35 1234 -35 c 0
 996 -35 892 -31 841 8 c 0
 797 41 788 75.6181640625 788 113 c 0
 788 183 825 211 854 227 c 0
 879 240 916 239 941 247 c 0
 960 253 975 272 985 294 c 0
 1004 335 1010 364 1020 449 c 0
 1080 938 856 1092 666 1092 c 0
 432.826171875 1092 263 927 263 780 c 0
 263 707.993164062 319.83984375 657 379 657 c 0
 451 657 482 790 617 790 c 0
 733 790 798 716.05078125 798 578 c 0
 798 433 617 303 471 303 c 0
 267.901367188 303 50 469 50 752 c 0
 50 1139.00097656 463.743164062 1451 881 1451 c 0
 1163 1451 1294 1359 1387 1153 c 0
 1421 1077 1461 1063 1507 1154 c 0
 1622 1383 1738 1468 1874 1468 c 0
 2011 1468 2083 1386 2083 1266 c 0
 2083 1112.49414062 2006 1018 1915 1018 c 4
 1822 1018 1848 1076 1800 1076 c 4
 1739 1076 1566 864 1524 548 c 0
EndSplineSet
EndChar

StartChar: less
Encoding: 60 60 124
Width: 1084
Flags: HMW
LayerCount: 2
Fore
SplineSet
585 182 m 6
 561 190 l 6
 375 254 205 307 139 326 c 4
 115 332 110 339 110 359 c 6
 110 728 l 6
 110 748 115 755 139 761 c 4
 205.629882812 777.657226562 375 833 561 897 c 6
 585 905 l 6
 779 971 859 1011 925 1030 c 4
 937 1033 953.197265625 1038.37109375 966 1030 c 4
 992 1013 1040 796.256835938 1040 765 c 4
 1040 744 1019 737 1001 732 c 4
 935 713 831.96875 684.088867188 746 654 c 6
 726 647 l 6
 589.30078125 599.155273438 511 560 449 544 c 5
 511 527 589.295898438 487.846679688 726 440 c 6
 746 433 l 6
 831.96875 402.911132812 935 374 1001 355 c 4
 1019 350 1040 343 1040 322 c 4
 1040 290.743164062 992 74 966 57 c 4
 953.197265625 48.62890625 937 54 925 57 c 4
 859 76 779 116 585 182 c 6
EndSplineSet
EndChar

StartChar: greater
Encoding: 62 62 125
Width: 1084
Flags: HMW
LayerCount: 2
Fore
SplineSet
559 182 m 6
 365 116 285 76 219 57 c 4
 207 54 190.802734375 48.62890625 178 57 c 4
 152 74 104 290.743164062 104 322 c 4
 104 343 125 350 143 355 c 4
 209 374 312.03125 402.911132812 398 433 c 6
 418 440 l 6
 554.69921875 487.844726562 633 527 695 543 c 5
 633 560 554.704101562 599.153320312 418 647 c 6
 398 654 l 6
 312.03125 684.088867188 209 713 143 732 c 4
 125 737 104 744 104 765 c 4
 104 796.256835938 152 1013 178 1030 c 4
 190.802734375 1038.37109375 207 1033 219 1030 c 4
 285 1011 365 971 559 905 c 6
 583 897 l 6
 769 833 939 780 1005 761 c 4
 1029 755 1034 748 1034 728 c 6
 1034 359 l 6
 1034 339 1029 332 1005 326 c 4
 938.370117188 309.342773438 769 254 583 190 c 6
 559 182 l 6
EndSplineSet
EndChar

StartChar: asciicircum
Encoding: 94 94 126
Width: 1226
Flags: HMW
LayerCount: 2
Fore
SplineSet
1019 976 m 2
 1092.26171875 812.569335938 1146 732 1177 663 c 0
 1182 651 1186 632 1186 625 c 0
 1186 583 948 499 907 499 c 0
 876 499 869 510 861 529 c 0
 830 598 796.380499001 691.99686627 741 838 c 2
 730 867 l 2
 674.035637425 1014.54241042 642 1089 613 1154 c 1
 584 1089 547.212016804 1015.51484873 496 867 c 2
 486 838 l 2
 436.769014429 695.230141845 416 598 385 529 c 0
 377 510 370 499 339 499 c 0
 298 499 40 583 40 625 c 0
 40 632 44 651 49 663 c 0
 80 732 133.435546875 811.895507812 207 976 c 2
 220 1005 l 2
 312.409179688 1211.14355469 351 1294 382 1363 c 0
 393 1388 400 1410 450 1410 c 2
 776 1410 l 2
 826 1410 833 1388 844 1363 c 0
 875 1294 913.7578125 1210.77050781 1006 1005 c 2
 1019 976 l 2
EndSplineSet
EndChar

StartChar: gravecomb
Encoding: 768 768 127
Width: 0
VWidth: 1920
Flags: HMW
AnchorPoint: "top" -121 920 mark 0
LayerCount: 2
Fore
SplineSet
-222 1118 m 4
 -283 1160 -324 1199 -344 1227 c 4
 -360 1251 -367 1283 -364 1309 c 4
 -356 1373 -287 1424 -192 1424 c 4
 -105 1424 -63 1398 -39 1356 c 4
 -17 1318 -24 1262 15 1222 c 4
 50 1186 74 1157 69 1115 c 4
 64 1076 21 1045 -22 1045 c 4
 -70 1045 -143 1063 -222 1118 c 4
EndSplineSet
EndChar

StartChar: acutecomb
Encoding: 769 769 129
Width: 0
VWidth: 1920
Flags: HMW
AnchorPoint: "top" -246 920 mark 0
LayerCount: 2
Fore
SplineSet
-97 1118 m 4
 -189 1063 -267 1045 -315 1045 c 4
 -358 1045 -393 1076 -388 1115 c 4
 -383 1157 -352 1186 -308 1222 c 4
 -259 1262 -253 1318 -222 1356 c 4
 -188 1398 -138 1424 -51 1424 c 4
 44 1424 101 1373 93 1309 c 4
 90 1283 75 1251 53 1227 c 4
 27 1199 -26 1160 -97 1118 c 4
EndSplineSet
EndChar

StartChar: uni0302
Encoding: 770 770 130
Width: 0
VWidth: 1920
Flags: HMW
AnchorPoint: "top" -300 1025 mark 0
LayerCount: 2
Fore
SplineSet
-403 1178 m 4
 -496 1127 -515 1122 -549 1122 c 4
 -597 1122 -630 1145 -626 1181 c 4
 -621 1222 -594 1249 -567 1275 c 6
 -466 1354 l 6
 -364 1432 -315 1469 -247 1469 c 4
 -185 1469 -140 1434 -73 1373 c 6
 13 1293 l 6
 42 1258 68 1226 62 1181 c 4
 58 1145 19 1122 -29 1122 c 4
 -63 1122 -80 1127 -161 1178 c 4
 -210 1209 -239 1232 -275 1237 c 5
 -313 1232 -346 1209 -403 1178 c 4
EndSplineSet
EndChar

StartChar: tildecomb
Encoding: 771 771 131
Width: 0
VWidth: 1920
Flags: HMW
AnchorPoint: "top" -303 1025 mark 0
LayerCount: 2
Fore
SplineSet
-102 1387 m 4
 -72 1387 -66 1409 -55 1442 c 4
 -39 1490 -10 1522 41 1522 c 4
 89 1522 125 1487 118 1434 c 4
 102 1303 -15 1144 -162 1144 c 4
 -362 1144 -369 1279 -429 1279 c 4
 -459 1279 -465 1257 -476 1224 c 4
 -492 1176 -520 1144 -572 1144 c 4
 -610 1144 -658 1159 -649 1232 c 4
 -633 1363 -516 1522 -369 1522 c 4
 -169 1522 -162 1387 -102 1387 c 4
EndSplineSet
EndChar

StartChar: asciitilde
Encoding: 126 126 132
Width: 1182
VWidth: 1920
Flags: HMW
LayerCount: 2
Fore
SplineSet
425 499 m 4
 392 499 369 479 356 442 c 0
 341 397 324 304 205 304 c 0
 140 304 74 358 89 482 c 0
 107 632 252 802 452 802 c 0
 668 802 718 587 800 587 c 0
 833 587 856 607 869 644 c 0
 886 694 901 782 1018 782 c 0
 1093 782 1160 717 1145 594 c 0
 1128 452 979 284 773 284 c 0
 557 284 507 499 425 499 c 4
EndSplineSet
EndChar

StartChar: uni0304
Encoding: 772 772 136
Width: 0
VWidth: 1920
Flags: HMW
AnchorPoint: "top" -296 1025 mark 0
LayerCount: 2
Fore
SplineSet
-295 1175 m 6
 -401 1175 -491 1168 -567 1168 c 4
 -604 1168 -625 1181 -621 1212 c 6
 -602 1372 l 6
 -598 1403 -573 1416 -536 1416 c 4
 -460 1416 -372 1409 -266 1409 c 6
 -245 1409 l 6
 -139 1409 -48 1416 28 1416 c 4
 65 1416 86 1403 82 1372 c 6
 63 1212 l 6
 59 1181 34 1168 -3 1168 c 4
 -79 1168 -168 1175 -274 1175 c 6
 -295 1175 l 6
EndSplineSet
EndChar

StartChar: uni0306
Encoding: 774 774 138
Width: 0
VWidth: 1920
Flags: HMW
AnchorPoint: "top" -240 1025 mark 0
LayerCount: 2
Fore
SplineSet
-227 1122 m 4
 -423 1122 -520 1220 -496 1413 c 4
 -488 1479 -441 1520 -385 1520 c 4
 -339 1520 -320 1497 -301 1457 c 4
 -282 1419 -255 1392 -194 1392 c 4
 -133 1392 -103 1414 -71 1457 c 4
 -46 1491 -18 1520 28 1520 c 4
 84 1520 121 1479 113 1413 c 4
 89 1220 -31 1122 -227 1122 c 4
EndSplineSet
EndChar

StartChar: uni0307
Encoding: 775 775 139
Width: 0
VWidth: 1920
Flags: HMW
AnchorPoint: "top" -170.179 1024.73 mark 0
LayerCount: 2
Fore
SplineSet
-280 1353 m 0
 -280 1439 -212 1507 -126 1507 c 0
 -40 1507 28 1439 28 1353 c 0
 28 1267 -40 1199 -126 1199 c 0
 -212 1199 -280 1267 -280 1353 c 0
EndSplineSet
EndChar

StartChar: uni0308
Encoding: 776 776 140
Width: 0
VWidth: 1920
Flags: HMW
AnchorPoint: "top" -350.179 1024.73 mark 0
LayerCount: 2
Fore
SplineSet
-680 1293 m 0
 -680 1379 -612 1447 -526 1447 c 0
 -440 1447 -372 1379 -372 1293 c 0
 -372 1207 -440 1139 -526 1139 c 0
 -612 1139 -680 1207 -680 1293 c 0
-260 1293 m 0
 -260 1379 -192 1447 -106 1447 c 0
 -20 1447 48 1379 48 1293 c 0
 48 1207 -20 1139 -106 1139 c 0
 -192 1139 -260 1207 -260 1293 c 0
EndSplineSet
EndChar

StartChar: uni030A
Encoding: 778 778 141
Width: 0
VWidth: 1920
Flags: HMW
AnchorPoint: "top" -332.424 925 mark 0
LayerCount: 2
Fore
SplineSet
-355.52510288 1247.88889376 m 0
 -355.52510288 1203.58840064 -337.766814536 1178 -301 1178 c 0
 -227.573515432 1178 -224.415996822 1279.46631196 -224.415996822 1296.92563738 c 0
 -224.415996822 1340.72510413 -241.459110006 1366 -278 1366 c 0
 -346.614574719 1366 -355.52510288 1278.65313371 -355.52510288 1247.88889376 c 0
-263 1490 m 0
 -123.499786305 1490 -32.4341209994 1408.69915092 -32.4341209994 1297.57653733 c 0
 -32.4341209994 1165.11857197 -153.222067283 1054 -317 1054 c 0
 -456.500213695 1054 -547.565879001 1135.30084908 -547.565879001 1246.42346267 c 0
 -547.565879001 1378.88142803 -426.777932717 1490 -263 1490 c 0
EndSplineSet
EndChar

StartChar: uni030B
Encoding: 779 779 142
Width: 0
VWidth: 1920
Flags: HMW
AnchorPoint: "top" -492.538 920 mark 0
LayerCount: 2
Fore
SplineSet
-477 1118 m 4
 -559 1063 -607 1045 -655 1045 c 4
 -698 1045 -733 1076 -728 1115 c 4
 -723 1157 -692 1186 -648 1222 c 4
 -599 1262 -593 1318 -562 1356 c 4
 -528 1398 -478 1424 -411 1424 c 4
 -326 1424 -289 1373 -297 1309 c 4
 -300 1283 -315 1251 -337 1227 c 4
 -363 1199 -408 1164 -477 1118 c 4
-97 1118 m 4
 -189 1063 -267 1045 -315 1045 c 4
 -358 1045 -393 1076 -388 1115 c 4
 -383 1157 -325 1190 -278 1222 c 4
 -219 1262 -203 1318 -172 1356 c 4
 -138 1398 -85 1424 -18 1424 c 4
 62 1424 101 1373 93 1309 c 4
 90 1283 75 1251 53 1227 c 4
 27 1199 -26 1160 -97 1118 c 4
EndSplineSet
EndChar

StartChar: uni030F
Encoding: 783 783 143
Width: 0
VWidth: 1920
Flags: HMW
AnchorPoint: "top" -215 920 mark 0
LayerCount: 2
Fore
SplineSet
-182 1118 m 4
 -240 1164 -274 1199 -294 1227 c 4
 -310 1251 -317 1283 -314 1309 c 4
 -306 1373 -257 1424 -172 1424 c 4
 -105 1424 -63 1398 -39 1356 c 4
 -17 1318 -24 1262 15 1222 c 4
 50 1186 74 1157 69 1115 c 4
 64 1076 21 1045 -22 1045 c 4
 -70 1045 -113 1063 -182 1118 c 4
-562 1118 m 4
 -623 1160 -664 1199 -684 1227 c 4
 -700 1251 -707 1283 -704 1309 c 4
 -696 1373 -645 1424 -565 1424 c 4
 -498 1424 -453 1398 -429 1356 c 4
 -407 1318 -404 1262 -355 1222 c 4
 -316 1190 -266 1157 -271 1115 c 4
 -276 1076 -319 1045 -362 1045 c 4
 -410 1045 -483 1063 -562 1118 c 4
EndSplineSet
EndChar

StartChar: uni030C
Encoding: 780 780 144
Width: 0
VWidth: 1920
Flags: HMW
AnchorPoint: "top" -240 1025 mark 0
LayerCount: 2
Fore
SplineSet
-74 1398 m 4
 19 1449 38 1454 72 1454 c 4
 120 1454 152 1431 148 1395 c 4
 143 1354 117 1327 90 1301 c 6
 -12 1222 l 6
 -114 1144 -163 1107 -231 1107 c 4
 -293 1107 -337 1142 -404 1203 c 6
 -490 1283 l 6
 -519 1318 -546 1350 -540 1395 c 4
 -536 1431 -496 1454 -448 1454 c 4
 -414 1454 -397 1449 -316 1398 c 4
 -267 1367 -239 1344 -203 1339 c 5
 -165 1344 -131 1367 -74 1398 c 4
EndSplineSet
EndChar

StartChar: uni0311
Encoding: 785 785 145
Width: 0
VWidth: 1920
Flags: HMW
AnchorPoint: "top" -240 1025 mark 0
LayerCount: 2
Fore
SplineSet
-178 1520 m 0
 18 1520 115 1421 91 1228 c 0
 83 1162 36 1122 -20 1122 c 0
 -66 1122 -86 1144 -105 1184 c 0
 -124 1222 -151 1250 -212 1250 c 0
 -273 1250 -303 1227 -335 1184 c 0
 -360 1150 -388 1122 -434 1122 c 0
 -490 1122 -527 1162 -519 1228 c 0
 -495 1421 -374 1520 -178 1520 c 0
EndSplineSet
EndChar

StartChar: uni0312
Encoding: 786 786 146
Width: 0
Flags: HMW
AnchorPoint: "top" -531.038 920 mark 0
LayerCount: 2
Fore
SplineSet
-357.099609375 1634.59960938 m 0
 -357.099609375 1614.59960938 -369.900390625 1594.59960938 -393.900390625 1573.79980469 c 0
 -412.356445312 1557.8046875 -451.5 1507.40039062 -451.5 1435.40039062 c 0
 -451.5 1361.63202112 -286.700195312 1409.87731913 -286.700195312 1215.40039062 c 4
 -286.700195312 1127.79980469 -370.700195312 1005.79980469 -488.299804688 1005.79980469 c 0
 -614.700195312 1005.79980469 -692.299804688 1059.79980469 -692.299804688 1205.40039062 c 0
 -692.299804688 1451.79980469 -515.5 1684.20019531 -456.299804688 1684.20019531 c 0
 -381.099609375 1684.20019531 -357.099609375 1653.79980469 -357.099609375 1634.59960938 c 0
EndSplineSet
EndChar

StartChar: dotbelowcomb
Encoding: 803 803 147
Width: 0
VWidth: 1920
Flags: HMW
AnchorPoint: "bottom" -295 0 mark 0
LayerCount: 2
Fore
SplineSet
-470 -281 m 0
 -470 -195 -402 -127 -316 -127 c 0
 -230 -127 -162 -195 -162 -281 c 0
 -162 -367 -230 -434 -316 -434 c 0
 -402 -434 -470 -367 -470 -281 c 0
EndSplineSet
EndChar

StartChar: uni0326
Encoding: 806 806 148
Width: 0
Flags: HMW
AnchorPoint: "bottom" -295 0 mark 0
LayerCount: 2
Fore
SplineSet
-479 -769 m 0
 -479 -749 -466 -729 -442 -708 c 0
 -424 -692 -385 -642 -385 -570 c 0
 -385 -493.281230743 -540 -553.296188612 -540 -350 c 4
 -540 -232 -436 -140 -318 -140 c 0
 -192 -140 -134 -234 -134 -350 c 0
 -134 -596 -321 -818 -380 -818 c 0
 -455 -818 -479 -788 -479 -769 c 0
EndSplineSet
EndChar

StartChar: uni0327
Encoding: 807 807 149
Width: 0
Flags: HMW
AnchorPoint: "bottom" -365 0 mark 0
LayerCount: 2
Fore
SplineSet
-461 -500 m 0
 -633 -500 -691 -422 -691 -346 c 0
 -691 -304 -667 -271 -610 -271 c 0
 -565 -271 -555 -301 -543 -320 c 0
 -526 -346 -505 -354 -493 -354 c 0
 -471 -354 -444 -322 -444 -264 c 0
 -444 -224 -458 -216 -479 -216 c 0
 -496 -216 -502 -224 -545 -224 c 0
 -582 -224 -601 -206 -601 -184 c 0
 -601 -165 -587 -149 -571 -120 c 2
 -480 10 l 1
 -260 10 l 1
 -331 -97 l 1
 -323 -96 -313 -95 -300 -95 c 0
 -202 -95 -144 -160 -144 -248 c 0
 -144 -346 -259 -500 -461 -500 c 0
EndSplineSet
EndChar

StartChar: uni0328
Encoding: 808 808 150
Width: 0
Flags: HMW
AnchorPoint: "ogonek" -261 0 mark 0
LayerCount: 2
Fore
SplineSet
-262 98 m 5
 -184 30 l 17
 -238 -19 -393 -109 -393 -254 c 0
 -393 -308 -365 -320 -339 -320 c 0
 -293 -320 -299 -271 -235 -271 c 0
 -191 -271 -158 -303 -158 -350 c 0
 -158 -430 -249 -502 -409 -502 c 0
 -589 -502 -687 -428 -687 -302 c 0
 -687 -101 -424 50 -262 98 c 5
EndSplineSet
EndChar

StartChar: minute
Encoding: 8242 8242 166
Width: 590
VWidth: 1920
Flags: HMW
LayerCount: 2
Fore
SplineSet
190 709 m 4
 137 709 115 764 115 814 c 4
 115 844.784179688 124.602539062 895.873046875 134.543945312 960 c 4
 142.912109375 1013.97851562 146 1171.12011719 146 1282 c 4
 146 1420 258 1503 375 1503 c 4
 480 1503 555 1435 555 1320 c 4
 555 1191.19433594 438.87109375 1095.01855469 356.293945312 927 c 4
 297.73046875 807.841796875 235.833984375 709 190 709 c 4
EndSplineSet
EndChar

StartChar: Eth
Encoding: 208 208 186
Width: 1594
VWidth: 1920
Flags: HMW
LayerCount: 2
Fore
SplineSet
490 558 m 2
 264 558 204 551 128 551 c 0
 91 551 69 564 73 595 c 2
 100 815 l 2
 104 846 128 859 165 859 c 0
 241 859 300 852 526 852 c 2
 547 852 l 2
 773 852 833 859 909 859 c 4
 946 859 968 846 964 815 c 6
 937 595 l 6
 933 564 909 551 872 551 c 4
 796 551 737 558 511 558 c 2
 490 558 l 2
EndSplineSet
Refer: 4 68 N 1 0 0 1 0 0 2
EndChar

StartChar: dotlessi
Encoding: 305 305 187
Width: 663
VWidth: 1920
Flags: HMW
AnchorPoint: "top" 391 1000 basechar 0
LayerCount: 2
Fore
SplineSet
98 435 m 0
 120.805664062 555.647460938 130 614 130 658 c 0
 130 682 123 694 113 700 c 0
 104 705 94 706 84 706 c 0
 74 706 67 706 59 706 c 0
 51 706 44 707 37 709 c 0
 31 711 26 714 22 718 c 0
 13 727 5 740 5 766 c 0
 5 845.272460938 99.6259765625 901.086914062 207 942.765625 c 0
 321.762695312 987.3125 451.0859375 1015 495 1015 c 0
 576 1015 613 975 613 908 c 0
 613 854 598.7421875 798.0390625 561 548 c 0
 545 442 527 362 527 303 c 0
 527 289 540 277 555 277 c 0
 565.916992188 277 574.665039062 277.862304688 583 279.260742188 c 0
 591.393554688 280.668945312 597.19921875 282 608 282 c 0
 635 282 658 251 658 226 c 0
 658 151 599.139648438 114.8203125 519 64 c 0
 437 12 325 -25 227 -25 c 0
 108 -25 52 38 52 120 c 0
 52 197 67 271 98 435 c 0
EndSplineSet
EndChar

StartChar: kgreenlandic
Encoding: 312 312 188
Width: 1191
VWidth: 1920
Flags: HMW
LayerCount: 2
Fore
SplineSet
91 591 m 24
 96 629 100 644 100 688 c 0
 100 712 93 724 83 730 c 0
 74 735 64 736 54 736 c 0
 44 736 37 736 29 736 c 0
 21 736 14 737 7 739 c 0
 1 741 -4 744 -8 748 c 0
 -17 757 -25 770 -25 796 c 0
 -25 875 70 931 177 973 c 0
 292 1018 421 1045 465 1045 c 0
 531 1045 554 1021 555 976 c 0
 555 951 549 933 549 909 c 0
 549 884 557 875 570 875 c 0
 580 875 600 897 618 911 c 0
 751 1011 861 1041 945 1041 c 0
 1062 1041 1186 964 1186 825 c 0
 1186 671 1087 588 966 518 c 0
 952 510 939 500 939 492 c 0
 939 478 959 453 970 439 c 0
 1002 398 1021 361 1048 309 c 0
 1057 292 1062 279 1080 273 c 0
 1097 267 1110 260 1121 253 c 0
 1125 250 1128 248 1131 245 c 0
 1149 229 1156 208 1156 181 c 0
 1156 60 877 -28 793 -28 c 0
 761 -28 725 -22 704 -12 c 0
 669 5 640 33 623 76 c 0
 581 181 579 274 552 277 c 0
 535 279 525 278 513 276 c 0
 500 273 492 268 487 257 c 0
 468 216 473 174 473 146 c 0
 473 115 447 63 425 45 c 0
 385 13 260 -32 169 -32 c 0
 41 -32 10 21 10 50 c 0
 10 152 61 380 91 591 c 24
503 497 m 0
 503 474 523 468 540 468 c 0
 595 468 722 620 722 692 c 0
 722 712 714 737 671 737 c 0
 564 737 503 532 503 497 c 0
EndSplineSet
EndChar

StartChar: multiply
Encoding: 215 215 189
Width: 1222
Flags: HMW
LayerCount: 2
Fore
SplineSet
565 671 m 6
 689 795 755 891 809 945 c 4
 828 964 839 971 854 956 c 6
 1096 714 l 6
 1111 699 1104 688 1085 669 c 4
 1031 615 935 549 811 425 c 6
 757 371 l 6
 633 247 545 129 491 75 c 4
 472 56 461 49 446 64 c 6
 204 306 l 6
 189 321 196 332 215 351 c 4
 269 405 387 493 511 617 c 6
 565 671 l 6
811 595 m 6
 935 471 1031 405 1085 351 c 4
 1104 332 1111 321 1096 306 c 6
 854 64 l 6
 839 49 828 56 809 75 c 4
 755 129 689 225 565 349 c 6
 511 403 l 6
 387 527 269 615 215 669 c 4
 196 688 189 699 204 714 c 6
 446 956 l 6
 461 971 472 964 491 945 c 4
 545 891 633 773 757 649 c 6
 811 595 l 6
EndSplineSet
EndChar

StartChar: Dcroat
Encoding: 272 272 190
Width: 1594
VWidth: 1920
Flags: HMW
LayerCount: 2
Fore
SplineSet
490 558 m 2
 264 558 204 551 128 551 c 0
 91 551 69 564 73 595 c 2
 100 815 l 2
 104 846 128 859 165 859 c 0
 241 859 300 852 526 852 c 2
 547 852 l 2
 773 852 833 859 909 859 c 4
 946 859 968 846 964 815 c 6
 937 595 l 6
 933 564 909 551 872 551 c 4
 796 551 737 558 511 558 c 2
 490 558 l 2
EndSplineSet
Refer: 4 68 N 1 0 0 1 0 0 2
EndChar

StartChar: percent
Encoding: 37 37 197
Width: 1740
Flags: HMW
LayerCount: 2
Fore
SplineSet
1735 370 m 260
 1735 150 1494 -35 1289 -35 c 260
 1124 -35 932 56 932 291 c 260
 932 513 1177 685 1371 685 c 260
 1542 685 1735 599 1735 370 c 260
1299 116 m 260
 1337 116 1400 203 1400 417 c 260
 1400 488 1393 534 1368 534 c 260
 1318 534 1267 447 1267 235 c 260
 1267 155 1269 116 1299 116 c 260
888 968 m 260
 888 748 647 563 442 563 c 260
 277 563 85 654 85 889 c 260
 85 1111 330 1283 524 1283 c 260
 695 1283 888 1197 888 968 c 260
452 714 m 260
 490 714 553 801 553 1015 c 260
 553 1086 546 1132 521 1132 c 260
 471 1132 420 1045 420 833 c 260
 420 753 422 714 452 714 c 260
940 546 m 6
 772 306 650 123 559 -7 c 4
 545 -27 527 -27 512 -16 c 6
 427 39 l 6
 412 50 406 68 420 88 c 4
 511 218 643 395 811 635 c 6
 850 691 l 6
 1018 931 1155 1137 1246 1267 c 4
 1260 1287 1271.61523438 1291.92285156 1294 1277 c 6
 1378 1221 l 6
 1400.38476562 1206.07714844 1400 1192 1386 1172 c 4
 1295 1042 1148 843 980 603 c 6
 940 546 l 6
EndSplineSet
EndChar

StartChar: cent
Encoding: 162 162 201
Width: 1061
VWidth: 1920
Flags: HMW
LayerCount: 2
Fore
SplineSet
678 1055 m 4
 944 1055 1061 906 1061 750 c 4
 1061 653.299804688 968 537 850 537 c 4
 756 537 692 571 681 640 c 4
 671 704 668 767 596 767 c 4
 513 767 449 703 449 578 c 4
 449 446 544 340 692 340 c 4
 781 340 799 389 894 389 c 4
 933 389 973 362.02734375 973 298 c 4
 973 157 727 -25 457 -25 c 4
 163 -25 5 200 5 436 c 4
 5 860 381 1055 678 1055 c 4
579 6 m 6
 574 -36 590 -56.9584054212 590 -79 c 4
 590 -104 475.283203125 -150 383 -150 c 4
 369 -150 347 -141 347 -120 c 4
 347 -77.796875 384 -12 402 132 c 6
 512 1030 l 6
 517 1072 501 1092.95800781 501 1105 c 4
 501 1167.37597656 666.70703125 1196 709 1196 c 4
 733 1196 754 1179.24902344 754 1156 c 4
 754 1133 707 1048 689 904 c 6
 579 6 l 6
EndSplineSet
EndChar

StartChar: exclamdown
Encoding: 161 161 202
Width: 596
VWidth: 1920
Flags: HMW
LayerCount: 2
Fore
SplineSet
590 829 m 4
 590 704.799804688 479.200195312 596 346 596 c 4
 212.799804688 596 134 685.799804688 134 809 c 4
 134 938.200195312 235.799804688 1042 369 1042 c 4
 502.200195312 1042 590 962.200195312 590 829 c 4
493 -133 m 4
 493 -341.315429688 395 -409 218 -409 c 4
 61 -409 6 -340 6 -229 c 4
 6 24.265625 182 328 214 376 c 4
 245.186523438 422.780273438 287 467 323 467 c 4
 359 467 391 420 414 376 c 4
 435 337 493 158 493 -133 c 4
EndSplineSet
EndChar

StartChar: AE
Encoding: 198 198 203
Width: 1956
VWidth: 1920
Flags: HMW
LayerCount: 2
Fore
SplineSet
1218.41503906 1426 m 0
 1310.40332031 1423.51367188 1464.41503906 1421 1543.41503906 1421 c 0
 1666.41503906 1421 1735.41503906 1441 1782.41503906 1441 c 0
 1872.41503906 1441 1961.41503906 1284 1961.41503906 1154 c 0
 1961.41503906 1019 1863.41503906 983 1817.41503906 983 c 0
 1790.18554688 983 1769.44628906 989.393554688 1752.41503906 1003.38964844 c 0
 1736.21484375 1016.70214844 1723.36914062 1036.89257812 1711.48144531 1065 c 0
 1680.328125 1138.66503906 1643.17773438 1171.23535156 1590.41503906 1178 c 0
 1528.41503906 1186 1494.41503906 1179 1432.41503906 1179 c 0
 1357.41503906 1179 1351.41503906 1130 1340.41503906 1074 c 0
 1328.41503906 1011 1326.41503906 979 1319.41503906 906 c 0
 1316.41503906 878 1320.41503906 860 1328.41503906 848 c 0
 1337.41503906 835 1351.41503906 830 1364.41503906 830 c 0
 1395.41503906 830 1433.41503906 833 1445.41503906 905 c 0
 1453.41503906 952 1459.41503906 1014 1547.41503906 1014 c 0
 1642.41503906 1014 1671.41503906 907 1671.41503906 797 c 0
 1671.41503906 739 1664.41503906 680 1653.41503906 636 c 0
 1613.41503906 471 1582.41503906 393 1488.41503906 393 c 0
 1446.34570312 393 1407.6328125 425.262695312 1403.78515625 464 c 0
 1401.3828125 488.18359375 1409.47558594 516.008789062 1408.01855469 538 c 0
 1405.87695312 570.323242188 1391.45898438 595 1343.41503906 595 c 0
 1298.41503906 595 1280.76757812 585.958984375 1275.41503906 541 c 0
 1270.41503906 499 1271.01074219 486.388671875 1270.41503906 469 c 0
 1269.04394531 428.9609375 1270.41503906 328 1270.41503906 278 c 0
 1270.41503906 236 1291.92382812 212.088867188 1316.41503906 211 c 0
 1361.41503906 209 1381.41503906 206 1437.41503906 206 c 0
 1492.41503906 206 1533.64648438 211.477539062 1572.41503906 228 c 0
 1617.80078125 247.342773438 1655.41503906 302 1681.41503906 356 c 0
 1713.41503906 422 1758.41503906 475 1818.41503906 475 c 0
 1889.41503906 475 1938.41503906 409 1938.41503906 311 c 0
 1938.41503906 148 1824.41503906 -30 1715.41503906 -30 c 0
 1679.41503906 -30 1619.41503906 -23 1561.41503906 -23 c 0
 1444.41503906 -23 1403.41503906 -22 1318.41503906 -22 c 0
 1231.41503906 -22 1167.41503906 -20 1071.41503906 -21 c 24
 973.415039062 -22 875.415039062 -28 790.415039062 -28 c 0
 729.415039062 -28 716.415039062 20 721.415039062 64 c 0
 727.415039062 113 744.415039062 139 790.415039062 149 c 0
 823.415039062 156 845.415039062 177 863.415039062 200 c 0
 870.415039062 210 893.415039062 243 898.415039062 265 c 0
 901.415039062 281 903.415039062 285 904.415039062 296 c 0
 906.415039062 316 899.415039062 314 881.415039062 317 c 0
 860.415039062 320 799.415039062 323 759.415039062 323 c 0
 690.415039062 323 645.415039062 318 594.415039062 318 c 0
 528.415039062 318 510.415039062 303 495.415039062 273 c 2
 491.415039062 265 l 2
 486.415039062 255 484.415039062 247 483.415039062 240 c 0
 481.415039062 226 487.415039062 217 499.415039062 211 c 0
 521.415039062 200 567.415039062 192 585.415039062 179 c 0
 601.415039062 168 608.415039062 144 604.415039062 111 c 0
 590.415039062 -6 464.415039062 -29 271.415039062 -29 c 0
 80.4150390625 -29 -40.5849609375 -19 -24.5849609375 109 c 0
 -19.5849609375 151 2.4150390625 175 24.4150390625 188 c 0
 54.4150390625 206 103.415039062 202 142.415039062 239 c 0
 183.415039062 278 238.415039062 359 324.415039062 472 c 2
 638.415039062 886 l 2
 757.415039062 1043 869.415039062 1137 877.415039062 1200 c 0
 879.415039062 1215 868.415039062 1223 837.415039062 1229 c 0
 803.415039062 1235 764.415039062 1235 742.415039062 1247 c 0
 724.415039062 1257 715.415039062 1274 719.415039062 1307 c 4
 731.415039062 1401 790.415039062 1434 947.415039062 1434 c 0
 1015.41503906 1434 1107.41503906 1429 1218.41503906 1426 c 0
962.415039062 642 m 0
 965.415039062 667 967.415039062 684 971.415039062 714 c 0
 974.415039062 740 984.415039062 818 988.415039062 850 c 0
 990.415039062 865 986.415039062 885 961.415039062 885 c 0
 943.415039062 885 911.415039062 850 879.415039062 810 c 2
 790.415039062 698 l 2
 772.415039062 675 760.415039062 646 758.415039062 631 c 0
 756.415039062 617 766.415039062 613 779.415039062 613 c 0
 791.415039062 613 809.415039062 614 876.415039062 614 c 0
 911.415039062 614 918.415039062 611 930.415039062 611 c 0
 946.415039062 611 961.415039062 630 962.415039062 642 c 0
EndSplineSet
EndChar

StartChar: sterling
Encoding: 163 163 208
Width: 1856
Flags: HMW
LayerCount: 2
Fore
SplineSet
315 678 m 4
 315 702 446 865 474 895 c 4
 488 910 501 918 522 918 c 4
 585 918 1326 903 1379 903 c 4
 1471 903 1490 919 1545 919 c 4
 1564 919 1577 902 1577 883 c 4
 1577 859 1529 698 1512 667 c 4
 1503 650 1489 641 1470 641 c 4
 1442 641 1393 660 1330 660 c 6
 535 660 l 6
 455 660 359 650 344 650 c 4
 330 650 315 660 315 678 c 4
1371 1460 m 4
 1621 1460 1753 1385 1753 1231 c 4
 1753 1114 1674 1051 1564 1051 c 4
 1364 1051 1365 1253 1281 1253 c 4
 1247 1253 1138.57421875 1259.63964844 1123 1086 c 4
 1106.25097656 899.262695312 1215.73339844 733.946289062 1153 605 c 4
 1094.45214844 484.65625 1042 416 999 382 c 4
 965.206054688 355.279296875 963.384765625 311.311523438 1058 291 c 4
 1169.69238281 267.022460938 1249 177 1341 177 c 4
 1387.13574219 177 1416 204 1416 228 c 4
 1416 252 1403 287 1403 337 c 4
 1403 481.125 1504.85742188 530 1621 530 c 4
 1728 530 1811 458 1811 334 c 4
 1811 90 1420 -104 1110 -104 c 4
 890 -104 749 -23 656 47 c 4
 627.415039062 68.515625 573 73 537 52 c 4
 471.80859375 13.9716796875 335 -43 217 -43 c 4
 99 -43 5 37 5 156 c 4
 5 304 141.9296875 412.526367188 383 418 c 4
 446.265625 419.436523438 505 420 549 467 c 4
 608.955078125 531.041992188 610.802734375 561.221679688 652 654 c 4
 716.237304688 798.666015625 685.305664062 901.344726562 725 1076 c 4
 795 1384 1071 1460 1371 1460 c 4
EndSplineSet
EndChar

StartChar: yen
Encoding: 165 165 209
Width: 1462
VWidth: 1920
Flags: HMW
LayerCount: 2
Fore
SplineSet
741 335 m 6
 545 335 326 331 250 331 c 4
 223 331 210 334 213 355 c 6
 235 535 l 6
 238 556 251 559 278 559 c 4
 354 559 572 556 768 556 c 6
 789 556 l 6
 1015 556 1206 559 1282 559 c 4
 1309 559 1322 556 1319 535 c 6
 1297 355 l 6
 1294 334 1281 331 1254 331 c 4
 1178 331 988 335 762 335 c 6
 741 335 l 6
778 635 m 6
 582 635 362 631 286 631 c 4
 259 631 246 634 249 655 c 6
 272 835 l 6
 275 856 287 859 314 859 c 4
 390 859 609 856 805 856 c 6
 826 856 l 6
 1052 856 1242 859 1318 859 c 4
 1345 859 1359 856 1356 835 c 6
 1333 655 l 6
 1330 634 1317 631 1290 631 c 4
 1214 631 1025 635 799 635 c 6
 778 635 l 6
EndSplineSet
Refer: 25 89 N 1 0 0 1 0 0 2
EndChar

StartChar: brokenbar
Encoding: 166 166 210
Width: 488
VWidth: 1920
Flags: HMW
LayerCount: 2
Fore
SplineSet
446 16 m 6
 446 -60 458 -244 458 -320 c 4
 458 -347 455 -360 434 -360 c 6
 134 -360 l 6
 113 -360 110 -347 110 -320 c 4
 110 -244 122 -60 122 16 c 6
 122 43 l 6
 122 119 110 304 110 380 c 4
 110 407 113 420 134 420 c 6
 434 420 l 6
 455 420 458 407 458 380 c 4
 458 304 446 119 446 43 c 6
 446 16 l 6
446 996 m 6
 446 920 458 736 458 660 c 4
 458 633 455 620 434 620 c 6
 134 620 l 6
 113 620 110 633 110 660 c 4
 110 736 122 920 122 996 c 6
 122 1023 l 6
 122 1099 110 1284 110 1360 c 4
 110 1387 113 1400 134 1400 c 6
 434 1400 l 6
 455 1400 458 1387 458 1360 c 4
 458 1284 446 1099 446 1023 c 6
 446 996 l 6
EndSplineSet
EndChar

StartChar: plusminus
Encoding: 177 177 211
Width: 1222
Flags: HMW
LayerCount: 2
Fore
SplineSet
616 8 m 6
 370 8 286 1 210 1 c 4
 183 1 170 4 170 25 c 6
 170 315 l 6
 170 336 183 339 210 339 c 4
 286 339 370 332 616 332 c 6
 637 332 l 6
 883 332 998 339 1074 339 c 4
 1101 339 1114 336 1114 315 c 6
 1114 25 l 6
 1114 4 1101 1 1074 1 c 4
 998 1 883 8 637 8 c 6
 616 8 l 6
807 831 m 6
 807 655 834 586 834 510 c 4
 834 483 831 470 810 470 c 6
 490 470 l 6
 469 470 466 483 466 510 c 4
 466 586 493 655 493 831 c 6
 493 848 l 6
 493 1024 466 1124 466 1200 c 4
 466 1227 469 1240 490 1240 c 6
 810 1240 l 6
 831 1240 834 1227 834 1200 c 4
 834 1124 807 1024 807 848 c 6
 807 831 l 6
142 713 m 4
 142 817 182 919 229 990 c 4
 240.326171875 1007.109375 263 1013 284 1013 c 4
 347 1013 912 998 965 998 c 4
 1057 998 1076 1014 1131 1014 c 4
 1150 1014 1163 997 1163 978 c 4
 1163 954 1120 815 1067 712 c 4
 1058.19921875 694.896484375 1034 676 1015 676 c 4
 987 676 938 695 875 695 c 6
 380 695 l 6
 270 695 218 665 183 665 c 4
 159 665 142 675 142 713 c 4
EndSplineSet
EndChar

StartChar: copyright
Encoding: 169 169 212
Width: 1572
Flags: MW
LayerCount: 2
Fore
SplineSet
531.200195312 700 m 0
 531.200195312 505.5 644.5 389.5 786 389.5 c 4
 913.318359375 389.5 988.203125 471.828125 1028.66601562 568.43359375 c 1
 1145.14355469 517.842773438 l 1
 1103.78027344 379.952148438 983.249023438 259 796 259 c 4
 563 259 366.400390625 431 366.400390625 700 c 0
 366.400390625 969 563 1141 796 1141 c 4
 983.416015625 1141 1114.06152344 1009.86523438 1155.35839844 871.743164062 c 1
 1028.8828125 831.153320312 l 1
 988.471679688 918.01953125 913.475585938 1010.5 786 1010.5 c 4
 644.5 1010.5 531.200195312 894.5 531.200195312 700 c 0
141.599609375 700 m 0
 141.599609375 326.5 421.5 28.5 786 28.5 c 0
 1150.5 28.5 1430.40039062 326.5 1430.40039062 700 c 0
 1430.40039062 1073.5 1150.5 1371.5 786 1371.5 c 0
 421.5 1371.5 141.599609375 1073.5 141.599609375 700 c 0
70 700 m 0
 70 1115 381 1435 786 1435 c 0
 1191 1435 1502 1115 1502 700 c 0
 1502 285 1191 -35 786 -35 c 0
 381 -35 70 285 70 700 c 0
EndSplineSet
EndChar

StartChar: registered
Encoding: 174 174 213
Width: 1572
Flags: MW
LayerCount: 2
Fore
SplineSet
70 700 m 0
 70 1115 381 1435 786 1435 c 0
 1191 1435 1502 1115 1502 700 c 0
 1502 285 1191 -35 786 -35 c 0
 381 -35 70 285 70 700 c 0
141.599609375 700 m 0
 141.599609375 326.5 421.5 28.5 786 28.5 c 0
 1150.5 28.5 1430.40039062 326.5 1430.40039062 700 c 0
 1430.40039062 1073.5 1150.5 1371.5 786 1371.5 c 0
 421.5 1371.5 141.599609375 1073.5 141.599609375 700 c 0
502 284 m 1
 502 1116 l 1
 845.758789062 1116 l 2
 1008.75878906 1116 1105.35839844 1024 1105.35839844 865 c 0
 1105.35839844 728.930664062 1040.03222656 668.11328125 948.657226562 635.528320312 c 1
 1158 284 l 1
 997 284 l 1
 816.188476562 608 l 1
 636 608 l 1
 636 284 l 1
 502 284 l 1
960.55859375 855 m 0
 960.55859375 949.5 917.258789062 995.5 815.758789062 995.5 c 2
 636 995.5 l 1
 636 718.5 l 1
 815.758789062 718.5 l 2
 917.258789062 718.5 960.55859375 760.5 960.55859375 855 c 0
EndSplineSet
EndChar

StartChar: uni00AD
Encoding: 173 173 214
Width: 702
Flags: HMW
LayerCount: 2
Fore
SplineSet
110 486 m 4
 110 540 138.309570312 708.356445312 184 803 c 4
 198 832 221 846 252 846 c 4
 315 846 341 841 394 841 c 4
 486 841 565 857 620 857 c 4
 649 857 672 842 672 813 c 4
 672 759 619.049804688 611.97265625 582 507 c 4
 570 473 529 461 490 461 c 4
 440 461 368 474 302 474 c 4
 228 474 194 442 159 442 c 4
 135 442 110 458 110 486 c 4
EndSplineSet
EndChar

StartChar: logicalnot
Encoding: 172 172 215
Width: 1164
VWidth: 2048
Flags: HMW
LayerCount: 2
Fore
SplineSet
496 458 m 6
 320 458 286 451 210 451 c 4
 183 451 170 454 170 475 c 6
 170 765 l 6
 170 786 183 789 210 789 c 4
 286 789 320 782 596 782 c 6
 617 782 l 6
 886 782 954 789 1028 789 c 4
 1071 789 1074 778 1074 750 c 4
 1074 674 1067 485 1067 409 c 4
 1067 317 1074 281 1074 200 c 4
 1074 173 1071 160 1050 160 c 6
 770 160 l 6
 749 160 746 173 746 200 c 4
 746 226 749 254 749 290 c 4
 749 324 749 406 748 452 c 5
 685 454 615 458 517 458 c 6
 496 458 l 6
EndSplineSet
EndChar

StartChar: degree
Encoding: 176 176 217
Width: 700
VWidth: 1920
Flags: HMW
LayerCount: 2
Fore
SplineSet
361 1115 m 4
 361 1053.79980469 403.299804688 1011.5 460 1011.5 c 4
 516.700195312 1011.5 559 1053.79980469 559 1115 c 4
 559 1176.20019531 516.700195312 1218.5 460 1218.5 c 4
 403.299804688 1218.5 361 1176.20019531 361 1115 c 4
160 1115 m 4
 160 1285 290 1415 460 1415 c 4
 630 1415 760 1285 760 1115 c 4
 760 945 630 815 460 815 c 4
 290 815 160 945 160 1115 c 4
EndSplineSet
EndChar

StartChar: questiondown
Encoding: 191 191 218
Width: 1011
VWidth: 1920
Flags: HMW
LayerCount: 2
Fore
SplineSet
845 821 m 0
 845 696.799804688 744.200195312 599 611 599 c 0
 477.799804688 599 405 687.799804688 405 811 c 0
 405 940.200195312 509.799804688 1044 643 1044 c 0
 766.200195312 1044 845 944.200195312 845 821 c 0
610 486 m 0
 686 486 747 469 747 405 c 0
 747 201 516 46 516 -61 c 0
 516 -108 538 -140 573 -140 c 0
 657 -140 710.295898438 -63.5322265625 717 -18 c 0
 720.638671875 6.7119140625 730.112304688 47.421875 757 78.9306640625 c 0
 778.8125 104.493164062 812.084960938 124 863 124 c 0
 932 124 966 91 966 11 c 0
 966 -171 718 -407 360 -407 c 0
 182 -407 35 -305 35 -144 c 0
 35 197 480 215 480 334 c 0
 480 347.883789062 478.26953125 360.111328125 475.913085938 366 c 0
 473.90625 371.012695312 471.446289062 374.330078125 469.213867188 378 c 0
 465.848632812 383.53125 463 389.862304688 463 404 c 0
 463 455 544 486 610 486 c 0
EndSplineSet
EndChar

StartChar: currency
Encoding: 164 164 220
Width: 1248
VWidth: 1920
Flags: HMW
LayerCount: 2
Fore
SplineSet
501 695 m 0
 488 591 552 520 648 520 c 0
 744 520 823 591 836 695 c 0
 849 799 787 870 691 870 c 0
 595 870 514 799 501 695 c 0
491 1100 m 5
 553 1131 616 1156 726 1156 c 0
 836 1156 892 1130 946 1099 c 5
 1029 1176 1114 1252 1140 1275 c 0
 1161 1294 1173 1301 1186 1286 c 2
 1310 1144 l 2
 1323 1129 1315 1118 1294 1099 c 0
 1268 1076 1183 1002 1098 928 c 5
 1125 869 1144 808 1130 695 c 0
 1116 585 1083 526 1045 468 c 5
 1110 396 1176 324 1196 301 c 0
 1213 282 1218 271 1201 256 c 2
 1042 114 l 2
 1025 99 1015 106 998 125 c 0
 978 148 916 221 853 295 c 5
 790 262 726 234 613 234 c 0
 500 234 442 262 387 295 c 5
 305 220 225 147 200 125 c 0
 179 106 167 99 154 114 c 2
 29 256 l 2
 16 271 25 282 46 301 c 0
 71 323 152 395 236 468 c 5
 212 526 194 585 208 695 c 0
 222 808 258 869 298 928 c 5
 230 1003 164 1076 144 1099 c 0
 127 1118 121 1129 138 1144 c 2
 298 1286 l 2
 315 1301 325 1294 342 1275 c 0
 362 1252 425 1177 491 1100 c 5
EndSplineSet
EndChar

StartChar: section
Encoding: 167 167 221
Width: 1034
Flags: HMW
LayerCount: 2
Fore
SplineSet
349 198 m 0
 349.365113663 190.880283563 349.633789062 183.5 350.653320312 176 c 0
 355.174804688 142.7421875 377.223182576 110 423 110 c 0
 469 110 500 129 500 160 c 0
 500 207.336309405 402 275 310 332 c 0
 141 437 94 548.909179688 94 668 c 0
 94 846 207 957 297 992 c 0
 315.358362961 999.139363374 315.17101719 1000.05274499 308 1023 c 0
 303 1039 299 1062.67285156 299 1081 c 0
 299 1300 478 1435 742 1435 c 0
 966 1435 1044 1319.65527344 1044 1227 c 0
 1044 1141 986 1095 894 1095 c 0
 822 1095 780 1142 777 1202 c 0
 775 1241 759 1290 703 1290 c 0
 657 1290 626 1266 626 1240 c 0
 626 1196.66369059 724 1125 816 1068 c 0
 985 963 1029 861.090820312 1029 722 c 0
 1029 538 912 444 832 409 c 0
 810 399 811.354920508 399.419048094 816 382 c 0
 824 352 827 337.311523438 827 307 c 0
 827 65 608 -35 384 -35 c 0
 269.290482586 -35 194.471997788 -6.88403122769 147.99999953 32.5022931619 c 4
 99.6721255755 73.4615243539 82 126.609256772 82 173 c 0
 82 251.560546875 139 305 231 305 c 0
 303 305 346 258 349 198 c 0
725 547.747070312 m 0
 739.634765625 559.384765625 750 572.783338274 750 596 c 0
 750 652 708 680 590 761 c 0
 542.700845199 793.940482808 470.987304688 840.294921875 434 863.283203125 c 0
 429.212890625 866.2578125 415.205078125 860.234375 406 853.89453125 c 0
 390.079101562 842.9296875 377 830.555123329 377 803 c 0
 377 748 417 720 535 639 c 0
 571.597134813 613.512709684 641 565 688 541.854492188 c 0
 706.031601497 532.974692755 714 539 725 547.747070312 c 0
EndSplineSet
EndChar

StartChar: dagger
Encoding: 8224 8224 222
Width: 912
Flags: HMW
LayerCount: 2
Fore
SplineSet
313 916 m 4
 345 916 393 901 409 883 c 12
 425 865 427 838 421 792 c 4
 392 556 386 478 384 368 c 4
 382 212 389 56 386 0 c 4
 383 -56 416 -68 438 0 c 12
 460 68 503 218 528 360 c 4
 554 504 564 567 609 806 c 4
 613 826 612 848 640 848 c 4
 672 848 727 826 810 826 c 4
 869 826 922 860 930 924 c 4
 935 968 910 992 868 992 c 4
 798 992 802 904 743 904 c 4
 671 904 606 926 590 952 c 4
 577 973 578 998 581 1020 c 12
 584 1042 619 1054 625 1100 c 4
 630 1138 582 1145 584 1159 c 4
 586 1173 614 1188 618 1220 c 4
 622 1252 588 1266 590 1286 c 4
 591 1296 619 1309 623 1338 c 4
 625 1358 614 1380 586 1380 c 12
 558 1380 536 1358 534 1338 c 12
 532 1318 550 1299 548 1283 c 12
 546 1267 500 1256 496 1220 c 4
 492 1184 522 1169 521 1157 c 4
 520 1145 475 1132 471 1096 c 4
 465 1050 503 1038 500 1010 c 12
 497 982 479 954 447 954 c 12
 415 954 346 990 260 990 c 12
 174 990 128 948 123 904 c 4
 118 860 145 834 189 834 c 4
 265 834 251 916 313 916 c 4
EndSplineSet
EndChar

StartChar: daggerdbl
Encoding: 8225 8225 223
Width: 912
Flags: HMW
LayerCount: 2
Fore
SplineSet
509 665 m 4
 513 565 515 440 497 295 c 6
 494 267 l 6
 491 243 491 242 511 226 c 4
 523 216 538 209 556 209 c 4
 615 209 602 300 672 300 c 4
 702 300 720 280 716 245 c 4
 709 190 668 149 602 149 c 4
 566 149 531 163 504 178 c 4
 470 196 458 181 453 143 c 6
 449 108 l 6
 446 87 466 81 462 47 c 4
 458 13 437 10 435 -10 c 4
 433 -28 421 -38 406 -38 c 4
 391 -38 383 -28 385 -10 c 4
 388 13 368 13 372 47 c 4
 376 81 396 86 399 108 c 6
 403 139 l 6
 408 182 408 183 373 214 c 4
 359 227 337 240 311 240 c 4
 252 240 265 149 195 149 c 4
 165 149 147 169 151 204 c 4
 158 259 199 300 265 300 c 4
 300 300 334 287 361 272 c 4
 383 260 394 266 396 286 c 6
 397 295 l 6
 415 440 443 565 471 665 c 4
 477 685 508 685 509 665 c 4
478 722 m 4
 474 822 477 947 495 1092 c 6
 498 1120 l 6
 501 1144 501 1145 481 1161 c 4
 469 1171 454 1178 436 1178 c 4
 377 1178 390 1087 320 1087 c 4
 290 1087 272 1107 276 1142 c 4
 283 1197 324 1238 390 1238 c 4
 426 1238 461 1224 488 1209 c 4
 522 1191 534 1206 539 1244 c 6
 543 1279 l 6
 546 1300 526 1306 530 1340 c 4
 534 1374 555 1377 557 1397 c 4
 559 1415 571 1425 586 1425 c 4
 601 1425 609 1415 607 1397 c 4
 604 1374 624 1374 620 1340 c 4
 616 1306 596 1301 593 1279 c 6
 589 1248 l 6
 584 1205 584 1204 619 1173 c 4
 633 1160 655 1147 681 1147 c 4
 740 1147 727 1238 797 1238 c 4
 827 1238 845 1218 841 1183 c 4
 834 1128 793 1087 727 1087 c 4
 692 1087 658 1100 631 1115 c 4
 609 1127 598 1121 596 1101 c 6
 595 1092 l 6
 577 947 544 822 516 722 c 4
 510 702 479 702 478 722 c 4
EndSplineSet
EndChar

StartChar: Thorn
Encoding: 222 222 224
Width: 1396
VWidth: 1920
Flags: HMW
LayerCount: 2
Fore
SplineSet
720 486 m 4
 846 486 917 570 933 703 c 4
 948 827 877 918 795 918 c 4
 777 918 758 915 748 904 c 4
 731 886 721 825 714 771 c 6
 705 698 l 6
 699 649 687 557 687 533 c 4
 687 506 682 486 720 486 c 4
223 578 m 6
 255 835 l 6
 280 1040 282 1158 258 1189 c 4
 235 1219 195 1223 174 1237 c 4
 152 1252 144 1278 148 1310 c 4
 154 1355 201 1394 266 1414 c 4
 346 1439 455 1439 557 1439 c 4
 721 1439 824 1427 881 1398 c 4
 933 1372 947 1332 942 1289 c 4
 938 1256 925 1241 906 1229 c 4
 881 1214 856 1210 836 1200 c 4
 821 1192 814 1182 813 1173 c 4
 812 1161 825 1152 836 1152 c 4
 898 1152 939 1152 992 1152 c 4
 1265 1152 1454 1017 1423 763 c 4
 1385 455 1169 260 875 260 c 4
 734 260 744 261 727 261 c 4
 717 261 701 254 699 242 c 4
 699 239 698 233 701 227 c 4
 703 222 707 218 715 213 c 4
 732 203 757 199 778 184 c 4
 794 172 803 157 799 124 c 4
 794 81 770 41 711 15 c 4
 647 -14 541 -26 377 -26 c 4
 275 -26 166 -26 92 -1 c 4
 31 19 -6 58 -0 103 c 4
 4 135 18 161 43 176 c 4
 67 190 108 194 139 224 c 4
 156 240 171 280 185 343 c 4
 198 401 211 480 223 578 c 6
EndSplineSet
EndChar

StartChar: Oslash
Encoding: 216 216 225
Width: 1590
VWidth: 1920
Flags: HMW
LayerCount: 2
Fore
SplineSet
597 250 m 6
 357 0 315 -54 259 -112 c 4
 239 -133 227 -140 213 -127 c 6
 31 72 l 6
 17 85 24 97 44 118 c 4
 100 176 152 220 392 470 c 6
 1024 1127 l 6
 1264 1377 1329 1454 1385 1512 c 4
 1405 1533 1417 1540 1431 1527 c 6
 1613 1328 l 6
 1627 1315 1620 1303 1600 1282 c 4
 1544 1224 1469 1156 1229 906 c 6
 597 250 l 6
EndSplineSet
Refer: 15 79 N 1 0 0 1 0 0 2
EndChar

StartChar: germandbls
Encoding: 223 223 227
Width: 1582
VWidth: 1920
Flags: HMW
LayerCount: 2
Fore
SplineSet
1530 333 m 256
 1530 413 1496 470 1390 578 c 0
 1295.33300781 674.453125 1240 715 1240 760 c 0
 1240 909 1389 962 1389 1115 c 0
 1389 1275 1153 1422 626 1422 c 0
 219 1422 78 1262 78 1066 c 0
 78 943 178 875 178 851 c 0
 178 830.982421875 159 827 149 827 c 0
 132 827 100 830 75 830 c 0
 29 830 12 669 12 635 c 0
 12 597.094726562 34 588 62 588 c 0
 86 588 113 590 160 590 c 0
 204 590 206.654296875 541.888671875 202 500 c 2
 196 446 l 2
 181.122070312 312.09765625 154 163 109 -45 c 0
 102.896484375 -73.2138671875 94.3916015625 -114.686523438 76.28125 -146 c 0
 61.3935546875 -171.741210938 36.103515625 -188.3203125 22.24609375 -211 c 0
 9.291015625 -232.202148438 5 -255.467773438 5 -273 c 0
 5 -340 99 -384 187 -384 c 0
 332 -384 459 -345 531 -290 c 0
 555.876953125 -270.997070312 573 -245.215820312 573 -208 c 0
 573 -92 568.180664062 -9.4970703125 607 313 c 2
 620 421 l 2
 638.378855742 573.685878475 663 675 663 725 c 0
 663 776.084960938 659.316071526 815.075604565 645 861 c 0
 604.094392385 992.220726039 508 1039 508 1112 c 0
 508 1159 585 1196 663 1196 c 4
 794 1196 874 1155 874 1081 c 0
 874 962 775 912 775 689 c 0
 775 588 829 496 903 414 c 0
 962.359375 348.223632812 1021 290 1021 253 c 256
 1021 223 997 198 945 198 c 256
 897.760742188 198 875.000976562 209.66796875 861.510742188 228 c 0
 855.978515625 235.518554688 852.330078125 244.145507812 849.25390625 253 c 0
 832.688476562 300.690429688 814.591796875 324 766 324 c 0
 683 324 645 258 645 178 c 0
 645 115.288085938 676.7734375 62.7890625 735 24.5146484375 c 0
 802.3515625 -19.7587890625 905.09765625 -45 1035 -45 c 256
 1373 -45 1530 152 1530 333 c 256
EndSplineSet
EndChar

StartChar: ae
Encoding: 230 230 228
Width: 1688
VWidth: 1920
Flags: HMW
LayerCount: 2
Fore
SplineSet
1099 541.747070312 m 0
 1103.14257812 537.111328125 1111.35351562 531 1123 531 c 0
 1180 531 1230.53613281 575.552734375 1271 652 c 0
 1286.55078125 681.379882812 1305 727 1305 763 c 0
 1305 780.288085938 1300.87011719 795.423828125 1293.78808594 807 c 0
 1284.62207031 821.981445312 1270.50878906 831 1254 831 c 0
 1216.15722656 831 1173.33789062 808.760742188 1135.11328125 745 c 0
 1112.28808594 706.92578125 1090 642.177734375 1090 568 c 0
 1090 559.102539062 1092.54199219 548.97265625 1099 541.747070312 c 0
1429 1022 m 0
 1502.51660156 1022 1575.00976562 1000.62792969 1623 953.810546875 c 0
 1661.08691406 916.654296875 1683 862.729492188 1683 796 c 0
 1683 683 1619 584 1555 521 c 0
 1485 452 1332 364 1153 364 c 0
 1101 364 1089 361 1089 331 c 0
 1089 308 1097.59472656 287.63671875 1120 263 c 0
 1150.91113281 229.009765625 1198 228 1252 228 c 0
 1333.60449219 228 1397.68359375 254.701171875 1482 304.764648438 c 0
 1506.93847656 319.572265625 1524.50097656 330 1545 330 c 0
 1567 330 1582.21191406 320.302734375 1600 301 c 0
 1617.22265625 282.310546875 1626 261 1626 247 c 0
 1626 188.399414062 1560.65917969 125.041992188 1453 69.2802734375 c 0
 1358.5703125 20.37109375 1233.88964844 -25 1061 -25 c 0
 902.101778149 -25 753.348018785 24.3389766438 674.231348107 129.279311636 c 1
 561.889756799 41.5967294557 433.696192545 -15 314 -15 c 0
 80 -15 5 110 5 308 c 0
 5 685 257 1029 599 1029 c 0
 743.530341663 1029 894.219726562 984.12109375 958 902 c 5
 1097.90820312 978.62890625 1232.57482088 1022 1429 1022 c 0
705 813 m 0
 534 813 431 519 431 363 c 0
 431 303 467 299 490 299 c 0
 522.158875819 299 570.20703125 320.796875 618.0390625 355.3203125 c 1
 617.0390625 360.703125 616.365217295 366.263535038 616.365217295 371.99999613 c 0
 616.365217295 431.682845994 633.867838572 518.448872477 677.986433136 607.999995056 c 0
 704.832701319 662.492063004 741.534201724 718.015382693 790.144293471 769.095274212 c 1
 771.188441101 793.860089197 743.821122994 812.999999998 705 813 c 0
EndSplineSet
EndChar

StartChar: eth
Encoding: 240 240 238
Width: 1094
Flags: HMW
LayerCount: 2
Fore
SplineSet
680 1222 m 6
 615 1143 560 1068 508 1006 c 4
 490 984 478 975 462 987 c 6
 328 1082 l 6
 312 1094 319 1106 337 1128 c 4
 389 1190 451 1262 516 1341 c 6
 530 1358 l 6
 609 1453 651 1512 703 1574 c 4
 721 1596 733 1605 749 1593 c 6
 883 1498 l 6
 899 1486 892 1474 874 1452 c 4
 822 1390 773 1334 694 1239 c 6
 680 1222 l 6
417 236 m 260
 544 236 670 581 670 696 c 260
 670 731 657 752 627 752 c 260
 566 752 514 700 474 630 c 4
 407 514 370 350 370 298 c 260
 370 277 375 262 383 252 c 4
 391 241 403 236 417 236 c 260
5 311 m 4
 5 523 73 692 213 820 c 4
 338 934 538 985 659 945 c 4
 706 930 712 947 696 978 c 4
 636 1095 514 1241 389 1309 c 4
 365 1322 344 1334 344 1348 c 4
 344 1366 396 1420 423 1430 c 4
 459 1443 484 1431 539 1413 c 4
 743 1344 1089 1123 1089 726 c 4
 1089 285 829 -25 379 -25 c 4
 137 -25 5 107 5 311 c 4
EndSplineSet
EndChar

